<svg width="188" height="122" viewBox="0 0 188 122" fill="none" xmlns="http://www.w3.org/2000/svg">
<rect width="188" height="122" rx="12" fill="white"/>
<path d="M55.8006 72.7C55.7206 72.7 55.6306 72.67 55.5306 72.61C55.4306 72.55 55.3606 72.42 55.3206 72.22L50.7906 53.83C50.7706 53.69 50.7106 53.63 50.6106 53.65C50.5106 53.65 50.4606 53.72 50.4606 53.86L49.8606 70.42C49.8406 70.98 49.9306 71.41 50.1306 71.71C50.3306 71.99 50.6806 72.17 51.1806 72.25L51.5706 72.31C51.8306 72.33 51.9606 72.45 51.9606 72.67C51.9606 72.89 51.8106 73 51.5106 73H47.2206C46.9206 73 46.7706 72.89 46.7706 72.67C46.7706 72.45 46.9006 72.33 47.1606 72.31L47.5506 72.25C48.0706 72.17 48.4206 71.99 48.6006 71.71C48.8006 71.41 48.9106 70.98 48.9306 70.42L49.5306 53.38C49.5506 52.96 49.4906 52.68 49.3506 52.54C49.2106 52.4 48.9106 52.29 48.4506 52.21L47.7606 52.09C47.5006 52.03 47.3706 51.91 47.3706 51.73C47.3706 51.51 47.5206 51.4 47.8206 51.4H51.4206C52.0406 51.4 52.4206 51.7 52.5606 52.3L56.1906 67.27C56.2306 67.41 56.2906 67.48 56.3706 67.48C56.4706 67.48 56.5306 67.41 56.5506 67.27L60.3306 52.15C60.4506 51.65 60.7706 51.4 61.2906 51.4H64.8306C65.1306 51.4 65.2806 51.51 65.2806 51.73C65.2806 51.91 65.1506 52.03 64.8906 52.09L64.2006 52.21C63.7806 52.29 63.5006 52.4 63.3606 52.54C63.2206 52.68 63.1606 52.96 63.1806 53.38L63.7806 71.02C63.8006 71.44 63.8706 71.72 63.9906 71.86C64.1106 72 64.3806 72.11 64.8006 72.19L65.4906 72.31C65.7506 72.37 65.8806 72.49 65.8806 72.67C65.8806 72.89 65.7306 73 65.4306 73H60.0006C59.7006 73 59.5506 72.89 59.5506 72.67C59.5506 72.49 59.6806 72.37 59.9406 72.31L60.6306 72.19C61.0506 72.11 61.3306 72 61.4706 71.86C61.6106 71.72 61.6706 71.44 61.6506 71.02L61.1406 53.86C61.1406 53.72 61.0906 53.65 60.9906 53.65C60.9106 53.63 60.8506 53.68 60.8106 53.8L56.2506 72.22C56.2106 72.42 56.1406 72.55 56.0406 72.61C55.9606 72.67 55.8806 72.7 55.8006 72.7ZM74.0502 73.27C73.0902 73.27 72.1902 72.99 71.3502 72.43C70.5102 71.85 69.7702 71.06 69.1302 70.06C68.5102 69.06 68.0202 67.89 67.6602 66.55C67.3202 65.19 67.1502 63.73 67.1502 62.17C67.1502 60.61 67.3202 59.16 67.6602 57.82C68.0202 56.48 68.5102 55.31 69.1302 54.31C69.7702 53.29 70.5102 52.5 71.3502 51.94C72.1902 51.38 73.0902 51.1 74.0502 51.1C75.0102 51.1 75.9002 51.38 76.7202 51.94C77.5602 52.5 78.3002 53.29 78.9402 54.31C79.5802 55.31 80.0702 56.48 80.4102 57.82C80.7702 59.16 80.9502 60.61 80.9502 62.17C80.9502 63.73 80.7702 65.19 80.4102 66.55C80.0702 67.89 79.5802 69.06 78.9402 70.06C78.3002 71.06 77.5602 71.85 76.7202 72.43C75.9002 72.99 75.0102 73.27 74.0502 73.27ZM74.0502 72.46C75.4702 72.46 76.5802 71.61 77.3802 69.91C78.1802 68.21 78.5802 65.63 78.5802 62.17C78.5802 58.71 78.1802 56.14 77.3802 54.46C76.5802 52.76 75.4702 51.91 74.0502 51.91C72.6502 51.91 71.5402 52.76 70.7202 54.46C69.9202 56.14 69.5202 58.71 69.5202 62.17C69.5202 65.63 69.9202 68.21 70.7202 69.91C71.5402 71.61 72.6502 72.46 74.0502 72.46ZM82.8784 73C82.5784 73 82.4284 72.89 82.4284 72.67C82.4284 72.49 82.5584 72.37 82.8184 72.31L83.5084 72.19C84.1884 72.07 84.5284 71.68 84.5284 71.02V53.38C84.5284 52.96 84.4584 52.68 84.3184 52.54C84.1984 52.4 83.9284 52.29 83.5084 52.21L82.8184 52.09C82.5584 52.03 82.4284 51.91 82.4284 51.73C82.4284 51.51 82.5784 51.4 82.8784 51.4H88.9384C90.4984 51.4 91.8484 51.86 92.9884 52.78C94.1284 53.68 95.0084 54.95 95.6284 56.59C96.2484 58.23 96.5584 60.13 96.5584 62.29C96.5584 64.47 96.2284 66.36 95.5684 67.96C94.9284 69.56 94.0184 70.8 92.8384 71.68C91.6584 72.56 90.2584 73 88.6384 73H82.8784ZM88.7584 72.22C90.5384 72.22 91.8884 71.37 92.8084 69.67C93.7484 67.97 94.2184 65.51 94.2184 62.29C94.2184 59.09 93.7684 56.61 92.8684 54.85C91.9884 53.07 90.6784 52.18 88.9384 52.18C87.4184 52.18 86.6584 52.91 86.6584 54.37V70.03C86.6584 70.83 86.8184 71.4 87.1384 71.74C87.4784 72.06 88.0184 72.22 88.7584 72.22ZM98.4936 73C98.1936 73 98.0436 72.89 98.0436 72.67C98.0436 72.49 98.1736 72.37 98.4336 72.31L99.1236 72.19C99.5436 72.11 99.8136 72 99.9336 71.86C100.074 71.72 100.144 71.44 100.144 71.02V53.38C100.144 52.96 100.074 52.68 99.9336 52.54C99.8136 52.4 99.5436 52.29 99.1236 52.21L98.4336 52.09C98.1736 52.03 98.0436 51.91 98.0436 51.73C98.0436 51.51 98.1936 51.4 98.4936 51.4H108.574C109.034 51.4 109.284 51.63 109.324 52.09L109.564 57.07C109.604 57.41 109.474 57.58 109.174 57.58C108.934 57.58 108.794 57.45 108.754 57.19L108.574 56.08C108.354 54.72 107.904 53.73 107.224 53.11C106.544 52.47 105.604 52.15 104.404 52.15C103.604 52.15 103.044 52.27 102.724 52.51C102.424 52.73 102.274 53.13 102.274 53.71V60.94C102.274 61.22 102.414 61.36 102.694 61.36H104.194C105.074 61.36 105.614 60.89 105.814 59.95L106.114 58.45C106.194 58.15 106.364 58.02 106.624 58.06C106.844 58.1 106.954 58.27 106.954 58.57V65.32C106.954 65.62 106.844 65.79 106.624 65.83C106.364 65.87 106.194 65.74 106.114 65.44L105.814 63.97C105.674 63.27 105.474 62.81 105.214 62.59C104.974 62.37 104.624 62.26 104.164 62.26H102.694C102.414 62.26 102.274 62.4 102.274 62.68V70.21C102.274 70.93 102.454 71.45 102.814 71.77C103.194 72.09 103.874 72.25 104.854 72.25C105.854 72.25 106.704 72 107.404 71.5C108.124 70.98 108.624 70.02 108.904 68.62L109.264 66.85C109.324 66.59 109.474 66.46 109.714 66.46C109.994 66.46 110.114 66.63 110.074 66.97L109.774 72.31C109.734 72.77 109.484 73 109.024 73H98.4936ZM124.567 73.27C122.827 73.27 121.717 72.13 121.237 69.85L120.547 66.52C120.327 65.44 120.077 64.62 119.797 64.06C119.537 63.5 119.167 63.12 118.687 62.92C118.227 62.72 117.587 62.62 116.767 62.62C116.487 62.62 116.267 62.7 116.107 62.86C115.947 63 115.867 63.18 115.867 63.4V70.9C115.867 71.32 115.947 71.61 116.107 71.77C116.267 71.91 116.627 72.03 117.187 72.13L118.297 72.31C118.517 72.35 118.627 72.46 118.627 72.64C118.627 72.88 118.477 73 118.177 73H112.087C111.787 73 111.637 72.89 111.637 72.67C111.637 72.49 111.767 72.37 112.027 72.31L112.717 72.19C113.137 72.11 113.407 72 113.527 71.86C113.667 71.72 113.737 71.44 113.737 71.02V53.38C113.737 52.96 113.667 52.68 113.527 52.54C113.407 52.4 113.137 52.29 112.717 52.21L112.027 52.09C111.767 52.03 111.637 51.91 111.637 51.73C111.637 51.51 111.787 51.4 112.087 51.4H118.177C119.357 51.4 120.407 51.63 121.327 52.09C122.247 52.55 122.967 53.19 123.487 54.01C124.007 54.81 124.267 55.74 124.267 56.8C124.267 58.06 123.887 59.2 123.127 60.22C122.367 61.22 121.407 61.93 120.247 62.35C120.107 62.39 120.027 62.46 120.007 62.56C120.007 62.64 120.077 62.71 120.217 62.77C120.857 63.07 121.357 63.49 121.717 64.03C122.097 64.57 122.387 65.29 122.587 66.19L123.247 69.25C123.467 70.29 123.727 71.03 124.027 71.47C124.327 71.91 124.707 72.13 125.167 72.13C125.327 72.13 125.467 72.11 125.587 72.07C125.727 72.01 125.897 71.91 126.097 71.77C126.257 71.67 126.407 71.65 126.547 71.71C126.687 71.75 126.757 71.85 126.757 72.01C126.757 72.35 126.537 72.65 126.097 72.91C125.657 73.15 125.147 73.27 124.567 73.27ZM117.877 61.87C119.237 61.87 120.267 61.42 120.967 60.52C121.667 59.6 122.017 58.38 122.017 56.86C122.017 55.38 121.607 54.23 120.787 53.41C119.987 52.57 118.877 52.15 117.457 52.15C116.397 52.15 115.867 52.55 115.867 53.35V60.22C115.867 61.32 116.537 61.87 117.877 61.87ZM139.318 73.27C138.998 73.27 138.728 73.03 138.508 72.55L130.378 54.91C130.318 54.77 130.238 54.71 130.138 54.73C130.058 54.75 130.018 54.84 130.018 55V70.42C130.018 70.98 130.108 71.41 130.288 71.71C130.488 71.99 130.838 72.17 131.338 72.25L131.728 72.31C131.988 72.33 132.118 72.45 132.118 72.67C132.118 72.89 131.968 73 131.668 73H127.378C127.078 73 126.928 72.89 126.928 72.67C126.928 72.45 127.058 72.33 127.318 72.31L127.708 72.25C128.228 72.17 128.588 71.99 128.788 71.71C128.988 71.41 129.088 70.98 129.088 70.42V53.38C129.088 52.96 129.018 52.68 128.878 52.54C128.758 52.4 128.468 52.29 128.008 52.21L127.318 52.09C127.058 52.03 126.928 51.91 126.928 51.73C126.928 51.51 127.078 51.4 127.378 51.4H130.588C131.088 51.4 131.438 51.62 131.638 52.06L138.718 67.63C138.778 67.75 138.848 67.8 138.928 67.78C139.028 67.76 139.078 67.69 139.078 67.57V53.98C139.078 53.34 138.968 52.9 138.748 52.66C138.528 52.4 138.248 52.24 137.908 52.18L137.368 52.09C137.108 52.03 136.978 51.91 136.978 51.73C136.978 51.51 137.128 51.4 137.428 51.4H141.718C142.018 51.4 142.168 51.51 142.168 51.73C142.168 51.95 142.038 52.07 141.778 52.09L141.388 52.15C140.868 52.23 140.508 52.4 140.308 52.66C140.108 52.9 140.008 53.34 140.008 53.98V72.31C140.008 72.67 139.938 72.92 139.798 73.06C139.678 73.2 139.518 73.27 139.318 73.27Z" fill="#00081C"/>
</svg>
