<svg width="188" height="122" viewBox="0 0 188 122" fill="none" xmlns="http://www.w3.org/2000/svg">
<rect width="188" height="122" rx="12" fill="white"/>
<path d="M54.5336 66.58C53.7336 67.18 52.8936 67.62 52.0136 67.9C51.1536 68.16 50.2936 68.23 49.4336 68.11C48.5736 67.99 47.8336 67.62 47.2136 67C46.6536 68.78 46.2736 70.54 46.0736 72.28C45.9936 72.6 45.8536 72.89 45.6536 73.15C45.2936 74.21 44.5036 74.92 43.2836 75.28C42.0836 75.62 40.9636 75.56 39.9236 75.1C39.4436 74.88 39.0436 74.56 38.7236 74.14C38.4036 73.72 38.2436 73.21 38.2436 72.61C39.6236 67.83 40.9536 63.91 42.2336 60.85C42.5136 60.21 42.7336 59.69 42.8936 59.29C43.0736 58.89 43.2336 58.55 43.3736 58.27C43.5136 57.99 43.6336 57.75 43.7336 57.55C43.8536 57.33 43.9936 57.09 44.1536 56.83C44.5136 56.23 44.9236 55.53 45.3836 54.73C45.8636 53.91 46.2636 53.3 46.5836 52.9C46.9236 52.5 47.2736 52.16 47.6336 51.88C48.0136 51.58 48.4236 51.3 48.8636 51.04C49.3236 50.78 49.8936 50.44 50.5736 50.02C51.2536 49.6 51.9736 49.35 52.7336 49.27C53.5136 49.17 54.2536 49.23 54.9536 49.45C56.4336 49.91 57.5236 50.94 58.2236 52.54C58.8236 54.02 58.9236 56.01 58.5236 58.51C57.9036 62.33 56.5736 65.02 54.5336 66.58ZM48.2636 63.91C49.9036 63.55 51.0436 62.48 51.6836 60.7C52.2236 59.2 52.3336 57.5 52.0136 55.6C51.5536 56.38 51.1336 57.19 50.7536 58.03C50.3936 58.87 50.0636 59.62 49.7636 60.28C49.1036 61.76 48.6036 62.97 48.2636 63.91ZM73.9269 52.66C74.6069 53.02 75.0369 53.55 75.2169 54.25C74.8169 56.49 74.4569 58.72 74.1369 60.94C73.8169 63.14 73.5069 64.99 73.2069 66.49C72.9069 67.97 72.6969 69.08 72.5769 69.82C72.4769 70.56 72.3569 71.3 72.2169 72.04L72.0369 72.67C71.9969 72.89 71.9569 73.09 71.9169 73.27C71.8769 73.47 71.8369 73.68 71.7969 73.9C71.2369 74.54 70.4769 74.86 69.5169 74.86C68.4969 74.86 67.6869 74.6 67.0869 74.08C66.7269 73.8 66.6669 73.21 66.9069 72.31C67.0069 71.95 67.0669 71.49 67.0869 70.93C67.1269 70.35 67.1669 69.87 67.2069 69.49V69.43C66.6069 69.65 66.0669 69.94 65.5869 70.3C65.1069 70.64 64.8069 70.86 64.6869 70.96C64.5669 71.04 64.4069 71.11 64.2069 71.17C64.0069 71.21 63.8269 71.24 63.6669 71.26C63.2869 71.28 63.0269 71.34 62.8869 71.44C61.7269 73.52 60.6869 74.68 59.7669 74.92C59.1869 75.1 58.6069 75.14 58.0269 75.04C57.4469 74.96 56.9869 74.62 56.6469 74.02C56.0069 73.42 56.1669 71.78 57.1269 69.1C57.6469 67.68 58.3869 65.98 59.3469 64C60.3269 62 61.2669 60.26 62.1669 58.78C64.1069 55.6 66.2369 52.92 68.5569 50.74C68.9369 50.58 69.3469 50.4 69.7869 50.2C70.2269 49.98 70.6569 49.86 71.0769 49.84C71.5169 49.82 71.9669 49.87 72.4269 49.99C72.8869 50.11 73.2769 50.29 73.5969 50.53C74.3369 51.09 74.4469 51.8 73.9269 52.66ZM67.5069 60.55C67.0869 61.75 66.6669 62.86 66.2469 63.88C65.8269 64.88 65.4669 65.76 65.1669 66.52L67.5369 66.43C67.6969 65.15 67.8769 63.88 68.0769 62.62C68.2769 61.36 68.4669 60.1 68.6469 58.84L67.5069 60.55ZM66.6969 66.55C66.9769 66.55 67.2569 66.53 67.5369 66.49V66.46C67.2769 66.48 67.0369 66.5 66.8169 66.52C66.5969 66.54 66.5569 66.55 66.6969 66.55ZM84.6805 74.44C84.2605 74.56 83.8605 74.62 83.4805 74.62C83.1005 74.64 82.7105 74.66 82.3105 74.68C81.9305 74.7 81.4005 74.71 80.7205 74.71C80.0405 74.71 79.0205 74.69 77.6605 74.65C77.3405 74.67 77.0205 74.68 76.7005 74.68C76.3805 74.68 76.0805 74.62 75.8005 74.5C75.1805 74.24 74.7605 73.64 74.5405 72.7C74.4405 72.26 74.3305 71.95 74.2105 71.77C74.0705 71.59 73.9605 71.42 73.8805 71.26C73.6805 70.94 73.7005 70.41 73.9405 69.67C74.1605 68.93 74.4505 68.02 74.8105 66.94C75.1705 65.84 75.5805 64.68 76.0405 63.46C77.1205 60.56 78.0905 58.26 78.9505 56.56C79.2905 55.8 79.5805 55.14 79.8205 54.58C80.0805 54.02 80.3105 53.54 80.5105 53.14C80.7105 52.72 80.8105 52.5 80.8105 52.48C81.0105 51.72 81.7805 51.08 83.1205 50.56C84.4205 50.02 85.6005 49.88 86.6605 50.14C87.8405 50.44 88.3605 51.22 88.2205 52.48C87.9405 53.72 87.5205 54.96 86.9605 56.2C86.4205 57.44 85.8005 58.74 85.1005 60.1C84.4005 61.46 83.6405 62.9 82.8205 64.42C82.0005 65.94 81.1905 67.59 80.3905 69.37C80.3705 69.45 80.4105 69.52 80.5105 69.58C80.7705 69.56 81.1305 69.48 81.5905 69.34C82.0705 69.2 82.5605 69.08 83.0605 68.98C83.5805 68.86 84.0905 68.8 84.5905 68.8C85.0905 68.8 85.5105 68.93 85.8505 69.19C85.8305 69.55 85.9205 69.84 86.1205 70.06C86.3205 70.26 86.5205 70.46 86.7205 70.66C87.2205 71.18 87.2605 71.87 86.8405 72.73C86.4405 73.57 85.7205 74.14 84.6805 74.44ZM95.0544 69.22C96.2144 69.34 97.0744 69.4 97.6344 69.4C98.2144 69.4 99.0844 69.32 100.244 69.16C100.604 69.28 100.814 69.43 100.874 69.61C100.934 69.79 100.954 69.98 100.934 70.18C100.914 70.36 100.924 70.54 100.964 70.72C101.004 70.9 101.194 71.05 101.534 71.17C101.714 71.23 101.764 71.41 101.684 71.71C101.624 71.99 101.464 72.3 101.204 72.64C100.544 73.5 99.7644 74.1 98.8644 74.44C97.4244 74.8 96.2944 75.01 95.4744 75.07C94.1144 75.17 92.6344 75.12 91.0344 74.92C89.2744 74.6 88.4244 73.87 88.4844 72.73C88.4844 68.53 89.4044 64.31 91.2444 60.07C91.8444 58.69 92.5244 57.24 93.2844 55.72C93.4444 55.4 93.5344 55.04 93.5544 54.64C93.5944 54.24 93.6244 53.85 93.6444 53.47C93.6644 53.09 93.7244 52.75 93.8244 52.45C93.9244 52.15 94.1344 51.94 94.4544 51.82C98.6144 50.16 101.904 49.52 104.324 49.9C105.164 49.92 105.714 50.21 105.974 50.77C106.254 51.31 106.284 51.92 106.064 52.6C105.864 53.28 105.454 53.92 104.834 54.52C104.234 55.12 103.474 55.49 102.554 55.63C101.374 55.97 100.654 56.2 100.394 56.32C99.8944 56.56 99.5344 56.88 99.3144 57.28C99.0344 57.72 98.7744 58.14 98.5344 58.54C98.2944 58.94 98.1244 59.37 98.0244 59.83L97.9044 60.49C98.2844 60.67 98.7444 60.73 99.2844 60.67C99.8444 60.59 100.354 60.52 100.814 60.46C101.294 60.38 101.674 60.37 101.954 60.43C102.254 60.49 102.314 60.79 102.134 61.33C101.974 61.85 101.664 62.44 101.204 63.1C100.764 63.76 100.134 64.24 99.3144 64.54C98.7944 64.64 98.4344 64.72 98.2344 64.78C98.0544 64.82 97.9144 64.85 97.8144 64.87C97.6744 64.89 97.2744 64.92 96.6144 64.96C95.6744 66.56 95.1044 67.8 94.9044 68.68C94.8244 69.04 94.8744 69.22 95.0544 69.22ZM114.447 65.32C113.907 66.88 113.357 68.38 112.797 69.82C112.237 71.26 111.767 72.35 111.387 73.09C111.027 73.85 110.707 74.37 110.427 74.65C110.147 74.93 109.857 75.12 109.557 75.22C109.277 75.32 108.987 75.36 108.687 75.34C108.407 75.32 108.117 75.3 107.817 75.28C106.137 75.02 105.617 73.81 106.257 71.65C106.677 69.93 107.017 68.53 107.277 67.45C107.537 66.35 107.747 65.45 107.907 64.75C108.087 64.03 108.237 63.44 108.357 62.98C108.477 62.5 108.607 62.03 108.747 61.57C108.887 61.11 109.057 60.59 109.257 60.01C109.477 59.43 109.757 58.66 110.097 57.7C109.337 57.8 108.657 57.72 108.057 57.46C107.177 57.08 106.817 56.26 106.977 55C107.057 54.42 107.367 53.88 107.907 53.38C108.187 53.12 108.517 52.84 108.897 52.54C109.677 51.92 111.227 51.26 113.547 50.56C115.947 49.84 118.007 49.5 119.727 49.54C120.187 49.46 120.657 49.52 121.137 49.72C121.637 49.9 122.037 50.15 122.337 50.47C122.637 50.79 122.787 51.14 122.787 51.52C122.807 51.9 122.567 52.24 122.067 52.54C121.827 52.7 121.657 52.97 121.557 53.35C121.457 53.71 121.347 54.1 121.227 54.52C121.107 54.92 120.927 55.29 120.687 55.63C120.467 55.97 120.107 56.17 119.607 56.23C119.347 56.37 118.977 56.47 118.497 56.53C118.037 56.59 117.727 56.64 117.567 56.68C117.427 56.7 117.347 56.75 117.327 56.83C116.967 57.89 116.537 59.18 116.037 60.7C115.537 62.2 115.007 63.74 114.447 65.32ZM110.397 57.37C110.357 57.37 110.337 57.38 110.337 57.4C110.337 57.4 110.357 57.4 110.397 57.4V57.37ZM129.505 65.32C128.965 66.88 128.415 68.38 127.855 69.82C127.295 71.26 126.825 72.35 126.445 73.09C126.085 73.85 125.765 74.37 125.485 74.65C125.205 74.93 124.915 75.12 124.615 75.22C124.335 75.32 124.045 75.36 123.745 75.34C123.465 75.32 123.175 75.3 122.875 75.28C121.195 75.02 120.675 73.81 121.315 71.65C121.735 69.93 122.075 68.53 122.335 67.45C122.595 66.35 122.805 65.45 122.965 64.75C123.145 64.03 123.295 63.44 123.415 62.98C123.535 62.5 123.665 62.03 123.805 61.57C123.945 61.11 124.115 60.59 124.315 60.01C124.535 59.43 124.815 58.66 125.155 57.7C124.395 57.8 123.715 57.72 123.115 57.46C122.235 57.08 121.875 56.26 122.035 55C122.115 54.42 122.425 53.88 122.965 53.38C123.245 53.12 123.575 52.84 123.955 52.54C124.735 51.92 126.285 51.26 128.605 50.56C131.005 49.84 133.065 49.5 134.785 49.54C135.245 49.46 135.715 49.52 136.195 49.72C136.695 49.9 137.095 50.15 137.395 50.47C137.695 50.79 137.845 51.14 137.845 51.52C137.865 51.9 137.625 52.24 137.125 52.54C136.885 52.7 136.715 52.97 136.615 53.35C136.515 53.71 136.405 54.1 136.285 54.52C136.165 54.92 135.985 55.29 135.745 55.63C135.525 55.97 135.165 56.17 134.665 56.23C134.405 56.37 134.035 56.47 133.555 56.53C133.095 56.59 132.785 56.64 132.625 56.68C132.485 56.7 132.405 56.75 132.385 56.83C132.025 57.89 131.595 59.18 131.095 60.7C130.595 62.2 130.065 63.74 129.505 65.32ZM125.455 57.37C125.415 57.37 125.395 57.38 125.395 57.4C125.395 57.4 125.415 57.4 125.455 57.4V57.37ZM140.904 69.22C142.064 69.34 142.924 69.4 143.484 69.4C144.064 69.4 144.934 69.32 146.094 69.16C146.454 69.28 146.664 69.43 146.724 69.61C146.784 69.79 146.804 69.98 146.784 70.18C146.764 70.36 146.774 70.54 146.814 70.72C146.854 70.9 147.044 71.05 147.384 71.17C147.564 71.23 147.614 71.41 147.534 71.71C147.474 71.99 147.314 72.3 147.054 72.64C146.394 73.5 145.614 74.1 144.714 74.44C143.274 74.8 142.144 75.01 141.324 75.07C139.964 75.17 138.484 75.12 136.884 74.92C135.124 74.6 134.274 73.87 134.334 72.73C134.334 68.53 135.254 64.31 137.094 60.07C137.694 58.69 138.374 57.24 139.134 55.72C139.294 55.4 139.384 55.04 139.404 54.64C139.444 54.24 139.474 53.85 139.494 53.47C139.514 53.09 139.574 52.75 139.674 52.45C139.774 52.15 139.984 51.94 140.304 51.82C144.464 50.16 147.754 49.52 150.174 49.9C151.014 49.92 151.564 50.21 151.824 50.77C152.104 51.31 152.134 51.92 151.914 52.6C151.714 53.28 151.304 53.92 150.684 54.52C150.084 55.12 149.324 55.49 148.404 55.63C147.224 55.97 146.504 56.2 146.244 56.32C145.744 56.56 145.384 56.88 145.164 57.28C144.884 57.72 144.624 58.14 144.384 58.54C144.144 58.94 143.974 59.37 143.874 59.83L143.754 60.49C144.134 60.67 144.594 60.73 145.134 60.67C145.694 60.59 146.204 60.52 146.664 60.46C147.144 60.38 147.524 60.37 147.804 60.43C148.104 60.49 148.164 60.79 147.984 61.33C147.824 61.85 147.514 62.44 147.054 63.1C146.614 63.76 145.984 64.24 145.164 64.54C144.644 64.64 144.284 64.72 144.084 64.78C143.904 64.82 143.764 64.85 143.664 64.87C143.524 64.89 143.124 64.92 142.464 64.96C141.524 66.56 140.954 67.8 140.754 68.68C140.674 69.04 140.724 69.22 140.904 69.22Z" fill="#00081C"/>
</svg>
