<svg width="188" height="122" viewBox="0 0 188 122" fill="none" xmlns="http://www.w3.org/2000/svg">
<rect width="188" height="122" rx="12" fill="white"/>
<path d="M35.9885 73.3C35.6485 73.3 35.3785 73.2 35.1785 73C34.9785 72.78 34.8785 72.48 34.8785 72.1V55.6C34.8785 54.48 35.2085 53.6 35.8685 52.96C36.5485 52.32 37.4885 52 38.6885 52H47.9885C48.7685 52 49.1585 52.32 49.1585 52.96C49.1585 53.24 49.0585 53.46 48.8585 53.62C48.6585 53.78 48.3685 53.86 47.9885 53.86H38.7185C38.2385 53.86 37.8485 54.02 37.5485 54.34C37.2685 54.66 37.1285 55.08 37.1285 55.6V61.63H45.7085C46.4885 61.63 46.8785 61.95 46.8785 62.59C46.8785 62.89 46.7685 63.12 46.5485 63.28C46.3485 63.44 46.0685 63.52 45.7085 63.52H37.1285V72.1C37.1285 72.48 37.0285 72.78 36.8285 73C36.6285 73.2 36.3485 73.3 35.9885 73.3ZM61.7384 73.3C59.9584 73.3 58.4084 72.95 57.0884 72.25C55.7884 71.55 54.7884 70.54 54.0884 69.22C53.3884 67.9 53.0384 66.33 53.0384 64.51V52.9C53.0384 52.52 53.1384 52.23 53.3384 52.03C53.5384 51.81 53.8084 51.7 54.1484 51.7C54.5084 51.7 54.7884 51.81 54.9884 52.03C55.1884 52.23 55.2884 52.52 55.2884 52.9V64.6C55.2884 66.76 55.8584 68.43 56.9984 69.61C58.1384 70.79 59.7384 71.38 61.7984 71.38C63.8784 71.38 65.4984 70.79 66.6584 69.61C67.8384 68.41 68.4284 66.74 68.4284 64.6V52.9C68.4284 52.52 68.5284 52.23 68.7284 52.03C68.9484 51.81 69.2284 51.7 69.5684 51.7C69.9284 51.7 70.1984 51.81 70.3784 52.03C70.5784 52.23 70.6784 52.52 70.6784 52.9V64.51C70.6784 66.27 70.3184 67.82 69.5984 69.16C68.8784 70.48 67.8384 71.5 66.4784 72.22C65.1384 72.94 63.5584 73.3 61.7384 73.3ZM83.4075 73.3C83.0475 73.3 82.7675 73.2 82.5675 73C82.3875 72.78 82.2975 72.48 82.2975 72.1V53.86H75.4275C75.0675 53.86 74.7775 53.79 74.5575 53.65C74.3575 53.49 74.2575 53.26 74.2575 52.96C74.2575 52.32 74.6475 52 75.4275 52H91.4475C92.2275 52 92.6175 52.32 92.6175 52.96C92.6175 53.24 92.5175 53.46 92.3175 53.62C92.1175 53.78 91.8275 53.86 91.4475 53.86H84.5775V72.1C84.5775 72.48 84.4675 72.78 84.2475 73C84.0475 73.2 83.7675 73.3 83.4075 73.3ZM104.834 73.3C103.054 73.3 101.504 72.95 100.184 72.25C98.8841 71.55 97.8841 70.54 97.1841 69.22C96.4841 67.9 96.1341 66.33 96.1341 64.51V52.9C96.1341 52.52 96.2341 52.23 96.4341 52.03C96.6341 51.81 96.9041 51.7 97.2441 51.7C97.6041 51.7 97.8841 51.81 98.0841 52.03C98.2841 52.23 98.3841 52.52 98.3841 52.9V64.6C98.3841 66.76 98.9541 68.43 100.094 69.61C101.234 70.79 102.834 71.38 104.894 71.38C106.974 71.38 108.594 70.79 109.754 69.61C110.934 68.41 111.524 66.74 111.524 64.6V52.9C111.524 52.52 111.624 52.23 111.824 52.03C112.044 51.81 112.324 51.7 112.664 51.7C113.024 51.7 113.294 51.81 113.474 52.03C113.674 52.23 113.774 52.52 113.774 52.9V64.51C113.774 66.27 113.414 67.82 112.694 69.16C111.974 70.48 110.934 71.5 109.574 72.22C108.234 72.94 106.654 73.3 104.834 73.3ZM118.313 55.75C118.313 54.61 118.643 53.7 119.303 53.02C119.983 52.34 120.963 52 122.243 52H127.853C133.293 52 136.013 54.26 136.013 58.78C136.013 60.96 135.353 62.61 134.033 63.73C132.713 64.85 130.723 65.41 128.063 65.41L133.883 71.44C134.063 71.62 134.153 71.85 134.153 72.13C134.153 72.49 134.003 72.78 133.703 73C133.463 73.18 133.213 73.27 132.953 73.27C132.553 73.27 132.173 73.07 131.813 72.67L124.913 65.41H120.863V72.01C120.863 72.41 120.743 72.73 120.503 72.97C120.283 73.19 119.973 73.3 119.573 73.3C119.173 73.3 118.863 73.19 118.643 72.97C118.423 72.73 118.313 72.41 118.313 72.01V55.75ZM128.003 63.34C129.843 63.34 131.203 63 132.083 62.32C132.983 61.62 133.433 60.44 133.433 58.78C133.433 57.1 132.983 55.9 132.083 55.18C131.183 54.44 129.823 54.07 128.003 54.07H122.393C121.933 54.07 121.563 54.22 121.283 54.52C121.003 54.82 120.863 55.23 120.863 55.75V63.34H128.003ZM143.807 73C142.587 73 141.637 72.68 140.957 72.04C140.277 71.4 139.937 70.5 139.937 69.34V55.6C139.937 54.48 140.267 53.6 140.927 52.96C141.607 52.32 142.547 52 143.747 52H153.047C153.827 52 154.217 52.32 154.217 52.96C154.217 53.24 154.117 53.46 153.917 53.62C153.717 53.78 153.427 53.86 153.047 53.86H143.777C143.297 53.86 142.907 54.02 142.607 54.34C142.327 54.66 142.187 55.08 142.187 55.6V61.33H150.767C151.547 61.33 151.937 61.65 151.937 62.29C151.937 62.59 151.827 62.82 151.607 62.98C151.407 63.14 151.127 63.22 150.767 63.22H142.187V69.4C142.187 69.92 142.327 70.34 142.607 70.66C142.907 70.98 143.297 71.14 143.777 71.14H153.707C154.487 71.14 154.877 71.45 154.877 72.07C154.877 72.37 154.767 72.6 154.547 72.76C154.347 72.92 154.067 73 153.707 73H143.807Z" fill="#00081C"/>
</svg>
