<svg width="188" height="122" viewBox="0 0 188 122" fill="none" xmlns="http://www.w3.org/2000/svg">
<rect width="188" height="122" rx="12" fill="white"/>
<path d="M60.3232 71H50.626C50.5479 71 50.5088 70.9512 50.5088 70.8535L50.5381 50.2432C50.5381 50.165 50.5771 50.126 50.6553 50.126H60.2939C60.3721 50.126 60.4111 50.1748 60.4111 50.2725V53.627C60.4111 53.7051 60.3721 53.7441 60.2939 53.7441H54.1416V58.4316H60.2939C60.3721 58.4316 60.4111 58.4707 60.4111 58.5488L60.4404 61.9473C60.4404 62.0254 60.4014 62.0645 60.3232 62.0645H54.1416V67.3086H60.3232C60.4014 67.3086 60.4404 67.3574 60.4404 67.4551V70.8828C60.4404 70.9609 60.4014 71 60.3232 71ZM72.9209 71H63.2236C63.1455 71 63.1064 70.9512 63.1064 70.8535L63.1357 50.2725C63.1357 50.1748 63.1846 50.126 63.2822 50.126H66.6221C66.7197 50.126 66.7686 50.1748 66.7686 50.2725L66.7393 67.3086H72.9209C73.0186 67.3086 73.0674 67.3574 73.0674 67.4551V70.8535C73.0674 70.9512 73.0186 71 72.9209 71ZM84.8447 71H75.1475C75.0693 71 75.0303 70.9512 75.0303 70.8535L75.0596 50.2432C75.0596 50.165 75.0986 50.126 75.1768 50.126H84.8154C84.8936 50.126 84.9326 50.1748 84.9326 50.2725V53.627C84.9326 53.7051 84.8936 53.7441 84.8154 53.7441H78.6631V58.4316H84.8154C84.8936 58.4316 84.9326 58.4707 84.9326 58.5488L84.9619 61.9473C84.9619 62.0254 84.9229 62.0645 84.8447 62.0645H78.6631V67.3086H84.8447C84.9229 67.3086 84.9619 67.3574 84.9619 67.4551V70.8828C84.9619 70.9609 84.9229 71 84.8447 71ZM93.1211 71.293C92.0371 71.293 91.0605 71.0244 90.1914 70.4873C89.3125 69.9502 88.6045 69.2275 88.0674 68.3193C87.54 67.4111 87.2764 66.3955 87.2764 65.2725V55.7656C87.2764 54.6719 87.5449 53.6758 88.082 52.7773C88.6094 51.8691 89.3174 51.1465 90.2061 50.6094C91.0947 50.0625 92.0664 49.7891 93.1211 49.7891C94.2246 49.7891 95.2207 50.0527 96.1094 50.5801C96.998 51.1172 97.7012 51.835 98.2188 52.7334C98.7461 53.6318 99.0098 54.6426 99.0098 55.7656V57.1426C99.0098 57.2207 98.9609 57.2598 98.8633 57.2598H95.4941C95.416 57.2598 95.377 57.2207 95.377 57.1426V56C95.377 55.2383 95.1621 54.6084 94.7324 54.1104C94.3027 53.6123 93.7656 53.3633 93.1211 53.3633C92.5449 53.3633 92.0322 53.6025 91.583 54.0811C91.1338 54.5596 90.9092 55.1211 90.9092 55.7656V65.2725C90.9092 65.9268 91.1289 66.4932 91.5684 66.9717C92.0078 67.4404 92.5254 67.6748 93.1211 67.6748C93.7656 67.6748 94.3027 67.4453 94.7324 66.9863C95.1621 66.5176 95.377 65.9463 95.377 65.2725V63.793H93.2822C93.1748 63.793 93.1211 63.7441 93.1211 63.6465V60.292C93.1211 60.1943 93.1748 60.1455 93.2822 60.1455H98.8926C98.9707 60.1455 99.0098 60.1943 99.0098 60.292V65.2725C99.0098 66.3955 98.7461 67.4111 98.2188 68.3193C97.6816 69.2275 96.9736 69.9502 96.0947 70.4873C95.2158 71.0244 94.2246 71.293 93.1211 71.293ZM100.123 70.8535L103.844 50.2432C103.863 50.165 103.912 50.126 103.99 50.126H108.341C108.419 50.126 108.468 50.165 108.487 50.2432L112.062 70.8535C112.071 70.9512 112.032 71 111.944 71H108.619C108.521 71 108.468 70.9512 108.458 70.8535L108.136 68.6562H104.049L103.727 70.8535C103.717 70.9512 103.668 71 103.58 71H100.24C100.162 71 100.123 70.9512 100.123 70.8535ZM105.997 57.0254L104.649 65.4482H107.535L106.305 57.0254L106.129 55.9121L105.997 57.0254ZM117.203 71H114.2C114.044 71 113.966 70.9316 113.966 70.7949L113.937 50.3604C113.937 50.2041 114.015 50.126 114.171 50.126H116.881L121.949 61.9473L121.803 50.3604C121.803 50.2041 121.891 50.126 122.066 50.126H125.04C125.157 50.126 125.216 50.2041 125.216 50.3604L125.245 70.8242C125.245 70.9414 125.196 71 125.099 71H122.462L117.262 59.9551L117.481 70.7656C117.481 70.9219 117.389 71 117.203 71ZM134.254 71H130.87C130.782 71 130.738 70.9512 130.738 70.8535V53.7441H126.842C126.744 53.7441 126.695 53.6953 126.695 53.5977L126.725 50.2432C126.725 50.165 126.764 50.126 126.842 50.126H138.238C138.346 50.126 138.399 50.165 138.399 50.2432V53.5977C138.399 53.6953 138.36 53.7441 138.282 53.7441H134.342L134.371 70.8535C134.371 70.9512 134.332 71 134.254 71Z" fill="#00081C"/>
</svg>
