<svg width="188" height="122" viewBox="0 0 188 122" fill="none" xmlns="http://www.w3.org/2000/svg">
<rect width="188" height="122" rx="12" fill="white"/>
<path d="M53.9678 51.3047L52.0049 58.9805H52.7227C53.0645 58.9707 53.3232 58.9658 53.499 58.9658C53.7236 58.9658 53.8896 59.2051 53.9971 59.6836C54.0166 59.8008 54.0264 59.8984 54.0264 59.9766C54.0166 60.1914 53.7676 60.3037 53.2793 60.3135C52.791 60.3135 52.2393 60.333 51.624 60.3721L51.0088 62.6279C50.1299 65.6846 49.6904 68.2139 49.6904 70.2158C49.7002 72.2275 50.1299 73.6094 50.9795 74.3613C51.1455 74.4785 51.2334 74.5762 51.2432 74.6543C51.2236 74.752 51.1406 74.8008 50.9941 74.8008C50.8477 74.8105 50.6963 74.7666 50.54 74.6689C49.7002 74.21 49.0752 73.2285 48.665 71.7246C48.46 70.9629 48.3574 70.2354 48.3574 69.542C48.3574 67.7451 48.7822 65.1963 49.6318 61.8955L49.9834 60.5039L47.5811 60.7676C46.4189 65.416 45.7061 68.0674 45.4424 68.7217C45.1787 69.376 44.9297 69.918 44.6953 70.3477C44.4609 70.7773 44.0752 71.2266 43.5381 71.6953C43.0107 72.1641 42.6299 72.3936 42.3955 72.3838C42.1611 72.374 42.0391 72.3252 42.0293 72.2373C42.0293 72.1494 42.0879 72.0176 42.2051 71.8418C43.5137 69.8496 44.5732 66.9883 45.3838 63.2578L45.9697 60.8701H45.9258C43.9141 60.8701 42.7422 60.8408 42.4102 60.7822C42.0879 60.7236 41.8682 60.6016 41.751 60.416C41.6338 60.2207 41.5703 60.0596 41.5605 59.9326C41.5605 59.7861 41.6533 59.6982 41.8389 59.6689C41.8682 59.6689 41.8877 59.6641 41.8975 59.6543L46.3652 59.2588L47.8447 53.2529C47.8838 53.1064 47.9326 52.8672 47.9912 52.5352C48.0596 52.2031 48.167 51.9785 48.3135 51.8613C48.46 51.7441 48.7725 51.6855 49.251 51.6855C49.5342 51.7051 49.6807 51.8369 49.6904 52.0811C49.6904 52.1885 49.6855 52.2715 49.6758 52.3301L47.9766 59.1416C49.0703 59.083 49.8711 59.0439 50.3789 59.0244L52.1367 52.2129C52.1758 52.0664 52.2197 51.8271 52.2686 51.4951C52.3271 51.1533 52.4297 50.9287 52.5762 50.8213C52.7324 50.7041 53.0547 50.6455 53.543 50.6455C53.8262 50.665 53.9727 50.8066 53.9824 51.0703C53.9824 51.168 53.9775 51.2461 53.9678 51.3047ZM59.7832 71.3877C59.7832 72.0029 59.5684 72.3105 59.1387 72.3105C58.9043 72.3105 58.6943 72.2324 58.5088 72.0762C58.0693 71.6953 57.8496 71.0996 57.8496 70.2891C57.8496 69.4883 57.9033 68.668 58.0107 67.8281C58.1279 66.9883 58.4697 65.4648 59.0361 63.2578C58.1377 63.3652 57.4541 63.4287 56.9854 63.4482C55.4326 66.0557 53.8311 68.3213 52.1807 70.2451C52.0537 70.3623 51.873 70.416 51.6387 70.4062C51.3945 70.4062 51.2627 70.3281 51.2432 70.1719C51.2432 70.0059 51.3848 69.7129 51.668 69.293C51.9512 68.873 52.1172 68.6338 52.166 68.5752L55.4326 63.4482C53.9385 63.4385 53.0205 63.3604 52.6787 63.2139C52.3369 63.0674 52.166 62.833 52.166 62.5107C52.166 62.3643 52.2734 62.2715 52.4883 62.2324C54.0898 62.0762 55.3984 61.959 56.4141 61.8809L59.6807 56.4609L60.6182 52.4326C60.6963 52.0811 60.8867 51.9053 61.1895 51.9053C61.4922 51.8955 61.7559 51.915 61.9805 51.9639C62.6641 52.1201 63.0059 52.4326 63.0059 52.9014C63.0059 52.9697 62.8447 53.7217 62.5225 55.1572C62.2002 56.5928 61.6484 58.7412 60.8672 61.6025C61.6777 61.5635 62.752 61.5439 64.0898 61.5439C64.1875 61.5537 64.2998 61.6514 64.4268 61.8369C64.5537 62.0127 64.6221 62.252 64.6318 62.5547C64.6221 62.7598 64.2168 62.877 63.416 62.9062C62.6152 62.9258 61.6338 62.9893 60.4717 63.0967C59.417 67.1689 58.8896 69.5029 58.8896 70.0986C58.9092 70.2549 59.0605 70.4697 59.3438 70.7432C59.627 70.9678 59.7734 71.1826 59.7832 71.3877ZM58.2305 61.2363L57.9375 61.7783L59.4316 61.6758C59.6172 60.8457 59.7539 60.123 59.8418 59.5078C59.8125 59.2441 59.5879 59.3711 59.168 59.8887C58.7578 60.3965 58.4453 60.8457 58.2305 61.2363ZM66.7559 70.1572L66.9023 63.2725C66.9023 62.9209 66.8926 62.5107 66.873 62.042C64.6855 68.3506 63.333 72.125 62.8154 73.3652C62.415 74.127 61.9512 74.5273 61.4238 74.5664C61.3652 74.5469 61.3359 74.5127 61.3359 74.4639C61.3359 74.415 61.4336 74.1855 61.6289 73.7754C61.9512 73.1211 62.8887 70.2109 64.4414 65.0449C66.8047 57.1445 68.0303 52.833 68.1182 52.1104C68.2158 51.6025 68.4307 51.3486 68.7627 51.3486C69.4756 51.3486 69.8564 51.5293 69.9053 51.8906C69.876 52.2031 69.6562 53.2627 69.2461 55.0693C68.8359 56.8662 68.6113 57.9111 68.5723 58.2041C68.543 58.4873 68.46 59.0684 68.3232 59.9473C68.1963 60.8164 68.1328 61.4023 68.1328 61.7051C68.1328 61.998 68.1426 62.1836 68.1621 62.2617C68.4062 61.4512 68.7969 59.9912 69.334 57.8818C69.8711 55.7725 70.2617 54.376 70.5059 53.6924C70.7598 52.999 70.9062 52.584 70.9453 52.4473C71.7363 50.0645 72.3613 48.873 72.8203 48.873C72.9473 48.873 73.123 48.9561 73.3477 49.1221C73.5723 49.2783 73.6846 49.4688 73.6846 49.6934C73.6846 49.918 73.5869 50.1963 73.3916 50.5283C72.7275 51.6611 71.917 53.5117 70.96 56.0801C69.0947 61.0996 68.1133 65.333 68.0156 68.7803V68.7949C67.9766 70.1035 67.791 70.7578 67.459 70.7578C67.3223 70.7578 67.2051 70.748 67.1074 70.7285C66.873 70.6699 66.7559 70.4795 66.7559 70.1572ZM76.541 55.0547L75.8818 54.7324C76.0576 53.6289 76.5752 52.9111 77.4346 52.5791C77.708 52.4814 77.9961 52.4326 78.2988 52.4326C79.1387 52.4326 79.876 52.75 80.5107 53.3848C81.1455 54.0098 81.4629 54.7129 81.4629 55.4941C81.4727 56.5098 81.2578 57.6816 80.8184 59.0098C79.7637 62.1641 77.8984 65.2305 75.2227 68.209L74.2119 69.2783C73.8311 69.6201 73.5723 69.8008 73.4355 69.8203C73.0156 69.8105 72.6104 69.4053 72.2197 68.6045C72.3467 68.2432 72.9814 66.2119 74.124 62.5107C75.2764 58.8096 76.082 56.3242 76.541 55.0547ZM77.8447 54.0732C77.8447 54.8838 77.6885 55.8018 77.376 56.8271C77.0732 57.8428 76.8535 58.5703 76.7168 59.0098C76.5898 59.4395 76.2139 60.5723 75.5889 62.4082C74.9736 64.2441 74.5146 65.7627 74.2119 66.9639C74.9639 66.1729 75.7012 65.2256 76.4238 64.1221C76.4629 64.0635 76.4971 64.0146 76.5264 63.9756C78.7529 60.5283 79.8662 57.291 79.8662 54.2637C79.8662 53.9219 79.7734 53.7217 79.5879 53.6631C79.5293 53.6533 79.4707 53.6484 79.4121 53.6484C78.7969 53.6582 78.2744 53.7998 77.8447 54.0732ZM93.2842 61.9395C92.1514 64.4199 91.1504 66.2656 90.2812 67.4766C89.4121 68.6875 88.5674 69.2979 87.7471 69.3076C87.2393 69.2881 86.9854 68.8242 86.9854 67.916C86.9854 67.0078 87.2393 65.4844 87.7471 63.3457C86.165 66.6953 84.7686 68.6289 83.5576 69.1465C83.3135 69.2441 83.0791 69.2979 82.8545 69.3076C82.3467 69.2881 82.0928 68.8193 82.0928 67.9014C82.0928 66.5244 82.5078 64.3467 83.3379 61.3682C84.168 58.3896 84.7734 56.4072 85.1543 55.4209C85.5449 54.4248 85.7793 53.8047 85.8574 53.5605C86.0625 53.0039 86.375 52.7305 86.7949 52.7402C87.2148 52.7402 87.4297 52.9404 87.4395 53.3408C87.4395 53.6338 87.3271 54.0732 87.1025 54.6592C85.2568 59.5811 84.124 63.6533 83.7041 66.876C83.8213 66.8662 83.958 66.7783 84.1143 66.6123C85.667 64.8057 87.3125 61.8662 89.0508 57.7939L90.1787 55.084L90.3545 54.6299C90.54 54.1611 90.6719 53.8047 90.75 53.5605C90.9551 53.0039 91.2676 52.7305 91.6875 52.7402C92.1074 52.7402 92.3223 52.9404 92.332 53.3408C92.332 53.4678 92.3223 53.6094 92.3027 53.7656C92.2734 54.0391 92.1709 54.376 91.9951 54.7764C91.8193 55.1768 91.7266 55.3965 91.7168 55.4355C90.0273 60.084 88.9873 63.8975 88.5967 66.876C88.7139 66.8662 88.8506 66.7783 89.0068 66.6123C90.5693 64.8057 92.2197 61.8613 93.958 57.7793C94.0361 57.6035 94.3779 56.7832 94.9834 55.3184C95.5889 53.8438 95.9941 53.0479 96.1992 52.9307C96.2578 52.9014 96.3945 52.8867 96.6094 52.8867C96.8242 52.877 96.9756 52.9307 97.0635 53.0479C97.1514 53.1553 97.1953 53.3311 97.1953 53.5752C97.1953 53.8193 97.1123 54.1465 96.9463 54.5566C96.79 54.957 96.6973 55.1963 96.668 55.2744C96.6387 55.3428 96.1846 56.1533 95.3057 57.7061C94.4268 59.249 93.7529 60.6602 93.2842 61.9395ZM105.076 54.1465C105.076 55.6992 104.178 56.915 102.381 57.7939C102.693 60.4502 102.977 62.6084 103.23 64.2686C103.582 66.5244 104.07 68.1357 104.695 69.1025C105.242 70.0205 105.867 70.5967 106.57 70.8311C106.785 70.8799 106.897 70.9629 106.907 71.0801C106.897 71.1973 106.678 71.2607 106.248 71.2705C105.506 71.2607 104.759 70.8115 104.007 69.9229C103.255 69.0439 102.737 68.1357 102.454 67.1982C102.425 67.1201 102.405 67.0469 102.396 66.9785C101.839 65.1914 101.346 62.3398 100.916 58.4238L100.154 58.6875C98.709 63.2676 97.7422 66.8223 97.2539 69.3516C97.1758 69.5664 97.0977 69.6836 97.0195 69.7031C96.8535 69.6934 96.6582 69.5713 96.4336 69.3369C96.2188 69.1025 96.1064 68.8389 96.0967 68.5459C96.0967 68.2432 96.4336 66.7686 97.1074 64.1221C97.7812 61.4756 98.8213 57.8135 100.228 53.1357C100.276 52.9697 100.359 52.8135 100.477 52.667C100.877 52.1689 101.536 51.9199 102.454 51.9199C102.991 51.9199 103.562 52.1152 104.168 52.5059C104.773 52.8965 105.076 53.4434 105.076 54.1465ZM101.473 53.5312C101.385 54.0098 101.194 54.7617 100.901 55.7871C100.608 56.8027 100.447 57.3545 100.418 57.4424C100.76 57.374 101.102 57.2715 101.443 57.1348C102.811 56.5684 103.489 55.6895 103.479 54.498C103.479 54.4395 103.475 54.3613 103.465 54.2637C103.357 53.5996 103.074 53.2676 102.615 53.2676C102.156 53.2676 101.775 53.3555 101.473 53.5312ZM110.774 53.2529C110.813 53.1064 110.862 52.8672 110.921 52.5352C110.989 52.2031 111.097 51.9785 111.243 51.8613C111.39 51.7441 111.653 51.6904 112.034 51.7002C112.425 51.71 112.62 51.8027 112.62 51.9785C112.63 52.1543 112.083 54.4639 110.979 58.9072C109.886 63.3506 109.148 66.1924 108.768 67.4326C108.396 68.6729 108.055 69.5762 107.742 70.1426C107.43 70.709 107.005 71.2266 106.468 71.6953C105.94 72.1641 105.56 72.3936 105.325 72.3838C105.091 72.374 104.969 72.3252 104.959 72.2373C104.959 72.1494 105.018 72.0176 105.135 71.8418C106.258 70.1328 107.254 67.5303 108.123 64.0342L110.774 53.2529ZM124.866 53.7949C123.235 53.8145 121.561 53.8828 119.842 54C117.889 61.9004 116.731 66.4121 116.37 67.5352C116.019 68.6582 115.691 69.4932 115.389 70.04C115.086 70.5967 114.661 71.1143 114.114 71.5928C113.567 72.0713 113.118 72.3154 112.767 72.3252C112.64 72.3057 112.576 72.2422 112.576 72.1348C112.576 72.0273 112.688 71.8027 112.913 71.4609C114.104 69.5957 115.135 66.7539 116.004 62.9355L118.172 54.1172C118.152 54.1172 117.503 54.1611 116.224 54.249C114.944 54.3271 114.026 54.293 113.47 54.1465C112.991 53.9219 112.713 53.6729 112.635 53.3994C112.586 53.1846 112.913 53.0332 113.616 52.9453L114.568 52.8574L115.828 52.7695C116.727 52.7305 117.625 52.6865 118.523 52.6377L118.538 52.623C118.577 52.457 118.626 52.2031 118.685 51.8613C118.753 51.5195 118.86 51.29 119.007 51.1729C119.163 51.0557 119.49 50.9971 119.988 50.9971C120.281 51.0166 120.428 51.1582 120.428 51.4219C120.428 51.5684 120.423 51.6562 120.413 51.6855L120.179 52.5938L125.232 52.5205C125.555 52.5205 125.799 52.7305 125.965 53.1504C126.014 53.2773 126.038 53.3896 126.038 53.4873C126.028 53.6924 125.638 53.7949 124.866 53.7949ZM133.304 53.7949C131.673 53.8145 129.998 53.8828 128.279 54C126.326 61.9004 125.169 66.4121 124.808 67.5352C124.456 68.6582 124.129 69.4932 123.826 70.04C123.523 70.5967 123.099 71.1143 122.552 71.5928C122.005 72.0713 121.556 72.3154 121.204 72.3252C121.077 72.3057 121.014 72.2422 121.014 72.1348C121.014 72.0273 121.126 71.8027 121.351 71.4609C122.542 69.5957 123.572 66.7539 124.441 62.9355L126.609 54.1172C126.59 54.1172 125.94 54.1611 124.661 54.249C123.382 54.3271 122.464 54.293 121.907 54.1465C121.429 53.9219 121.15 53.6729 121.072 53.3994C121.023 53.1846 121.351 53.0332 122.054 52.9453L123.006 52.8574L124.266 52.7695C125.164 52.7305 126.062 52.6865 126.961 52.6377L126.976 52.623C127.015 52.457 127.063 52.2031 127.122 51.8613C127.19 51.5195 127.298 51.29 127.444 51.1729C127.601 51.0557 127.928 50.9971 128.426 50.9971C128.719 51.0166 128.865 51.1582 128.865 51.4219C128.865 51.5684 128.86 51.6562 128.851 51.6855L128.616 52.5938L133.67 52.5205C133.992 52.5205 134.236 52.7305 134.402 53.1504C134.451 53.2773 134.476 53.3896 134.476 53.4873C134.466 53.6924 134.075 53.7949 133.304 53.7949ZM132.513 69.3516L128.353 69.4688C128.196 69.459 128.113 69.4248 128.104 69.3662C128.113 69.1611 128.196 68.9268 128.353 68.6631C128.655 67.2471 129.769 63.585 131.692 57.6768C131.321 57.6963 131.087 57.7061 130.989 57.7061C130.97 57.6865 130.96 57.6621 130.96 57.6328C130.96 57.2031 131.062 56.8809 131.268 56.666C131.473 56.4414 131.644 56.3291 131.78 56.3291C131.927 56.3193 132.049 56.3145 132.146 56.3145L133.011 53.7363C133.079 53.1309 133.27 52.7207 133.582 52.5059C133.689 52.4375 134.085 52.4033 134.769 52.4033C135.452 52.4033 136.858 52.4375 138.987 52.5059C139.231 52.5156 139.407 52.7256 139.515 53.1357C139.544 53.2334 139.559 53.3213 139.559 53.3994C139.559 53.585 139.314 53.6826 138.826 53.6924C138.602 53.6924 138.372 53.6924 138.138 53.6924C137.903 53.6826 137.547 53.6777 137.068 53.6777C136.59 53.6777 135.774 53.6973 134.622 53.7363L133.802 56.3291C134.788 56.3486 135.823 56.3779 136.907 56.417C137.151 56.4268 137.327 56.6465 137.435 57.0762C137.464 57.1836 137.479 57.2715 137.479 57.3398C137.439 57.5254 137.249 57.6182 136.907 57.6182L135.384 57.5889C134.778 57.5889 134.109 57.5986 133.377 57.6182L129.847 68.0771C130.403 68.0869 131.028 68.0967 131.722 68.1064C132.415 68.1162 133.221 68.1357 134.139 68.165C134.52 68.1748 134.71 68.4873 134.71 69.1025C134.69 69.2783 134.5 69.3613 134.139 69.3516C133.787 69.3516 133.465 69.3516 133.172 69.3516H132.513ZM146.648 54.1465C146.648 55.6992 145.75 56.915 143.953 57.7939C144.266 60.4502 144.549 62.6084 144.803 64.2686C145.154 66.5244 145.643 68.1357 146.268 69.1025C146.814 70.0205 147.439 70.5967 148.143 70.8311C148.357 70.8799 148.47 70.9629 148.479 71.0801C148.47 71.1973 148.25 71.2607 147.82 71.2705C147.078 71.2607 146.331 70.8115 145.579 69.9229C144.827 69.0439 144.31 68.1357 144.026 67.1982C143.997 67.1201 143.978 67.0469 143.968 66.9785C143.411 65.1914 142.918 62.3398 142.488 58.4238L141.727 58.6875C140.281 63.2676 139.314 66.8223 138.826 69.3516C138.748 69.5664 138.67 69.6836 138.592 69.7031C138.426 69.6934 138.23 69.5713 138.006 69.3369C137.791 69.1025 137.679 68.8389 137.669 68.5459C137.669 68.2432 138.006 66.7686 138.68 64.1221C139.354 61.4756 140.394 57.8135 141.8 53.1357C141.849 52.9697 141.932 52.8135 142.049 52.667C142.449 52.1689 143.108 51.9199 144.026 51.9199C144.563 51.9199 145.135 52.1152 145.74 52.5059C146.346 52.8965 146.648 53.4434 146.648 54.1465ZM143.045 53.5312C142.957 54.0098 142.767 54.7617 142.474 55.7871C142.181 56.8027 142.02 57.3545 141.99 57.4424C142.332 57.374 142.674 57.2715 143.016 57.1348C144.383 56.5684 145.062 55.6895 145.052 54.498C145.052 54.4395 145.047 54.3613 145.037 54.2637C144.93 53.5996 144.646 53.2676 144.188 53.2676C143.729 53.2676 143.348 53.3555 143.045 53.5312Z" fill="#00081C"/>
</svg>
