<svg width="188" height="122" viewBox="0 0 188 122" fill="none" xmlns="http://www.w3.org/2000/svg">
<rect width="188" height="122" rx="12" fill="white"/>
<path d="M50.1207 75.99C49.8007 76.19 49.5407 76.12 49.3407 75.78C49.2607 75.66 49.2207 75.55 49.2207 75.45L49.1307 75.03C49.1107 74.73 49.0707 74.43 49.0107 74.13C48.9507 73.83 48.8807 73.52 48.8007 73.2C48.8007 73.16 48.7907 73.12 48.7707 73.08C48.7707 73.06 48.7707 73.03 48.7707 72.99C48.7707 72.91 48.7607 72.85 48.7407 72.81C48.6807 72.51 48.5207 72.29 48.2607 72.15C48.0807 72.05 47.8907 71.96 47.6907 71.88C47.5107 71.78 47.3207 71.69 47.1207 71.61L46.3707 71.25C46.2107 71.17 46.0607 71.04 45.9207 70.86C45.7007 70.62 45.5007 70.37 45.3207 70.11C45.1407 69.85 44.9907 69.57 44.8707 69.27C44.8307 69.15 44.7807 69.03 44.7207 68.91C44.6807 68.79 44.6407 68.67 44.6007 68.55C44.5607 68.45 44.5307 68.35 44.5107 68.25C44.4907 68.15 44.4607 68.06 44.4207 67.98L44.2407 67.35C44.2007 67.27 44.1807 67.19 44.1807 67.11C44.1607 66.97 44.1407 66.84 44.1207 66.72C44.1207 66.58 44.1007 66.44 44.0607 66.3C44.0407 66.16 44.0207 66.02 44.0007 65.88C44.0007 65.74 44.0007 65.6 44.0007 65.46C44.0007 65.38 43.9907 65.32 43.9707 65.28C43.9507 65 43.9407 64.73 43.9407 64.47C43.9407 64.21 43.9307 63.95 43.9107 63.69C43.9107 63.53 43.9107 63.37 43.9107 63.21C43.9107 63.05 43.9207 62.9 43.9407 62.76L44.0307 61.68C44.0307 61.62 44.0307 61.57 44.0307 61.53C44.0507 61.47 44.0607 61.42 44.0607 61.38C44.0807 61.12 44.1007 60.87 44.1207 60.63C44.1607 60.39 44.2107 60.15 44.2707 59.91C44.3107 59.85 44.3307 59.79 44.3307 59.73C44.3307 59.67 44.3307 59.61 44.3307 59.55C44.3907 59.33 44.4407 59.11 44.4807 58.89C44.5407 58.65 44.5907 58.41 44.6307 58.17L44.8107 57.18C44.8507 57.02 44.8807 56.86 44.9007 56.7C44.9407 56.54 44.9807 56.38 45.0207 56.22C45.1807 55.54 45.4607 54.96 45.8607 54.48C46.1007 54.14 46.3807 53.87 46.7007 53.67C46.9407 53.51 47.1807 53.35 47.4207 53.19C47.6807 53.03 47.9407 52.89 48.2007 52.77C48.4807 52.61 48.7707 52.47 49.0707 52.35C49.3707 52.23 49.6807 52.12 50.0007 52.02C50.1407 51.98 50.2707 51.94 50.3907 51.9C50.5307 51.86 50.6707 51.83 50.8107 51.81C51.0507 51.75 51.2907 51.73 51.5307 51.75C51.7707 51.75 52.0007 51.8 52.2207 51.9C52.5007 52 52.7407 52.13 52.9407 52.29C53.0407 52.37 53.1407 52.45 53.2407 52.53C53.3607 52.59 53.4607 52.67 53.5407 52.77C53.9607 53.07 54.2307 53.48 54.3507 54C54.3707 54.08 54.3907 54.16 54.4107 54.24C54.4307 54.3 54.4407 54.38 54.4407 54.48C54.4607 54.84 54.4007 55.18 54.2607 55.5C54.2207 55.58 54.1707 55.67 54.1107 55.77C54.0707 55.85 54.0107 55.93 53.9307 56.01C53.8307 56.13 53.7307 56.26 53.6307 56.4C53.5507 56.52 53.4607 56.64 53.3607 56.76C53.1807 56.96 53.0907 57.21 53.0907 57.51V59.37C53.0907 59.45 53.0807 59.53 53.0607 59.61C53.0607 59.67 53.0607 59.74 53.0607 59.82C53.0407 59.92 53.0307 60.03 53.0307 60.15C53.0307 60.25 53.0307 60.35 53.0307 60.45C53.0307 60.55 53.0707 60.58 53.1507 60.54H53.2407C53.3007 60.52 53.3507 60.51 53.3907 60.51C53.4507 60.51 53.5007 60.5 53.5407 60.48C53.8407 60.38 54.1407 60.31 54.4407 60.27C54.7407 60.21 55.0507 60.17 55.3707 60.15C55.6507 60.11 55.9207 60.11 56.1807 60.15C56.4407 60.17 56.7007 60.21 56.9607 60.27C57.1407 60.33 57.3107 60.4 57.4707 60.48C57.6507 60.54 57.8107 60.63 57.9507 60.75C58.0507 60.83 58.1507 60.92 58.2507 61.02C58.3507 61.1 58.4307 61.19 58.4907 61.29C58.6307 61.49 58.7407 61.7 58.8207 61.92C58.9207 62.12 58.9707 62.33 58.9707 62.55V62.58C59.0107 62.78 59.0307 62.98 59.0307 63.18C59.0307 63.38 59.0107 63.58 58.9707 63.78C58.9507 63.9 58.9307 64.02 58.9107 64.14C58.8907 64.24 58.8707 64.35 58.8507 64.47C58.8107 64.65 58.7607 64.83 58.7007 65.01C58.6607 65.19 58.6207 65.37 58.5807 65.55C58.5607 65.63 58.5407 65.71 58.5207 65.79C58.5207 65.85 58.5207 65.92 58.5207 66V67.74C58.5207 67.9 58.5307 68.06 58.5507 68.22C58.5707 68.38 58.5907 68.54 58.6107 68.7C58.6307 68.8 58.6507 68.9 58.6707 69C58.7107 69.1 58.7407 69.2 58.7607 69.3C58.7607 69.34 58.8007 69.4 58.8807 69.48C58.9807 69.58 59.0407 69.69 59.0607 69.81C59.0607 69.87 59.0707 69.91 59.0907 69.93C59.1707 70.11 59.2107 70.32 59.2107 70.56C59.2107 70.64 59.2007 70.72 59.1807 70.8C59.1807 70.88 59.1907 70.97 59.2107 71.07C59.2507 71.19 59.2207 71.3 59.1207 71.4C59.0807 71.44 59.0507 71.49 59.0307 71.55C59.0107 71.61 58.9807 71.67 58.9407 71.73C58.8807 71.85 58.8007 71.96 58.7007 72.06C58.6407 72.08 58.5907 72.12 58.5507 72.18C58.5107 72.24 58.4707 72.29 58.4307 72.33C58.2707 72.51 58.0807 72.57 57.8607 72.51C57.8407 72.51 57.8107 72.5 57.7707 72.48C57.7507 72.48 57.7307 72.48 57.7107 72.48C57.5307 72.46 57.3707 72.4 57.2307 72.3C57.1107 72.22 56.9907 72.12 56.8707 72C56.8307 71.94 56.7807 71.88 56.7207 71.82C56.6807 71.74 56.6307 71.67 56.5707 71.61C56.5107 71.53 56.4607 71.44 56.4207 71.34C56.4007 71.24 56.3707 71.15 56.3307 71.07C56.2507 70.79 56.1607 70.5 56.0607 70.2C55.9807 69.9 55.9207 69.6 55.8807 69.3C55.8407 69.02 55.7907 68.74 55.7307 68.46C55.6707 68.16 55.6307 67.86 55.6107 67.56C55.5707 67.4 55.5507 67.26 55.5507 67.14C55.5107 67.06 55.4907 67.02 55.4907 67.02C55.4107 67.06 55.3607 67.09 55.3407 67.11C55.1407 67.35 54.9207 67.59 54.6807 67.83C54.4407 68.05 54.2107 68.28 53.9907 68.52C53.9507 68.58 53.9007 68.64 53.8407 68.7C53.8007 68.74 53.7607 68.78 53.7207 68.82C53.6007 68.94 53.4807 69.06 53.3607 69.18C53.2407 69.28 53.1307 69.39 53.0307 69.51C52.9507 69.57 52.8807 69.63 52.8207 69.69C52.7607 69.75 52.6907 69.8 52.6107 69.84C52.5707 69.88 52.5307 69.92 52.4907 69.96C52.4507 70 52.4107 70.04 52.3707 70.08C52.2907 70.16 52.2107 70.24 52.1307 70.32C52.0707 70.38 51.9907 70.44 51.8907 70.5L51.7707 70.62C51.4507 70.88 51.1307 71.11 50.8107 71.31C50.4707 71.49 50.3007 71.78 50.3007 72.18C50.3007 72.3 50.3007 72.42 50.3007 72.54C50.3007 72.66 50.3107 72.78 50.3307 72.9C50.3307 72.92 50.3307 72.93 50.3307 72.93C50.3507 72.93 50.3607 72.94 50.3607 72.96C50.3807 73.34 50.4007 73.72 50.4207 74.1C50.4607 74.5 50.4707 74.9 50.4507 75.3C50.4307 75.36 50.4207 75.44 50.4207 75.54C50.3807 75.72 50.2807 75.87 50.1207 75.99ZM49.9407 67.47C50.3007 67.65 50.6507 67.64 50.9907 67.44C51.0507 67.38 51.1007 67.34 51.1407 67.32C51.3007 67.2 51.4507 67.08 51.5907 66.96C51.7307 66.82 51.8707 66.69 52.0107 66.57C52.1507 66.45 52.2807 66.33 52.4007 66.21C52.5207 66.07 52.6507 65.94 52.7907 65.82C52.9507 65.66 53.1107 65.49 53.2707 65.31C53.4307 65.13 53.5807 64.95 53.7207 64.77C53.8207 64.65 53.9007 64.52 53.9607 64.38C54.0407 64.28 54.0907 64.16 54.1107 64.02C54.1107 63.88 54.0507 63.83 53.9307 63.87C53.8307 63.89 53.7307 63.91 53.6307 63.93C53.5307 63.95 53.4307 64 53.3307 64.08C53.2107 64.16 53.0807 64.24 52.9407 64.32C52.8207 64.4 52.6907 64.49 52.5507 64.59C52.5107 64.63 52.4707 64.69 52.4307 64.77C52.3907 64.91 52.3507 65.08 52.3107 65.28C52.3107 65.42 52.3007 65.55 52.2807 65.67C52.2807 65.79 52.2707 65.91 52.2507 66.03C52.1907 66.31 52.0507 66.49 51.8307 66.57C51.6907 66.63 51.5707 66.62 51.4707 66.54C51.3307 66.46 51.2307 66.35 51.1707 66.21C51.1307 66.07 51.0907 65.93 51.0507 65.79C51.0107 65.65 50.9807 65.51 50.9607 65.37L50.8707 64.8C50.8707 64.56 50.7607 64.31 50.5407 64.05C50.5007 64.01 50.4507 63.96 50.3907 63.9C50.3507 63.84 50.3107 63.78 50.2707 63.72C50.1907 63.6 50.1207 63.47 50.0607 63.33C50.0207 63.19 49.9807 63.05 49.9407 62.91L49.9107 62.7C49.9307 62.32 50.0707 61.99 50.3307 61.71C50.6507 61.35 51.0007 61.12 51.3807 61.02L51.6807 60.93C51.8007 60.89 51.8407 60.82 51.8007 60.72C51.7807 60.62 51.7607 60.52 51.7407 60.42C51.7207 60.3 51.7007 60.19 51.6807 60.09C51.6607 59.89 51.6407 59.7 51.6207 59.52C51.6207 59.32 51.6007 59.12 51.5607 58.92C51.5607 58.92 51.5607 58.87 51.5607 58.77C51.5407 58.55 51.5107 58.33 51.4707 58.11C51.4507 57.87 51.4207 57.63 51.3807 57.39C51.3407 57.19 51.2607 57.03 51.1407 56.91C50.9807 56.75 50.8007 56.67 50.6007 56.67C50.4207 56.71 50.2907 56.76 50.2107 56.82C50.0107 56.96 49.8207 57.1 49.6407 57.24C49.4607 57.36 49.2607 57.47 49.0407 57.57C48.9007 57.65 48.8007 57.74 48.7407 57.84C48.6807 57.98 48.6107 58.12 48.5307 58.26C48.4707 58.38 48.4207 58.52 48.3807 58.68C48.3607 58.78 48.3307 58.89 48.2907 59.01C48.2507 59.11 48.2107 59.21 48.1707 59.31C48.1707 59.35 48.1607 59.39 48.1407 59.43C48.1207 59.47 48.1007 59.51 48.0807 59.55C48.0207 59.69 47.9707 59.82 47.9307 59.94C47.8907 60.08 47.8507 60.22 47.8107 60.36C47.7707 60.5 47.7307 60.65 47.6907 60.81C47.6507 60.95 47.6107 61.12 47.5707 61.32C47.5307 61.52 47.4907 61.72 47.4507 61.92C47.4107 62.12 47.3707 62.32 47.3307 62.52C47.3107 62.6 47.2907 62.68 47.2707 62.76C47.2707 62.82 47.2707 62.9 47.2707 63C47.2707 63.08 47.2707 63.17 47.2707 63.27C47.2707 63.37 47.2507 63.47 47.2107 63.57C47.2107 63.63 47.2007 63.7 47.1807 63.78C47.1807 63.84 47.1807 63.9 47.1807 63.96C47.1807 64.02 47.1807 64.08 47.1807 64.14C47.2007 64.2 47.2107 64.28 47.2107 64.38C47.1907 64.52 47.1907 64.69 47.2107 64.89C47.2307 65.07 47.2507 65.25 47.2707 65.43L47.3307 65.67C47.3707 65.79 47.4207 65.92 47.4807 66.06C47.5407 66.18 47.6107 66.29 47.6907 66.39C47.8907 66.61 48.0807 66.79 48.2607 66.93C48.4407 67.07 48.5607 67.16 48.6207 67.2C48.7007 67.22 48.8607 67.23 49.1007 67.23C49.2807 67.23 49.4607 67.26 49.6407 67.32C49.7207 67.34 49.8207 67.39 49.9407 67.47ZM64.7183 72.6C64.3383 72.64 64.0283 72.52 63.7883 72.24C63.6683 72.12 63.5583 71.99 63.4583 71.85C63.3583 71.71 63.2783 71.56 63.2183 71.4C63.1183 71.12 63.0283 70.84 62.9483 70.56C62.8683 70.26 62.7983 69.97 62.7383 69.69C62.6783 69.47 62.6483 69.26 62.6483 69.06C62.6283 68.84 62.5983 68.63 62.5583 68.43C62.5383 68.21 62.5283 67.99 62.5283 67.77C62.5283 67.65 62.5283 67.53 62.5283 67.41C62.5283 67.27 62.5183 67.14 62.4983 67.02C62.4783 66.94 62.4683 66.87 62.4683 66.81C62.4683 66.75 62.4683 66.68 62.4683 66.6C62.4683 66.32 62.4683 66.04 62.4683 65.76C62.4683 65.46 62.4583 65.17 62.4383 64.89C62.4383 64.73 62.4283 64.59 62.4083 64.47C62.3883 64.33 62.3483 64.19 62.2883 64.05C62.2083 63.83 62.1983 63.59 62.2583 63.33C62.2583 63.27 62.2683 63.23 62.2883 63.21C62.3283 63.07 62.3483 62.93 62.3483 62.79C62.3683 62.65 62.3683 62.51 62.3483 62.37C62.3283 62.27 62.3183 62.17 62.3183 62.07C62.3183 61.97 62.3183 61.88 62.3183 61.8C62.2983 61.58 62.2883 61.36 62.2883 61.14C62.3083 60.9 62.3283 60.67 62.3483 60.45C62.3683 60.39 62.3783 60.33 62.3783 60.27C62.3783 60.21 62.3783 60.15 62.3783 60.09C62.3583 59.87 62.3583 59.66 62.3783 59.46C62.4183 59.26 62.4483 59.06 62.4683 58.86C62.5083 58.62 62.5483 58.39 62.5883 58.17C62.6283 57.93 62.6783 57.69 62.7383 57.45C62.7783 57.35 62.7983 57.24 62.7983 57.12C62.7983 57 62.7983 56.88 62.7983 56.76C62.7983 56.66 62.7883 56.56 62.7683 56.46C62.7683 56.36 62.7683 56.27 62.7683 56.19C62.7683 56.13 62.7683 56.07 62.7683 56.01C62.7683 55.95 62.7783 55.89 62.7983 55.83C62.8183 55.77 62.8283 55.71 62.8283 55.65C62.8283 55.59 62.8383 55.55 62.8583 55.53C62.9183 55.45 62.9683 55.38 63.0083 55.32C63.0483 55.24 63.1083 55.17 63.1883 55.11C63.2883 55.05 63.3783 54.99 63.4583 54.93C63.5583 54.87 63.6483 54.82 63.7283 54.78C63.8283 54.74 63.9083 54.69 63.9683 54.63C64.0483 54.53 64.1283 54.44 64.2083 54.36C64.3083 54.26 64.3883 54.15 64.4483 54.03C64.5483 53.93 64.6483 53.82 64.7483 53.7C64.8683 53.56 64.9983 53.45 65.1383 53.37C65.1783 53.35 65.2383 53.3 65.3183 53.22C65.5583 53 65.8383 52.86 66.1583 52.8C66.2183 52.78 66.2683 52.77 66.3083 52.77C66.3683 52.75 66.4283 52.74 66.4883 52.74L66.6983 52.65C66.8583 52.59 66.9983 52.62 67.1183 52.74C67.1583 52.8 67.2083 52.86 67.2683 52.92C67.3483 52.96 67.4183 53 67.4783 53.04C67.6383 53.18 67.7883 53.33 67.9283 53.49C68.0883 53.65 68.2283 53.83 68.3483 54.03C68.5483 54.35 68.7183 54.67 68.8583 54.99C69.0183 55.31 69.1683 55.64 69.3083 55.98L69.8483 57.27C69.8683 57.39 69.9183 57.5 69.9983 57.6C70.1583 57.9 70.2783 58.21 70.3583 58.53C70.4383 58.83 70.5183 59.14 70.5983 59.46C70.6183 59.5 70.6283 59.54 70.6283 59.58C70.6483 59.62 70.6583 59.66 70.6583 59.7C70.6983 59.86 70.7283 60.03 70.7483 60.21C70.7883 60.37 70.7983 60.53 70.7783 60.69C70.7983 60.87 70.7883 61.05 70.7483 61.23C70.7283 61.39 70.6983 61.55 70.6583 61.71C70.5983 61.91 70.5283 62.1 70.4483 62.28C70.3683 62.44 70.2783 62.61 70.1783 62.79C70.1383 62.91 70.0683 63.02 69.9683 63.12C69.8683 63.22 69.7683 63.31 69.6683 63.39C69.5083 63.47 69.3483 63.59 69.1883 63.75C69.1483 63.79 69.0983 63.82 69.0383 63.84C68.9983 63.86 68.9583 63.89 68.9183 63.93C68.7783 63.99 68.6283 64.06 68.4683 64.14C68.3083 64.2 68.1483 64.26 67.9883 64.32C67.9683 64.32 67.9583 64.34 67.9583 64.38C67.9583 64.4 67.9683 64.42 67.9883 64.44L68.7983 65.01C68.8983 65.07 68.9883 65.13 69.0683 65.19C69.1483 65.23 69.2283 65.28 69.3083 65.34L69.4883 65.43C69.7283 65.57 69.9683 65.72 70.2083 65.88C70.4483 66.04 70.6783 66.2 70.8983 66.36C71.3183 66.62 71.7383 66.89 72.1583 67.17C72.5783 67.43 72.9783 67.72 73.3583 68.04C73.6983 68.3 73.9983 68.6 74.2583 68.94C74.3183 69 74.3783 69.07 74.4383 69.15C74.4983 69.21 74.5683 69.26 74.6483 69.3L74.7383 69.39C75.0583 69.67 75.2383 70.05 75.2783 70.53C75.2783 70.59 75.2683 70.65 75.2483 70.71C75.2483 70.77 75.2483 70.83 75.2483 70.89C75.2483 71.01 75.2083 71.11 75.1283 71.19C75.0483 71.23 75.0083 71.28 75.0083 71.34C74.9483 71.48 74.8583 71.58 74.7383 71.64C74.6383 71.68 74.5383 71.74 74.4383 71.82C74.3983 71.84 74.3283 71.85 74.2283 71.85C74.1083 71.83 73.9783 71.81 73.8383 71.79C73.7183 71.77 73.5983 71.76 73.4783 71.76C73.3183 71.76 73.1483 71.69 72.9683 71.55C72.8483 71.45 72.7383 71.36 72.6383 71.28C72.5383 71.18 72.4383 71.06 72.3383 70.92C72.0783 70.56 71.7383 70.23 71.3183 69.93C71.1183 69.77 70.9283 69.62 70.7483 69.48C70.5683 69.34 70.3683 69.21 70.1483 69.09C70.0083 69.01 69.8683 68.93 69.7283 68.85C69.6083 68.75 69.4683 68.66 69.3083 68.58C68.8083 68.24 68.2983 67.91 67.7783 67.59C67.2583 67.25 66.7383 66.91 66.2183 66.57C66.1383 66.51 66.0483 66.45 65.9483 66.39C65.8483 66.33 65.7483 66.27 65.6483 66.21C65.6083 66.17 65.5483 66.13 65.4683 66.09C65.3883 66.09 65.3483 66.12 65.3483 66.18C65.3483 66.2 65.3383 66.22 65.3183 66.24C65.3183 66.24 65.3183 66.25 65.3183 66.27C65.3183 66.33 65.3183 66.39 65.3183 66.45C65.3183 66.51 65.3283 66.57 65.3483 66.63C65.3683 66.79 65.3783 66.95 65.3783 67.11C65.3783 67.25 65.3783 67.4 65.3783 67.56C65.3783 67.68 65.3783 67.8 65.3783 67.92C65.3983 68.02 65.4183 68.13 65.4383 68.25C65.4383 68.31 65.4383 68.38 65.4383 68.46C65.4583 68.52 65.4683 68.58 65.4683 68.64C65.4483 68.82 65.4583 69 65.4983 69.18C65.5383 69.36 65.5683 69.54 65.5883 69.72L65.7683 70.5C65.7883 70.58 65.8083 70.67 65.8283 70.77C65.8483 70.85 65.8683 70.94 65.8883 71.04C65.9083 71.12 65.9083 71.2 65.8883 71.28C65.8883 71.34 65.8783 71.41 65.8583 71.49C65.8583 71.51 65.8383 71.54 65.7983 71.58C65.6983 71.6 65.6283 71.67 65.5883 71.79C65.5283 71.93 65.4383 72.05 65.3183 72.15C65.2183 72.27 65.1083 72.38 64.9883 72.48C64.9683 72.5 64.9283 72.52 64.8683 72.54C64.8083 72.56 64.7583 72.58 64.7183 72.6ZM65.8883 62.1H65.9483C66.1683 62.06 66.3883 62.02 66.6083 61.98C66.8483 61.92 67.0783 61.85 67.2983 61.77C67.5183 61.71 67.7083 61.6 67.8683 61.44C68.0083 61.3 68.0783 61.14 68.0783 60.96C68.0983 60.82 68.0983 60.69 68.0783 60.57C68.0783 60.43 68.0583 60.29 68.0183 60.15C67.9383 59.79 67.8483 59.44 67.7483 59.1C67.6483 58.74 67.5283 58.4 67.3883 58.08L67.1183 57.36C67.0583 57.16 66.9883 56.97 66.9083 56.79C66.8283 56.59 66.7383 56.4 66.6383 56.22C66.6183 56.18 66.5983 56.14 66.5783 56.1C66.5583 56.04 66.5383 55.99 66.5183 55.95L66.3983 55.83C66.3383 55.75 66.2683 55.75 66.1883 55.83C66.1683 55.83 66.1383 55.85 66.0983 55.89C65.9583 56.07 65.8283 56.26 65.7083 56.46C65.6083 56.66 65.5483 56.88 65.5283 57.12C65.5083 57.2 65.4883 57.28 65.4683 57.36C65.4683 57.44 65.4683 57.53 65.4683 57.63V58.92C65.4483 59.2 65.4383 59.49 65.4383 59.79C65.4583 60.09 65.4483 60.38 65.4083 60.66C65.3883 60.72 65.3783 60.78 65.3783 60.84C65.3983 60.9 65.4083 60.96 65.4083 61.02C65.4283 61.14 65.4383 61.26 65.4383 61.38C65.4383 61.48 65.4383 61.59 65.4383 61.71C65.4383 61.91 65.4583 62.03 65.4983 62.07C65.5583 62.11 65.6883 62.12 65.8883 62.1ZM90.2286 74.19C90.0486 74.19 89.8886 74.12 89.7486 73.98C89.7086 73.92 89.6686 73.86 89.6286 73.8C89.5886 73.74 89.5486 73.68 89.5086 73.62C89.3286 73.2 89.2386 72.76 89.2386 72.3L89.1486 71.58C89.0886 71.3 89.0386 71.02 88.9986 70.74C88.9586 70.46 88.8886 70.19 88.7886 69.93L88.6086 69.42C88.6086 69.38 88.5986 69.34 88.5786 69.3C88.5786 69.26 88.5686 69.22 88.5486 69.18L88.0986 67.59C88.0786 67.55 88.0586 67.5 88.0386 67.44C88.0386 67.38 88.0186 67.33 87.9786 67.29C87.9186 67.17 87.8686 67.05 87.8286 66.93C87.8086 66.79 87.7786 66.65 87.7386 66.51C87.7186 66.41 87.6986 66.32 87.6786 66.24C87.6586 66.14 87.6286 66.04 87.5886 65.94C87.5486 65.82 87.5086 65.75 87.4686 65.73C87.4286 65.69 87.3386 65.69 87.1986 65.73C87.0986 65.75 86.9886 65.77 86.8686 65.79C86.7686 65.79 86.6686 65.81 86.5686 65.85C86.4886 65.87 86.3886 65.89 86.2686 65.91C86.1686 65.91 86.0686 65.92 85.9686 65.94L85.5486 66.03C85.4486 66.05 85.3386 66.08 85.2186 66.12C85.1186 66.14 85.0186 66.15 84.9186 66.15L84.3786 66.24C84.2186 66.28 84.0486 66.32 83.8686 66.36C83.6886 66.4 83.5186 66.44 83.3586 66.48C82.8786 66.6 82.3986 66.69 81.9186 66.75C81.7586 66.79 81.6686 66.86 81.6486 66.96C81.6286 66.96 81.6186 66.97 81.6186 66.99C81.4986 67.31 81.3586 67.63 81.1986 67.95C81.0586 68.25 80.9086 68.56 80.7486 68.88C80.7086 68.96 80.6686 69.04 80.6286 69.12C80.6086 69.18 80.5786 69.25 80.5386 69.33C80.5186 69.37 80.4986 69.42 80.4786 69.48C80.4586 69.52 80.4386 69.56 80.4186 69.6C80.2986 69.74 80.2386 69.91 80.2386 70.11C80.2186 70.23 80.1786 70.35 80.1186 70.47C80.0586 70.57 79.9986 70.67 79.9386 70.77C79.9186 70.83 79.8786 70.86 79.8186 70.86C79.7386 70.88 79.6586 70.91 79.5786 70.95C79.4986 70.99 79.4086 71.03 79.3086 71.07C79.2486 71.09 79.1886 71.09 79.1286 71.07C79.0886 71.05 79.0386 71.03 78.9786 71.01C78.9386 70.97 78.8986 70.95 78.8586 70.95C78.6386 70.93 78.4786 70.8 78.3786 70.56C78.2186 70.24 78.1086 69.92 78.0486 69.6C78.0286 69.52 78.0286 69.45 78.0486 69.39C78.0886 69.33 78.1186 69.27 78.1386 69.21C78.2586 69.13 78.3286 69.04 78.3486 68.94V68.91C78.3486 68.65 78.3986 68.41 78.4986 68.19C78.6186 67.95 78.7186 67.72 78.7986 67.5C78.8386 67.38 78.8886 67.26 78.9486 67.14C79.0086 67.02 79.0686 66.9 79.1286 66.78C79.2086 66.64 79.2686 66.51 79.3086 66.39C79.3686 66.25 79.4186 66.11 79.4586 65.97C79.5186 65.81 79.5186 65.66 79.4586 65.52C79.4186 65.4 79.3986 65.29 79.3986 65.19C79.3986 65.07 79.4086 64.95 79.4286 64.83C79.4286 64.61 79.5086 64.42 79.6686 64.26C79.7486 64.16 79.8286 64.08 79.9086 64.02C80.0086 63.94 80.0986 63.86 80.1786 63.78C80.3586 63.6 80.4986 63.36 80.5986 63.06C80.6786 62.8 80.7386 62.54 80.7786 62.28C80.8386 62 80.8986 61.73 80.9586 61.47C80.9986 61.21 81.0386 60.96 81.0786 60.72C81.1386 60.46 81.1986 60.21 81.2586 59.97C81.2786 59.87 81.2986 59.78 81.3186 59.7C81.3586 59.6 81.3886 59.51 81.4086 59.43C81.4686 59.27 81.5286 59.12 81.5886 58.98C81.6486 58.82 81.6886 58.66 81.7086 58.5C81.7486 58.42 81.7486 58.35 81.7086 58.29C81.6886 58.19 81.6886 58.1 81.7086 58.02C81.7486 57.94 81.7786 57.86 81.7986 57.78C81.8586 57.64 81.8986 57.5 81.9186 57.36C81.9586 57.22 82.0086 57.08 82.0686 56.94C82.1686 56.68 82.2486 56.47 82.3086 56.31C82.3886 56.13 82.4586 55.93 82.5186 55.71C82.5586 55.59 82.5986 55.48 82.6386 55.38C82.6986 55.26 82.7386 55.14 82.7586 55.02C82.8186 54.84 82.8686 54.66 82.9086 54.48C82.9486 54.28 82.9686 54.09 82.9686 53.91C83.0086 53.75 83.0486 53.64 83.0886 53.58C83.1886 53.38 83.3086 53.21 83.4486 53.07C83.6086 52.93 83.7586 52.79 83.8986 52.65C83.9986 52.59 84.0986 52.55 84.1986 52.53C84.2986 52.49 84.3986 52.5 84.4986 52.56C84.5786 52.6 84.6286 52.62 84.6486 52.62C84.8286 52.6 84.9786 52.64 85.0986 52.74C85.2186 52.84 85.3186 52.96 85.3986 53.1C85.4386 53.14 85.4686 53.19 85.4886 53.25C85.5086 53.31 85.5286 53.36 85.5486 53.4C85.6486 53.56 85.6986 53.72 85.6986 53.88C85.6986 53.96 85.7086 54.05 85.7286 54.15C85.7486 54.23 85.7686 54.32 85.7886 54.42C85.8486 54.54 85.9386 54.6 86.0586 54.6C86.0786 54.58 86.0986 54.58 86.1186 54.6C86.1386 54.62 86.1486 54.64 86.1486 54.66C86.2486 54.78 86.2786 54.91 86.2386 55.05C86.1986 55.21 86.1886 55.37 86.2086 55.53C86.2486 55.67 86.2886 55.82 86.3286 55.98C86.4086 56.18 86.4886 56.38 86.5686 56.58C86.6486 56.78 86.7286 56.98 86.8086 57.18C86.9086 57.4 87.0086 57.62 87.1086 57.84C87.2086 58.06 87.2986 58.28 87.3786 58.5C87.4786 58.78 87.5786 59.06 87.6786 59.34C87.7986 59.62 87.9286 59.9 88.0686 60.18L88.1586 60.51C88.1786 60.59 88.1986 60.67 88.2186 60.75C88.2586 60.83 88.2886 60.91 88.3086 60.99C88.3486 61.05 88.3786 61.11 88.3986 61.17C88.4386 61.23 88.4786 61.28 88.5186 61.32C88.6186 61.46 88.6786 61.61 88.6986 61.77C88.7586 61.97 88.8486 62.15 88.9686 62.31C89.0086 62.37 89.0686 62.4 89.1486 62.4C89.4486 62.36 89.7486 62.33 90.0486 62.31C90.3486 62.27 90.6486 62.21 90.9486 62.13C91.1686 62.07 91.3786 62.04 91.5786 62.04C91.9586 62.04 92.3086 62.17 92.6286 62.43C93.0086 62.73 93.2086 63.11 93.2286 63.57C93.2286 63.67 93.2386 63.75 93.2586 63.81C93.2586 63.95 93.2186 64.06 93.1386 64.14C93.1186 64.2 93.0786 64.26 93.0186 64.32C92.9786 64.38 92.9386 64.44 92.8986 64.5C92.8586 64.58 92.8186 64.64 92.7786 64.68L92.5986 64.83C92.5786 64.87 92.5486 64.92 92.5086 64.98C92.4686 65.02 92.4186 65.05 92.3586 65.07C92.2786 65.09 92.1986 65.12 92.1186 65.16C92.0386 65.18 91.9486 65.19 91.8486 65.19C91.4886 65.23 91.1686 65.22 90.8886 65.16H90.4086C90.3686 65.16 90.3086 65.18 90.2286 65.22C90.1486 65.26 90.1086 65.31 90.1086 65.37V65.49C90.1686 65.67 90.2086 65.86 90.2286 66.06C90.2686 66.24 90.3286 66.41 90.4086 66.57C90.4086 66.65 90.4286 66.73 90.4686 66.81C90.5686 66.99 90.6486 67.18 90.7086 67.38C90.7686 67.56 90.8186 67.75 90.8586 67.95C90.8586 67.99 90.8786 68.07 90.9186 68.19C90.9786 68.33 91.0286 68.48 91.0686 68.64C91.1086 68.78 91.1386 68.93 91.1586 69.09C91.1586 69.21 91.1886 69.32 91.2486 69.42C91.3286 69.6 91.3886 69.78 91.4286 69.96C91.4686 70.14 91.4986 70.33 91.5186 70.53C91.5386 70.55 91.5486 70.59 91.5486 70.65C91.5486 70.69 91.5586 70.73 91.5786 70.77C91.6786 70.99 91.7486 71.23 91.7886 71.49C91.8286 71.73 91.8786 71.97 91.9386 72.21C91.9786 72.33 91.9986 72.45 91.9986 72.57C92.0186 72.71 92.0286 72.85 92.0286 72.99C92.0286 73.09 91.9986 73.2 91.9386 73.32C91.8786 73.38 91.8486 73.41 91.8486 73.41C91.7286 73.43 91.6586 73.5 91.6386 73.62L91.5486 73.8C91.5086 73.88 91.4486 73.93 91.3686 73.95C91.2886 73.95 91.2186 73.98 91.1586 74.04C91.0786 74.12 90.9686 74.16 90.8286 74.16C90.7486 74.16 90.6486 74.16 90.5286 74.16C90.4286 74.16 90.3286 74.17 90.2286 74.19ZM82.9986 63.3C83.1186 63.28 83.2386 63.26 83.3586 63.24C83.4986 63.22 83.6486 63.2 83.8086 63.18C83.9086 63.16 84.0386 63.14 84.1986 63.12C84.3586 63.1 84.5086 63.08 84.6486 63.06C84.7886 63.02 84.9286 63 85.0686 63C85.2086 62.98 85.3486 62.96 85.4886 62.94C85.6086 62.9 85.7286 62.88 85.8486 62.88C85.9686 62.86 86.0886 62.84 86.2086 62.82C86.3886 62.78 86.4586 62.68 86.4186 62.52C86.3986 62.36 86.3586 62.2 86.2986 62.04C86.2586 61.86 86.1686 61.71 86.0286 61.59C85.9886 61.55 85.9686 61.49 85.9686 61.41V61.32C85.9286 61.16 85.8786 61.01 85.8186 60.87C85.7786 60.71 85.7286 60.56 85.6686 60.42C85.6286 60.26 85.5786 60.12 85.5186 60C85.4786 59.86 85.4286 59.72 85.3686 59.58L85.0086 58.5C84.9486 58.36 84.8886 58.22 84.8286 58.08C84.7886 57.94 84.7486 57.8 84.7086 57.66L84.6186 57.54H84.5286L84.4686 57.63C84.3686 57.93 84.2486 58.23 84.1086 58.53C83.9886 58.83 83.8786 59.15 83.7786 59.49C83.7786 59.53 83.7686 59.58 83.7486 59.64C83.7286 59.7 83.7086 59.76 83.6886 59.82C83.6086 60.02 83.5286 60.24 83.4486 60.48C83.3886 60.72 83.3386 60.96 83.2986 61.2C83.2786 61.34 83.2586 61.48 83.2386 61.62C83.2186 61.74 83.1886 61.87 83.1486 62.01L82.8786 63.18C82.8586 63.2 82.8686 63.23 82.9086 63.27C82.9486 63.29 82.9786 63.3 82.9986 63.3ZM97.5475 73.14C97.5275 73.16 97.4775 73.15 97.3975 73.11C97.3175 73.07 97.2375 73.04 97.1575 73.02C97.0975 73.02 97.0275 73.01 96.9475 72.99C96.8875 72.99 96.8375 72.96 96.7975 72.9C96.7775 72.84 96.7175 72.78 96.6175 72.72C96.4975 72.66 96.4175 72.55 96.3775 72.39L96.2875 72.09C96.2275 71.97 96.2275 71.85 96.2875 71.73C96.3075 71.67 96.3075 71.61 96.2875 71.55C96.2875 71.49 96.2975 71.43 96.3175 71.37C96.3375 71.33 96.3575 71.29 96.3775 71.25C96.3975 71.19 96.4175 71.14 96.4375 71.1C96.4375 71.04 96.4375 70.98 96.4375 70.92C96.4575 70.86 96.4675 70.8 96.4675 70.74C96.4675 70.52 96.4675 70.29 96.4675 70.05C96.4675 69.81 96.4775 69.58 96.4975 69.36C96.4975 69.2 96.4875 69.04 96.4675 68.88C96.4675 68.7 96.4775 68.53 96.4975 68.37C96.4975 68.25 96.5075 68.14 96.5275 68.04C96.5475 67.92 96.5475 67.81 96.5275 67.71C96.5275 67.61 96.5175 67.51 96.4975 67.41C96.4975 67.31 96.4975 67.21 96.4975 67.11C96.4975 66.97 96.4875 66.84 96.4675 66.72C96.4675 66.6 96.4375 66.47 96.3775 66.33C96.3375 66.17 96.3175 66.03 96.3175 65.91C96.3175 65.69 96.3175 65.48 96.3175 65.28C96.3175 65.08 96.3275 64.88 96.3475 64.68C96.3475 64.64 96.3475 64.6 96.3475 64.56C96.3675 64.52 96.3675 64.49 96.3475 64.47C96.3275 64.31 96.3075 64.16 96.2875 64.02C96.2875 63.86 96.2875 63.71 96.2875 63.57V63.48C96.2675 63.34 96.2075 63.21 96.1075 63.09L95.8975 62.82C95.8175 62.7 95.7775 62.59 95.7775 62.49C95.7775 62.43 95.7675 62.37 95.7475 62.31C95.7475 62.25 95.7475 62.19 95.7475 62.13C95.7275 61.97 95.7575 61.82 95.8375 61.68C95.9175 61.56 95.9975 61.41 96.0775 61.23C96.1175 61.13 96.1175 61.04 96.0775 60.96C96.0575 60.88 96.0475 60.8 96.0475 60.72V60.45C96.0475 60.33 96.0375 60.24 96.0175 60.18C95.9975 59.96 95.9775 59.74 95.9575 59.52C95.9575 59.28 95.9375 59.06 95.8975 58.86C95.8775 58.7 95.8675 58.54 95.8675 58.38C95.8675 58.22 95.8675 58.07 95.8675 57.93C95.8475 57.83 95.8375 57.73 95.8375 57.63C95.8375 57.53 95.8175 57.43 95.7775 57.33L95.7475 57.12C95.7675 56.9 95.7375 56.67 95.6575 56.43C95.6375 56.35 95.6175 56.27 95.5975 56.19C95.5975 56.09 95.6075 56 95.6275 55.92C95.6875 55.76 95.7075 55.59 95.6875 55.41C95.6875 55.23 95.6775 55.05 95.6575 54.87C95.6375 54.71 95.6275 54.56 95.6275 54.42C95.6275 54.26 95.6175 54.11 95.5975 53.97C95.5775 53.73 95.5875 53.5 95.6275 53.28C95.6875 53.04 95.7575 52.8 95.8375 52.56C95.8775 52.48 95.9175 52.43 95.9575 52.41C96.0375 52.37 96.1075 52.33 96.1675 52.29C96.2275 52.23 96.2875 52.18 96.3475 52.14C96.4275 52.1 96.4675 52.08 96.4675 52.08C96.5675 52.04 96.6575 52.01 96.7375 51.99C96.8375 51.97 96.9275 51.95 97.0075 51.93C97.1875 51.87 97.3475 51.87 97.4875 51.93C97.6475 51.99 97.7975 52.07 97.9375 52.17C98.0975 52.25 98.2275 52.37 98.3275 52.53C98.3475 52.57 98.3675 52.62 98.3875 52.68C98.4075 52.72 98.4275 52.77 98.4475 52.83C98.4475 52.91 98.4475 53 98.4475 53.1C98.4675 53.18 98.4875 53.27 98.5075 53.37C98.5475 53.49 98.6075 53.55 98.6875 53.55H98.7775C99.0975 53.57 99.4075 53.59 99.7075 53.61C100.027 53.61 100.347 53.61 100.667 53.61H100.787C100.947 53.57 101.077 53.55 101.177 53.55C101.257 53.57 101.367 53.58 101.507 53.58C101.547 53.56 101.597 53.55 101.657 53.55C101.717 53.55 101.767 53.55 101.807 53.55C101.927 53.53 102.027 53.53 102.107 53.55C102.247 53.59 102.367 53.58 102.467 53.52C102.527 53.48 102.607 53.48 102.707 53.52C102.747 53.54 102.797 53.55 102.857 53.55C102.917 53.55 102.967 53.55 103.007 53.55C103.167 53.51 103.327 53.48 103.487 53.46C103.667 53.44 103.837 53.42 103.997 53.4C104.157 53.36 104.307 53.33 104.447 53.31C104.607 53.29 104.757 53.27 104.897 53.25C104.937 53.23 104.997 53.22 105.077 53.22C105.377 53.24 105.687 53.19 106.007 53.07C106.067 53.05 106.127 53.04 106.187 53.04C106.247 53.02 106.317 53.02 106.397 53.04C106.477 53.06 106.577 53.06 106.697 53.04C106.857 53.02 107.017 53 107.177 52.98C107.337 52.94 107.487 52.91 107.627 52.89C107.727 52.85 107.817 52.82 107.897 52.8C107.977 52.76 108.057 52.75 108.137 52.77L108.407 52.68C108.547 52.62 108.687 52.64 108.827 52.74L109.307 53.01C109.347 53.03 109.377 53.05 109.397 53.07C109.437 53.09 109.467 53.12 109.487 53.16C109.547 53.26 109.597 53.36 109.637 53.46C109.697 53.56 109.737 53.67 109.757 53.79C109.757 53.87 109.767 53.94 109.787 54C109.827 54.06 109.827 54.13 109.787 54.21C109.767 54.27 109.747 54.33 109.727 54.39C109.707 54.45 109.687 54.51 109.667 54.57L109.577 54.78C109.557 54.88 109.497 54.96 109.397 55.02L109.277 55.14C109.237 55.18 109.187 55.23 109.127 55.29C109.087 55.33 109.057 55.38 109.037 55.44C109.017 55.5 108.977 55.54 108.917 55.56C108.837 55.58 108.757 55.61 108.677 55.65C108.617 55.69 108.557 55.74 108.497 55.8C108.417 55.82 108.337 55.85 108.257 55.89C108.177 55.91 108.087 55.91 107.987 55.89C107.867 55.87 107.717 55.91 107.537 56.01C107.437 56.07 107.327 56.12 107.207 56.16C107.087 56.18 106.967 56.21 106.847 56.25C106.607 56.31 106.387 56.31 106.187 56.25C106.107 56.21 106.027 56.19 105.947 56.19C105.867 56.19 105.787 56.18 105.707 56.16C105.627 56.14 105.547 56.12 105.467 56.1C105.407 56.08 105.327 56.07 105.227 56.07C105.147 56.07 105.077 56.07 105.017 56.07C104.957 56.05 104.887 56.03 104.807 56.01C104.727 55.99 104.597 55.98 104.417 55.98C104.357 55.98 104.297 55.99 104.237 56.01C104.177 56.01 104.107 56 104.027 55.98C103.947 55.96 103.857 55.96 103.757 55.98C103.677 55.98 103.587 55.99 103.487 56.01C103.427 56.03 103.367 56.05 103.307 56.07C103.267 56.07 103.227 56.07 103.187 56.07C103.067 56.11 102.977 56.12 102.917 56.1C102.817 56.08 102.717 56.08 102.617 56.1C102.517 56.1 102.417 56.11 102.317 56.13C102.277 56.13 102.227 56.13 102.167 56.13C102.107 56.13 102.057 56.12 102.017 56.1C101.777 56.04 101.547 56.09 101.327 56.25H101.267C101.187 56.33 101.107 56.34 101.027 56.28C100.827 56.18 100.677 56.22 100.577 56.4C100.517 56.52 100.427 56.56 100.307 56.52C100.187 56.52 100.107 56.5 100.067 56.46C99.9675 56.42 99.8875 56.45 99.8275 56.55C99.7875 56.59 99.7475 56.61 99.7075 56.61C99.6475 56.61 99.6075 56.6 99.5875 56.58C99.5075 56.56 99.4375 56.56 99.3775 56.58C99.1375 56.68 98.9175 56.76 98.7175 56.82C98.6575 56.82 98.6275 56.86 98.6275 56.94C98.6075 57.24 98.6075 57.55 98.6275 57.87C98.6475 57.95 98.6575 58.04 98.6575 58.14C98.6575 58.22 98.6675 58.31 98.6875 58.41C98.6875 58.49 98.6875 58.57 98.6875 58.65C98.7075 58.73 98.7275 58.81 98.7475 58.89V59.01C98.7675 59.21 98.7875 59.4 98.8075 59.58C98.8275 59.76 98.8475 59.95 98.8675 60.15C98.8675 60.25 98.8975 60.38 98.9575 60.54C98.9975 60.64 99.0675 60.69 99.1675 60.69C99.2275 60.71 99.2875 60.72 99.3475 60.72C99.4075 60.72 99.4675 60.72 99.5275 60.72H101.957C102.117 60.68 102.277 60.66 102.437 60.66C102.617 60.66 102.787 60.66 102.947 60.66C103.027 60.68 103.097 60.69 103.157 60.69C103.237 60.67 103.307 60.67 103.367 60.69H103.637C103.757 60.67 103.877 60.66 103.997 60.66C104.117 60.64 104.247 60.62 104.387 60.6C104.547 60.56 104.687 60.54 104.807 60.54C104.847 60.52 104.907 60.51 104.987 60.51C105.147 60.53 105.327 60.51 105.527 60.45C105.607 60.39 105.707 60.38 105.827 60.42C105.907 60.44 105.987 60.45 106.067 60.45C106.147 60.43 106.227 60.42 106.307 60.42C106.387 60.4 106.457 60.39 106.517 60.39C106.597 60.39 106.667 60.39 106.727 60.39C107.007 60.41 107.297 60.39 107.597 60.33C107.717 60.31 107.837 60.3 107.957 60.3C108.077 60.3 108.187 60.3 108.287 60.3C108.327 60.3 108.367 60.31 108.407 60.33C108.467 60.33 108.517 60.32 108.557 60.3C108.717 60.26 108.877 60.24 109.037 60.24C109.217 60.22 109.387 60.18 109.547 60.12C109.587 60.1 109.637 60.08 109.697 60.06C109.757 60.04 109.807 60.02 109.847 60C109.967 59.94 110.087 59.9 110.207 59.88C110.347 59.84 110.477 59.81 110.597 59.79C110.657 59.77 110.747 59.76 110.867 59.76H110.957C111.037 59.78 111.117 59.81 111.197 59.85C111.277 59.89 111.347 59.94 111.407 60C111.547 60.14 111.687 60.21 111.827 60.21C111.887 60.21 111.937 60.25 111.977 60.33V60.42C111.977 60.48 111.957 60.51 111.917 60.51C111.917 60.51 111.907 60.52 111.887 60.54C111.867 60.54 111.857 60.55 111.857 60.57C111.897 60.61 111.937 60.63 111.977 60.63V60.66C111.997 60.7 111.987 60.77 111.947 60.87C111.887 60.93 111.887 61 111.947 61.08C112.027 61.2 112.037 61.31 111.977 61.41C111.917 61.53 111.857 61.65 111.797 61.77C111.737 61.89 111.677 62 111.617 62.1C111.497 62.28 111.357 62.41 111.197 62.49C111.117 62.51 111.017 62.54 110.897 62.58C110.797 62.6 110.697 62.62 110.597 62.64C110.337 62.68 110.067 62.72 109.787 62.76C109.527 62.8 109.257 62.84 108.977 62.88C108.877 62.9 108.777 62.92 108.677 62.94C108.577 62.94 108.477 62.95 108.377 62.97C108.177 62.99 107.977 63.01 107.777 63.03C107.577 63.05 107.377 63.08 107.177 63.12H106.937C106.837 63.14 106.727 63.16 106.607 63.18C106.507 63.18 106.407 63.18 106.307 63.18C106.147 63.18 105.987 63.19 105.827 63.21C105.667 63.21 105.507 63.22 105.347 63.24C105.247 63.26 105.147 63.27 105.047 63.27C104.947 63.27 104.847 63.27 104.747 63.27C104.547 63.27 104.337 63.27 104.117 63.27C103.917 63.25 103.707 63.23 103.487 63.21C103.247 63.19 103.007 63.18 102.767 63.18C102.547 63.18 102.317 63.18 102.077 63.18H100.967C100.867 63.18 100.797 63.19 100.757 63.21C100.557 63.23 100.347 63.25 100.127 63.27C99.9275 63.27 99.7175 63.27 99.4975 63.27H99.4075C99.2675 63.31 99.1975 63.38 99.1975 63.48C99.1975 63.56 99.1975 63.64 99.1975 63.72C99.1975 63.78 99.2075 63.84 99.2275 63.9C99.2675 64.2 99.2975 64.5 99.3175 64.8C99.3575 65.08 99.3775 65.36 99.3775 65.64C99.3775 65.78 99.3775 65.91 99.3775 66.03C99.3775 66.15 99.3875 66.28 99.4075 66.42C99.4075 66.74 99.4175 67.06 99.4375 67.38C99.4775 67.7 99.4875 68.03 99.4675 68.37C99.4675 68.51 99.4675 68.65 99.4675 68.79C99.4875 68.93 99.5075 69.08 99.5275 69.24C99.5475 69.38 99.5475 69.52 99.5275 69.66C99.5275 69.78 99.5375 69.92 99.5575 70.08C99.5575 70.16 99.5575 70.25 99.5575 70.35C99.5775 70.43 99.5975 70.52 99.6175 70.62C99.6375 70.68 99.6375 70.74 99.6175 70.8C99.6175 70.86 99.6275 70.92 99.6475 70.98C99.6475 71.06 99.6475 71.14 99.6475 71.22C99.6475 71.28 99.6575 71.35 99.6775 71.43C99.6975 71.61 99.6475 71.76 99.5275 71.88C99.5075 71.94 99.4775 71.99 99.4375 72.03C99.4175 72.09 99.3975 72.14 99.3775 72.18C99.3375 72.28 99.2775 72.36 99.1975 72.42C99.1175 72.5 99.0275 72.57 98.9275 72.63C98.9075 72.65 98.8775 72.66 98.8375 72.66C98.7975 72.68 98.7575 72.7 98.7175 72.72C98.5975 72.76 98.5075 72.8 98.4475 72.84C98.4075 72.92 98.3475 72.97 98.2675 72.99C98.2075 73.01 98.1375 73.04 98.0575 73.08C97.9775 73.1 97.8875 73.11 97.7875 73.11C97.7075 73.13 97.6275 73.14 97.5475 73.14ZM118.933 72.3C118.913 72.3 118.883 72.29 118.843 72.27C118.823 72.27 118.793 72.27 118.753 72.27C118.613 72.27 118.513 72.21 118.453 72.09C118.373 71.95 118.293 71.83 118.213 71.73C118.133 71.63 118.043 71.53 117.943 71.43C117.843 71.33 117.753 71.22 117.673 71.1C117.613 70.98 117.553 70.86 117.493 70.74C117.433 70.64 117.403 70.54 117.403 70.44V70.14C117.403 70.04 117.393 69.94 117.373 69.84C117.373 69.72 117.363 69.61 117.343 69.51C117.303 69.35 117.263 69.18 117.223 69C117.203 68.82 117.173 68.65 117.133 68.49C117.133 68.45 117.123 68.41 117.103 68.37C117.103 68.31 117.103 68.26 117.103 68.22C117.083 68 117.053 67.78 117.013 67.56C116.973 67.32 116.933 67.09 116.893 66.87C116.833 66.47 116.763 66.08 116.683 65.7C116.623 65.3 116.563 64.91 116.503 64.53L116.323 63.54C116.303 63.38 116.243 63.21 116.143 63.03C116.023 62.81 115.933 62.57 115.873 62.31C115.853 62.19 115.823 62.08 115.783 61.98C115.743 61.86 115.703 61.74 115.663 61.62C115.603 61.42 115.543 61.22 115.483 61.02C115.423 60.82 115.373 60.62 115.333 60.42C115.313 60.26 115.283 60.1 115.243 59.94C115.203 59.78 115.163 59.62 115.123 59.46L114.943 58.65C114.943 58.61 114.933 58.58 114.913 58.56C114.893 58.28 114.853 58 114.793 57.72C114.733 57.42 114.673 57.13 114.613 56.85C114.593 56.69 114.563 56.5 114.523 56.28C114.503 56.04 114.503 55.85 114.523 55.71V55.41C114.563 55.13 114.653 54.87 114.793 54.63C114.953 54.35 115.213 54.13 115.573 53.97C115.673 53.93 115.773 53.9 115.873 53.88C115.973 53.86 116.063 53.84 116.143 53.82C116.363 53.8 116.573 53.83 116.773 53.91C116.973 53.97 117.173 54.06 117.373 54.18C117.433 54.22 117.483 54.27 117.523 54.33C117.583 54.43 117.643 54.53 117.703 54.63C117.783 54.73 117.833 54.84 117.853 54.96C117.893 55.08 117.933 55.2 117.973 55.32C118.033 55.44 118.093 55.55 118.153 55.65C118.253 55.85 118.323 56.06 118.363 56.28C118.403 56.5 118.443 56.72 118.483 56.94C118.543 57.24 118.573 57.56 118.573 57.9V58.05C118.613 58.25 118.633 58.45 118.633 58.65C118.633 58.83 118.633 59.02 118.633 59.22C118.653 59.54 118.683 59.86 118.723 60.18C118.763 60.48 118.803 60.8 118.843 61.14L119.023 62.55V62.61C119.063 62.83 119.103 63.06 119.143 63.3C119.203 63.52 119.243 63.74 119.263 63.96C119.323 64.3 119.383 64.65 119.443 65.01C119.523 65.35 119.583 65.69 119.623 66.03L119.803 67.29C119.843 67.49 119.873 67.69 119.893 67.89C119.933 68.09 119.973 68.29 120.013 68.49C120.053 68.69 120.083 68.89 120.103 69.09C120.143 69.27 120.183 69.46 120.223 69.66C120.243 69.74 120.253 69.82 120.253 69.9C120.273 69.96 120.283 70.03 120.283 70.11C120.303 70.41 120.253 70.7 120.133 70.98C120.113 71.06 120.063 71.14 119.983 71.22C119.903 71.34 119.833 71.42 119.773 71.46C119.613 71.62 119.493 71.79 119.413 71.97C119.413 71.99 119.393 72.02 119.353 72.06C119.333 72.1 119.303 72.14 119.263 72.18C119.183 72.26 119.073 72.3 118.933 72.3ZM132.035 71.97C131.775 72.03 131.505 72.01 131.225 71.91C131.145 71.89 131.075 71.86 131.015 71.82C130.975 71.78 130.925 71.74 130.865 71.7C130.725 71.6 130.615 71.45 130.535 71.25L130.415 70.86C130.415 70.82 130.405 70.79 130.385 70.77C130.385 70.73 130.385 70.7 130.385 70.68C130.385 70.4 130.365 70.13 130.325 69.87C130.285 69.59 130.245 69.32 130.205 69.06C130.165 68.86 130.125 68.66 130.085 68.46C130.065 68.26 130.035 68.06 129.995 67.86C129.995 67.82 129.985 67.79 129.965 67.77C129.965 67.75 129.965 67.73 129.965 67.71C129.925 67.47 129.885 67.23 129.845 66.99C129.805 66.75 129.765 66.52 129.725 66.3C129.705 66.18 129.685 66.06 129.665 65.94C129.665 65.82 129.645 65.7 129.605 65.58L129.425 64.26C129.405 64.08 129.375 63.9 129.335 63.72C129.315 63.52 129.285 63.32 129.245 63.12C129.225 62.92 129.195 62.73 129.155 62.55C129.115 62.35 129.075 62.16 129.035 61.98L128.585 60C128.545 59.78 128.505 59.56 128.465 59.34C128.425 59.12 128.375 58.91 128.315 58.71C128.255 58.53 128.205 58.35 128.165 58.17C128.125 57.97 128.065 57.78 127.985 57.6L127.955 57.48C127.895 57.22 127.815 56.97 127.715 56.73C127.635 56.49 127.545 56.25 127.445 56.01C127.445 55.99 127.435 55.98 127.415 55.98C127.415 55.96 127.415 55.95 127.415 55.95C127.375 55.83 127.305 55.79 127.205 55.83C127.185 55.85 127.155 55.86 127.115 55.86C127.035 55.88 126.955 55.91 126.875 55.95C126.815 55.99 126.745 56.03 126.665 56.07C126.465 56.13 126.295 56.22 126.155 56.34L125.345 56.91C125.225 56.97 125.115 57.05 125.015 57.15C124.935 57.25 124.855 57.35 124.775 57.45C124.715 57.53 124.685 57.62 124.685 57.72L124.595 58.26C124.575 58.46 124.555 58.67 124.535 58.89C124.515 59.11 124.495 59.33 124.475 59.55C124.455 59.75 124.425 59.94 124.385 60.12C124.365 60.28 124.355 60.46 124.355 60.66C124.355 60.82 124.325 60.99 124.265 61.17C124.205 61.39 124.055 61.53 123.815 61.59C123.635 61.61 123.485 61.55 123.365 61.41C123.265 61.31 123.195 61.16 123.155 60.96C123.135 60.82 123.115 60.69 123.095 60.57C123.075 60.45 123.065 60.32 123.065 60.18V59.28C123.065 59.1 123.055 58.93 123.035 58.77C123.035 58.61 123.045 58.46 123.065 58.32C123.065 57.98 122.985 57.65 122.825 57.33L122.375 56.4C122.295 56.24 122.225 56.03 122.165 55.77C122.105 55.49 122.075 55.26 122.075 55.08C122.115 54.62 122.285 54.24 122.585 53.94C122.845 53.68 123.145 53.51 123.485 53.43C123.605 53.39 123.765 53.35 123.965 53.31L125.555 53.04C125.715 53.02 125.865 53 126.005 52.98C126.165 52.94 126.315 52.91 126.455 52.89C126.755 52.85 127.055 52.81 127.355 52.77C127.675 52.73 127.995 52.7 128.315 52.68C128.495 52.66 128.675 52.64 128.855 52.62C129.035 52.6 129.215 52.58 129.395 52.56H129.515C129.695 52.54 129.865 52.53 130.025 52.53C130.205 52.51 130.385 52.49 130.565 52.47C130.665 52.45 130.765 52.44 130.865 52.44C130.965 52.44 131.055 52.43 131.135 52.41C131.155 52.39 131.195 52.38 131.255 52.38L132.365 52.29C132.585 52.27 132.795 52.25 132.995 52.23C133.215 52.21 133.435 52.19 133.655 52.17C133.835 52.15 134.015 52.13 134.195 52.11C134.375 52.07 134.555 52.01 134.735 51.93C134.915 51.85 135.095 51.83 135.275 51.87C135.475 51.89 135.655 51.94 135.815 52.02C135.875 52.04 135.925 52.08 135.965 52.14C136.025 52.18 136.075 52.22 136.115 52.26C136.215 52.36 136.295 52.48 136.355 52.62C136.415 52.74 136.475 52.86 136.535 52.98C136.595 53.1 136.595 53.22 136.535 53.34C136.495 53.42 136.465 53.51 136.445 53.61C136.445 53.69 136.435 53.78 136.415 53.88C136.415 53.98 136.385 54.06 136.325 54.12C136.285 54.14 136.245 54.17 136.205 54.21C136.165 54.25 136.125 54.29 136.085 54.33C136.025 54.35 135.965 54.41 135.905 54.51C135.785 54.67 135.615 54.75 135.395 54.75C135.315 54.75 135.235 54.76 135.155 54.78C135.095 54.8 135.025 54.82 134.945 54.84C134.765 54.88 134.645 54.94 134.585 55.02C134.485 55.12 134.375 55.17 134.255 55.17C134.115 55.21 134.005 55.17 133.925 55.05C133.905 54.99 133.855 54.96 133.775 54.96C133.695 54.98 133.605 54.99 133.505 54.99C133.425 54.99 133.345 54.99 133.265 54.99C133.185 55.01 133.095 55.02 132.995 55.02C132.915 55.02 132.825 55.03 132.725 55.05C132.645 55.05 132.575 55.06 132.515 55.08C132.455 55.08 132.385 55.08 132.305 55.08C132.105 55.1 131.895 55.12 131.675 55.14C131.475 55.16 131.265 55.18 131.045 55.2C130.925 55.2 130.835 55.21 130.775 55.23C130.695 55.27 130.655 55.33 130.655 55.41C130.635 55.49 130.635 55.59 130.655 55.71L130.835 56.64C130.875 56.82 130.915 57.01 130.955 57.21C130.995 57.39 131.035 57.58 131.075 57.78L131.165 58.44C131.165 58.52 131.165 58.6 131.165 58.68C131.185 58.74 131.205 58.81 131.225 58.89C131.265 59.13 131.305 59.37 131.345 59.61C131.405 59.85 131.445 60.09 131.465 60.33L131.495 60.45C131.575 60.71 131.635 60.97 131.675 61.23C131.715 61.49 131.755 61.76 131.795 62.04C131.835 62.22 131.875 62.41 131.915 62.61C131.955 62.79 131.985 62.97 132.005 63.15C132.025 63.29 132.045 63.43 132.065 63.57C132.085 63.69 132.105 63.82 132.125 63.96V64.11C132.145 64.27 132.165 64.43 132.185 64.59C132.225 64.73 132.255 64.88 132.275 65.04L132.365 65.94C132.385 66.08 132.405 66.22 132.425 66.36C132.445 66.5 132.465 66.65 132.485 66.81C132.485 66.85 132.485 66.9 132.485 66.96C132.505 67 132.515 67.04 132.515 67.08C132.515 67.18 132.525 67.29 132.545 67.41C132.565 67.51 132.585 67.62 132.605 67.74C132.645 67.96 132.685 68.19 132.725 68.43C132.765 68.65 132.805 68.88 132.845 69.12C132.865 69.26 132.895 69.4 132.935 69.54C132.975 69.66 133.005 69.79 133.025 69.93C133.045 70.03 133.105 70.13 133.205 70.23C133.285 70.29 133.305 70.36 133.265 70.44C133.205 70.52 133.165 70.61 133.145 70.71C133.145 70.81 133.135 70.91 133.115 71.01C133.115 71.09 133.105 71.15 133.085 71.19C133.085 71.29 133.045 71.36 132.965 71.4C132.885 71.44 132.805 71.52 132.725 71.64C132.625 71.74 132.545 71.81 132.485 71.85C132.425 71.91 132.345 71.94 132.245 71.94C132.205 71.92 132.135 71.93 132.035 71.97ZM143.425 72.3C143.405 72.3 143.375 72.29 143.335 72.27C143.315 72.27 143.285 72.27 143.245 72.27C143.105 72.27 143.005 72.21 142.945 72.09C142.865 71.95 142.785 71.83 142.705 71.73C142.625 71.63 142.535 71.53 142.435 71.43C142.335 71.33 142.245 71.22 142.165 71.1C142.105 70.98 142.045 70.86 141.985 70.74C141.925 70.64 141.895 70.54 141.895 70.44V70.14C141.895 70.04 141.885 69.94 141.865 69.84C141.865 69.72 141.855 69.61 141.835 69.51C141.795 69.35 141.755 69.18 141.715 69C141.695 68.82 141.665 68.65 141.625 68.49C141.625 68.45 141.615 68.41 141.595 68.37C141.595 68.31 141.595 68.26 141.595 68.22C141.575 68 141.545 67.78 141.505 67.56C141.465 67.32 141.425 67.09 141.385 66.87C141.325 66.47 141.255 66.08 141.175 65.7C141.115 65.3 141.055 64.91 140.995 64.53L140.815 63.54C140.795 63.38 140.735 63.21 140.635 63.03C140.515 62.81 140.425 62.57 140.365 62.31C140.345 62.19 140.315 62.08 140.275 61.98C140.235 61.86 140.195 61.74 140.155 61.62C140.095 61.42 140.035 61.22 139.975 61.02C139.915 60.82 139.865 60.62 139.825 60.42C139.805 60.26 139.775 60.1 139.735 59.94C139.695 59.78 139.655 59.62 139.615 59.46L139.435 58.65C139.435 58.61 139.425 58.58 139.405 58.56C139.385 58.28 139.345 58 139.285 57.72C139.225 57.42 139.165 57.13 139.105 56.85C139.085 56.69 139.055 56.5 139.015 56.28C138.995 56.04 138.995 55.85 139.015 55.71V55.41C139.055 55.13 139.145 54.87 139.285 54.63C139.445 54.35 139.705 54.13 140.065 53.97C140.165 53.93 140.265 53.9 140.365 53.88C140.465 53.86 140.555 53.84 140.635 53.82C140.855 53.8 141.065 53.83 141.265 53.91C141.465 53.97 141.665 54.06 141.865 54.18C141.925 54.22 141.975 54.27 142.015 54.33C142.075 54.43 142.135 54.53 142.195 54.63C142.275 54.73 142.325 54.84 142.345 54.96C142.385 55.08 142.425 55.2 142.465 55.32C142.525 55.44 142.585 55.55 142.645 55.65C142.745 55.85 142.815 56.06 142.855 56.28C142.895 56.5 142.935 56.72 142.975 56.94C143.035 57.24 143.065 57.56 143.065 57.9V58.05C143.105 58.25 143.125 58.45 143.125 58.65C143.125 58.83 143.125 59.02 143.125 59.22C143.145 59.54 143.175 59.86 143.215 60.18C143.255 60.48 143.295 60.8 143.335 61.14L143.515 62.55V62.61C143.555 62.83 143.595 63.06 143.635 63.3C143.695 63.52 143.735 63.74 143.755 63.96C143.815 64.3 143.875 64.65 143.935 65.01C144.015 65.35 144.075 65.69 144.115 66.03L144.295 67.29C144.335 67.49 144.365 67.69 144.385 67.89C144.425 68.09 144.465 68.29 144.505 68.49C144.545 68.69 144.575 68.89 144.595 69.09C144.635 69.27 144.675 69.46 144.715 69.66C144.735 69.74 144.745 69.82 144.745 69.9C144.765 69.96 144.775 70.03 144.775 70.11C144.795 70.41 144.745 70.7 144.625 70.98C144.605 71.06 144.555 71.14 144.475 71.22C144.395 71.34 144.325 71.42 144.265 71.46C144.105 71.62 143.985 71.79 143.905 71.97C143.905 71.99 143.885 72.02 143.845 72.06C143.825 72.1 143.795 72.14 143.755 72.18C143.675 72.26 143.565 72.3 143.425 72.3Z" fill="#00081C"/>
</svg>
