<svg width="188" height="122" viewBox="0 0 188 122" fill="none" xmlns="http://www.w3.org/2000/svg">
<rect width="188" height="122" rx="12" fill="white"/>
<path d="M67.5707 72.54C66.3107 72.54 65.2007 72.32 64.2407 71.88C63.2807 71.44 62.5407 70.83 62.0207 70.05C61.5007 69.25 61.2407 68.33 61.2407 67.29C61.2407 66.41 61.4207 65.61 61.7807 64.89C62.1607 64.17 62.6607 63.6 63.2807 63.18C63.9207 62.76 64.6207 62.55 65.3807 62.55C66.0807 62.55 66.6707 62.73 67.1507 63.09C67.6307 63.43 67.9307 63.91 68.0507 64.53C67.0107 64.53 66.1807 64.81 65.5607 65.37C64.9407 65.91 64.6307 66.65 64.6307 67.59C64.6307 68.45 64.8907 69.14 65.4107 69.66C65.9307 70.18 66.6207 70.44 67.4807 70.44C68.5407 70.44 69.4107 70.09 70.0907 69.39C70.7907 68.67 71.1407 67.77 71.1407 66.69C71.1407 65.75 70.8807 64.86 70.3607 64.02C69.8407 63.18 69.0607 62.16 68.0207 60.96C66.9407 59.72 66.1207 58.66 65.5607 57.78C65.0207 56.88 64.7507 55.9 64.7507 54.84C64.7507 53.8 65.0407 52.87 65.6207 52.05C66.2007 51.21 67.0007 50.55 68.0207 50.07C69.0407 49.59 70.1907 49.35 71.4707 49.35C73.0907 49.35 74.3807 49.73 75.3407 50.49C76.3207 51.25 76.8107 52.27 76.8107 53.55C76.8107 54.39 76.6007 55.07 76.1807 55.59C75.7607 56.11 75.2107 56.37 74.5307 56.37C73.7707 56.37 73.1607 56.06 72.7007 55.44C73.0807 55.16 73.3807 54.79 73.6007 54.33C73.8207 53.87 73.9307 53.39 73.9307 52.89C73.9307 52.25 73.7407 51.74 73.3607 51.36C72.9807 50.98 72.4607 50.79 71.8007 50.79C71.0007 50.79 70.3407 51.08 69.8207 51.66C69.3207 52.22 69.0707 52.94 69.0707 53.82C69.0707 54.62 69.3007 55.37 69.7607 56.07C70.2207 56.75 70.9407 57.63 71.9207 58.71C72.7207 59.57 73.3607 60.31 73.8407 60.93C74.3407 61.55 74.7607 62.27 75.1007 63.09C75.4607 63.89 75.6407 64.76 75.6407 65.7C75.6407 66.98 75.2807 68.14 74.5607 69.18C73.8607 70.22 72.8907 71.04 71.6507 71.64C70.4307 72.24 69.0707 72.54 67.5707 72.54ZM80.3001 72.18C79.3401 72.18 78.5601 71.88 77.9601 71.28C77.3801 70.68 77.0901 69.78 77.0901 68.58C77.0901 68.08 77.1701 67.43 77.3301 66.63L80.5401 51.6L84.9801 51L81.5301 67.2C81.4501 67.5 81.4101 67.82 81.4101 68.16C81.4101 68.56 81.5001 68.85 81.6801 69.03C81.8801 69.19 82.2001 69.27 82.6401 69.27C83.2201 69.27 83.7601 69.03 84.2601 68.55C84.7601 68.05 85.1201 67.41 85.3401 66.63H86.6001C85.8601 68.79 84.9101 70.26 83.7501 71.04C82.5901 71.8 81.4401 72.18 80.3001 72.18ZM88.9281 72.18C87.7881 72.18 86.8381 71.79 86.0781 71.01C85.3181 70.23 84.9381 69.01 84.9381 67.35C84.9381 65.87 85.2281 64.32 85.8081 62.7C86.4081 61.06 87.2881 59.68 88.4481 58.56C89.6281 57.42 91.0281 56.85 92.6481 56.85C93.4681 56.85 94.0781 56.99 94.4781 57.27C94.8781 57.55 95.0781 57.92 95.0781 58.38V58.59L95.4081 57H99.7281L97.5681 67.2C97.4881 67.5 97.4481 67.82 97.4481 68.16C97.4481 69.02 97.8581 69.45 98.6781 69.45C99.2381 69.45 99.7181 69.19 100.118 68.67C100.538 68.15 100.868 67.47 101.108 66.63H102.368C101.628 68.79 100.708 70.26 99.6081 71.04C98.5281 71.8 97.4381 72.18 96.3381 72.18C95.4981 72.18 94.8181 71.95 94.2981 71.49C93.7981 71.01 93.4981 70.32 93.3981 69.42C92.8181 70.24 92.1681 70.91 91.4481 71.43C90.7481 71.93 89.9081 72.18 88.9281 72.18ZM90.8781 69.27C91.3781 69.27 91.8681 69.04 92.3481 68.58C92.8481 68.1 93.1881 67.45 93.3681 66.63L94.8081 59.85C94.8081 59.59 94.7081 59.34 94.5081 59.1C94.3081 58.84 93.9981 58.71 93.5781 58.71C92.7781 58.71 92.0581 59.18 91.4181 60.12C90.7781 61.04 90.2781 62.16 89.9181 63.48C89.5581 64.78 89.3781 65.93 89.3781 66.93C89.3781 67.93 89.5181 68.57 89.7981 68.85C90.0981 69.13 90.4581 69.27 90.8781 69.27ZM105.109 72.18C103.749 72.18 102.709 71.85 101.989 71.19C101.269 70.51 100.909 69.56 100.909 68.34C100.909 67.74 100.979 67.17 101.119 66.63L104.329 51.6L108.769 51L107.329 57.75C107.889 57.41 108.349 57.19 108.709 57.09C109.069 56.97 109.429 56.91 109.789 56.91C112.149 56.91 113.329 58.62 113.329 62.04C113.329 63.42 113.059 64.9 112.519 66.48C111.999 68.04 111.119 69.38 109.879 70.5C108.659 71.62 107.069 72.18 105.109 72.18ZM106.789 69.27C107.409 69.27 107.989 68.89 108.529 68.13C109.069 67.35 109.499 66.39 109.819 65.25C110.139 64.09 110.299 62.98 110.299 61.92C110.299 61.12 110.159 60.44 109.879 59.88C109.599 59.32 109.209 59.04 108.709 59.04C108.409 59.04 108.069 59.09 107.689 59.19C107.329 59.27 107.079 59.4 106.939 59.58L105.289 67.2C105.229 67.44 105.199 67.67 105.199 67.89C105.199 68.81 105.729 69.27 106.789 69.27ZM118.439 72.18C117.079 72.18 116.039 71.85 115.319 71.19C114.599 70.51 114.239 69.56 114.239 68.34C114.239 67.74 114.309 67.17 114.449 66.63L117.659 51.6L122.099 51L120.659 57.75C121.219 57.41 121.679 57.19 122.039 57.09C122.399 56.97 122.759 56.91 123.119 56.91C125.479 56.91 126.659 58.62 126.659 62.04C126.659 63.42 126.389 64.9 125.849 66.48C125.329 68.04 124.449 69.38 123.209 70.5C121.989 71.62 120.399 72.18 118.439 72.18ZM120.119 69.27C120.739 69.27 121.319 68.89 121.859 68.13C122.399 67.35 122.829 66.39 123.149 65.25C123.469 64.09 123.629 62.98 123.629 61.92C123.629 61.12 123.489 60.44 123.209 59.88C122.929 59.32 122.539 59.04 122.039 59.04C121.739 59.04 121.399 59.09 121.019 59.19C120.659 59.27 120.409 59.4 120.269 59.58L118.619 67.2C118.559 67.44 118.529 67.67 118.529 67.89C118.529 68.81 119.059 69.27 120.119 69.27Z" fill="#00081C"/>
</svg>
