<svg width="188" height="122" viewBox="0 0 188 122" fill="none" xmlns="http://www.w3.org/2000/svg">
<rect width="188" height="122" rx="12" fill="white"/>
<path d="M40.5645 54.293C39.6758 55.2402 38.9678 55.7139 38.4404 55.7139C37.8545 55.7139 37.332 55.3379 36.873 54.5859C36.4238 53.8438 36.1992 53.0576 36.1992 52.2275C36.1992 51.3975 36.3945 50.6748 36.7852 50.0596C37.1855 49.4346 37.7129 48.8828 38.3672 48.4043C39.0215 47.9258 39.7686 47.5107 40.6084 47.1592C41.458 46.8076 42.3369 46.5195 43.2451 46.2949C45.042 45.8359 46.5508 45.6064 47.7715 45.6064C49.002 45.6064 50.0322 45.6602 50.8623 45.7676C51.6924 45.8652 52.4932 46.0312 53.2646 46.2656C54.0361 46.5 54.7637 46.8027 55.4473 47.1738C56.1309 47.5352 56.7314 47.9746 57.249 48.4922C58.3428 49.6152 58.8896 51.0166 58.8896 52.6963C58.8896 54.4346 58.3428 56.2168 57.249 58.043C56.1943 59.8105 54.8271 61.2754 53.1475 62.4375C51.3604 63.6582 49.5586 64.2686 47.7422 64.2686C46.8535 64.2686 46.0723 64.0488 45.3984 63.6094C45.0762 63.3848 44.9102 63.126 44.9004 62.833C44.8906 62.5303 44.8955 62.2568 44.915 62.0127C44.9932 61.0068 45.2129 59.8252 45.5742 58.4678C46.2871 58.7607 47.0488 58.9072 47.8594 58.9072C48.6699 58.9072 49.3438 58.8242 49.8809 58.6582C50.418 58.4824 50.9551 58.2383 51.4922 57.9258C52.0391 57.6133 52.5615 57.2422 53.0596 56.8125C53.5674 56.3828 54.0166 55.9043 54.4072 55.377C55.2568 54.2246 55.6816 53.1309 55.6816 52.0957C55.6816 51.0605 55.4424 50.2451 54.9639 49.6494C54.4951 49.0439 53.8896 48.5605 53.1475 48.1992C51.751 47.5059 50.0273 47.1592 47.9766 47.1592C46.209 47.1592 44.4023 47.5156 42.5566 48.2285C41.2676 48.7363 40.3398 49.3809 39.7734 50.1621C39.4805 50.5723 39.334 51.0215 39.334 51.5098C39.334 52.6133 39.7441 53.541 40.5645 54.293ZM35.0859 68.0332C35.584 67.5059 36.1699 66.5928 36.8438 65.2939C37.5176 63.9854 38.0938 62.8525 38.5723 61.8955C39.0508 60.9385 39.5488 59.957 40.0664 58.9512C40.5938 57.9453 41.1309 56.9492 41.6777 55.9629C42.2344 54.9668 42.7959 54.0293 43.3623 53.1504C44.6221 51.2168 45.7744 49.8594 46.8193 49.0781C46.9365 48.9805 47.0635 48.9316 47.2002 48.9316C47.3467 48.9316 47.4932 48.9561 47.6396 49.0049C47.9619 49.1123 48.2451 49.2783 48.4893 49.5029C47.2686 50.4795 46.0088 53.043 44.71 57.1934C44.3389 58.3555 43.9775 59.5176 43.626 60.6797C43.2744 61.832 42.9326 62.9453 42.6006 64.0195C42.2783 65.0938 41.9561 66.041 41.6338 66.8613C40.9404 68.668 40.3203 69.5713 39.7734 69.5713C38.0449 69.5713 36.6924 69.2197 35.7158 68.5166C35.4717 68.3408 35.2617 68.1797 35.0859 68.0332ZM68.9092 48.6387C69.9932 48.6387 70.5352 49.5518 70.5352 51.3779C70.5352 53.79 69.0703 56.3389 66.1406 59.0244C65.0273 60.0498 63.8555 60.9336 62.625 61.6758C62.752 63.1797 63.3037 64.0391 64.2803 64.2539C64.5928 64.3223 64.959 64.3564 65.3789 64.3564C65.8086 64.3564 66.2676 64.3027 66.7559 64.1953C67.2539 64.0781 67.7471 63.8926 68.2354 63.6387C69.3193 63.082 70.2227 62.252 70.9453 61.1484C71.3848 61.1191 71.6045 61.2998 71.6045 61.6904C71.6045 61.8467 71.4971 62.1738 71.2822 62.6719C71.0771 63.1699 70.6914 63.8193 70.125 64.6201C69.5586 65.4111 68.8799 66.1289 68.0889 66.7734C66.2725 68.2578 64.2559 69 62.0391 69C59.4805 69 57.9326 67.9062 57.3955 65.7188C57.2197 65.0352 57.1318 64.2734 57.1318 63.4336C57.1318 62.584 57.2588 61.7295 57.5127 60.8701C57.7666 60.0107 58.1084 59.1611 58.5381 58.3213C58.9678 57.4717 59.4658 56.6416 60.0322 55.8311C60.6084 55.0205 61.2139 54.2588 61.8486 53.5459C62.4932 52.833 63.1475 52.1787 63.8115 51.583C64.4756 50.9775 65.1201 50.4551 65.7451 50.0156C67.083 49.0977 68.1377 48.6387 68.9092 48.6387ZM62.625 59.9033C64.2656 58.8779 65.6475 57.6475 66.7705 56.2119C67.9131 54.7568 68.4844 53.4727 68.4844 52.3594C68.4844 51.8027 68.3672 51.4023 68.1328 51.1582C68.0547 51.0703 67.918 51.0264 67.7227 51.0264C67.5273 51.0264 67.2539 51.1533 66.9023 51.4072C66.5508 51.6514 66.1895 51.9883 65.8184 52.418C65.4473 52.8477 65.0811 53.3555 64.7197 53.9414C64.3682 54.5176 64.0459 55.1328 63.7529 55.7871C63.1084 57.2617 62.7324 58.6338 62.625 59.9033ZM77.7275 66.6562C76.3896 68.2188 74.7588 69 72.835 69C71.6143 69 70.6377 68.6338 69.9053 67.9014C69.1826 67.1787 68.8213 66.2266 68.8213 65.0449C68.8213 63.5508 69.4072 62.1006 70.5791 60.6943C71.7119 59.3271 73.1963 58.2139 75.0322 57.3545C76.9365 56.4658 78.9043 56.0215 80.9355 56.0215C81.707 56.0215 82.2588 56.1436 82.5908 56.3877C82.8545 56.0752 83.0889 55.8945 83.2939 55.8457C83.5088 55.7871 83.6748 55.7578 83.792 55.7578C84.1631 55.7578 84.5586 55.8115 84.9785 55.9189C84.9395 56.0459 84.8564 56.2656 84.7295 56.5781C84.6025 56.8809 84.4609 57.2422 84.3047 57.6621C84.1484 58.082 83.9824 58.541 83.8066 59.0391C83.1719 60.8164 82.8545 62.1494 82.8545 63.0381C82.8545 63.917 83.1328 64.3564 83.6895 64.3564C84.4121 64.3564 85.2178 64.0293 86.1064 63.375C86.8975 62.7793 87.5908 62.0371 88.1865 61.1484C88.626 61.1191 88.8457 61.2998 88.8457 61.6904C88.8457 62.0225 88.6406 62.5303 88.2305 63.2139C87.8301 63.8975 87.4395 64.4883 87.0586 64.9863C86.6777 65.4844 86.2529 65.9727 85.7842 66.4512C85.3154 66.9297 84.8174 67.3594 84.29 67.7402C83.1084 68.5801 81.9561 69 80.833 69C79.4072 69 78.4502 68.5703 77.9619 67.7109C77.8057 67.4473 77.7275 67.2178 77.7275 67.0225C77.7275 66.8174 77.7275 66.6953 77.7275 66.6562ZM73.5381 62.6572C73.5381 63.79 74.0117 64.3564 74.959 64.3564C76.0039 64.3564 77.2344 63.5117 78.6504 61.8223C79.4023 60.9238 80.0566 60.0645 80.6133 59.2441C81.1797 58.4238 81.6094 57.7988 81.9023 57.3691C79.4609 57.3887 77.4346 57.9453 75.8232 59.0391C74.2998 60.0742 73.5381 61.2803 73.5381 62.6572ZM95.1592 66.2021C93.4404 67.8135 91.8193 68.6191 90.2959 68.6191C89.2998 68.6191 88.4648 68.3164 87.791 67.7109C87.0684 67.0664 86.707 66.1533 86.707 64.9717C86.707 63.6143 87.1807 62.1885 88.1279 60.6943C88.9287 59.4346 89.9053 58.3262 91.0576 57.3691C92.1318 56.4805 92.9375 56.0361 93.4746 56.0361C93.8164 56.0361 94.0947 56.1826 94.3096 56.4756C93.6553 56.9736 93.0791 57.623 92.5811 58.4238C91.6436 59.9473 91.1748 61.0947 91.1748 61.8662C91.1748 63.4775 91.6143 64.2832 92.4932 64.2832C93.4014 64.2832 94.4805 63.6484 95.7305 62.3789C97.0098 61.0801 97.8984 59.6348 98.3965 58.043C98.4746 57.5156 98.5381 56.915 98.5869 56.2412C99.4072 55.9385 99.9883 55.9922 100.33 56.4023C100.457 56.5586 100.521 56.8174 100.521 57.1787C100.521 57.5303 100.477 57.9893 100.389 58.5557C100.311 59.1221 100.179 59.7617 99.9932 60.4746C99.6221 61.9883 99.0947 63.5703 98.4111 65.2207C99.8076 64.8398 101.209 63.9316 102.615 62.4961C103.045 62.0566 103.411 61.6074 103.714 61.1484C104.153 61.1191 104.373 61.2998 104.373 61.6904C104.373 61.8467 104.256 62.208 104.021 62.7744C103.787 63.3311 103.401 63.9805 102.864 64.7227C102.337 65.4551 101.751 66.0996 101.106 66.6562C99.7881 67.7891 98.3281 68.5117 96.7266 68.8242C94.8418 72.2812 92.874 74.5566 90.8232 75.6504C90.0811 76.0508 89.373 76.251 88.6992 76.251C88.0254 76.251 87.4004 76.1533 86.8242 75.958C86.248 75.7627 85.7305 75.4941 85.2715 75.1523C84.2363 74.3613 83.7188 73.4189 83.7188 72.3252C83.7188 71.9053 83.8604 71.4707 84.1436 71.0215C84.6709 70.1816 85.2373 69.6445 85.8428 69.4102C86.9756 70.1719 87.9424 70.6455 88.7432 70.8311C89.0947 70.9092 89.4658 70.9482 89.8564 70.9482C90.2471 70.9482 90.6572 70.8311 91.0869 70.5967C91.5264 70.3623 91.9756 70.0352 92.4346 69.6152C93.3916 68.7266 94.2998 67.5889 95.1592 66.2021ZM102.659 64.0342C102.034 63.2529 101.722 62.5645 101.722 61.9688C101.722 61.6953 101.81 61.4756 101.985 61.3096C102.171 61.1338 102.405 60.9629 102.688 60.7969C103.206 60.4844 103.885 60.167 104.725 59.8447C106.395 56.8271 108.221 54.2051 110.203 51.9785C112.234 49.6934 113.821 48.5508 114.964 48.5508C115.462 48.5508 115.877 48.7852 116.209 49.2539C116.541 49.7129 116.707 50.2646 116.707 50.9092C116.707 51.5537 116.604 52.1641 116.399 52.7402C116.194 53.3066 115.911 53.8633 115.55 54.4102C115.188 54.9473 114.754 55.4697 114.246 55.9775C113.748 56.4756 113.201 56.9297 112.605 57.3398C111.365 58.209 110.062 58.8193 108.694 59.1709C109.788 59.5615 110.472 60.7285 110.745 62.6719C110.813 63.209 110.848 63.6436 110.848 63.9756C110.848 64.2979 110.848 64.4932 110.848 64.5615C111.092 64.6299 111.399 64.6641 111.771 64.6641C112.151 64.6641 112.576 64.5664 113.045 64.3711C113.514 64.1758 113.968 63.917 114.407 63.5947C115.228 62.9795 115.975 62.1641 116.648 61.1484C117.088 61.1191 117.308 61.2998 117.308 61.6904C117.308 61.9736 117.122 62.4668 116.751 63.1699C116.38 63.873 116.033 64.4639 115.711 64.9424C115.398 65.4111 115.052 65.8701 114.671 66.3193C114.3 66.7686 113.909 67.1689 113.499 67.5205C112.581 68.292 111.688 68.6777 110.818 68.6777C110.672 68.6777 110.506 68.6631 110.32 68.6338C109.812 70.792 109.036 72.5742 107.991 73.9805C106.81 75.5527 105.496 76.3389 104.051 76.3389C102.977 76.3389 102.171 75.7676 101.634 74.625C101.165 73.6289 100.931 72.291 100.931 70.6113C100.931 68.9316 101.507 66.7393 102.659 64.0342ZM114.671 51.5244C114.671 50.9678 114.505 50.6895 114.173 50.6895C113.851 50.6895 113.494 50.8604 113.104 51.2021C112.713 51.5439 112.308 52.0176 111.888 52.623C111.009 53.873 110.149 55.4746 109.31 57.4277C110.687 57.0176 111.922 56.2168 113.016 55.0254C114.119 53.8242 114.671 52.6572 114.671 51.5244ZM108.094 60.6504L107.625 62.1152C108.016 62.7012 108.519 63.2334 109.134 63.7119C109.085 61.9834 108.738 60.9629 108.094 60.6504ZM106.585 67.125C106.497 67.9062 106.453 68.6582 106.453 69.3809C106.453 70.1035 106.482 70.6748 106.541 71.0947C106.609 71.5244 106.761 71.7393 106.995 71.7393C107.298 71.7393 107.61 71.3877 107.933 70.6846C108.216 70.0986 108.475 69.2539 108.709 68.1504C108.025 67.877 107.317 67.5352 106.585 67.125ZM128.147 62.5986C128.147 63.7705 128.562 64.3564 129.393 64.3564C130.115 64.3564 130.921 64.0293 131.81 63.375C132.601 62.7793 133.294 62.0371 133.89 61.1484C134.329 61.1191 134.549 61.2998 134.549 61.6904C134.549 62.0225 134.344 62.5303 133.934 63.2139C133.533 63.8975 133.143 64.4883 132.762 64.9863C132.381 65.4844 131.956 65.9727 131.487 66.4512C131.019 66.9297 130.521 67.3594 129.993 67.7402C128.812 68.5801 127.659 69 126.536 69C124.837 69 123.704 68.3945 123.138 67.1836C122.063 67.9844 120.931 68.5361 119.739 68.8389C119.329 68.9463 118.87 69 118.362 69C117.864 69 117.366 68.9121 116.868 68.7363C116.38 68.5508 115.96 68.2871 115.608 67.9453C114.886 67.2422 114.524 66.2754 114.524 65.0449C114.524 63.668 114.993 62.2227 115.931 60.709C116.712 59.4492 117.708 58.3359 118.919 57.3691C120.032 56.4902 120.931 56.0508 121.614 56.0508C121.985 56.0508 122.405 56.3438 122.874 56.9297C121.917 57.6035 121.092 58.4629 120.398 59.5078C119.627 60.6699 119.241 61.7197 119.241 62.6572C119.241 63.79 119.715 64.3564 120.662 64.3564C121.6 64.3564 122.337 64.1953 122.874 63.873C123.255 62.3496 124.109 60.7773 125.438 59.1562C126.756 57.5449 127.962 56.5342 129.056 56.124C129.407 55.9971 129.886 56.1631 130.491 56.6221C130.638 56.7295 130.75 56.8223 130.828 56.9004C129.998 57.6133 129.324 58.5801 128.807 59.8008C128.367 60.8359 128.147 61.7686 128.147 62.5986ZM143.733 48.6387C144.817 48.6387 145.359 49.5518 145.359 51.3779C145.359 53.79 143.895 56.3389 140.965 59.0244C139.852 60.0498 138.68 60.9336 137.449 61.6758C137.576 63.1797 138.128 64.0391 139.104 64.2539C139.417 64.3223 139.783 64.3564 140.203 64.3564C140.633 64.3564 141.092 64.3027 141.58 64.1953C142.078 64.0781 142.571 63.8926 143.06 63.6387C144.144 63.082 145.047 62.252 145.77 61.1484C146.209 61.1191 146.429 61.2998 146.429 61.6904C146.429 61.8467 146.321 62.1738 146.106 62.6719C145.901 63.1699 145.516 63.8193 144.949 64.6201C144.383 65.4111 143.704 66.1289 142.913 66.7734C141.097 68.2578 139.08 69 136.863 69C134.305 69 132.757 67.9062 132.22 65.7188C132.044 65.0352 131.956 64.2734 131.956 63.4336C131.956 62.584 132.083 61.7295 132.337 60.8701C132.591 60.0107 132.933 59.1611 133.362 58.3213C133.792 57.4717 134.29 56.6416 134.856 55.8311C135.433 55.0205 136.038 54.2588 136.673 53.5459C137.317 52.833 137.972 52.1787 138.636 51.583C139.3 50.9775 139.944 50.4551 140.569 50.0156C141.907 49.0977 142.962 48.6387 143.733 48.6387ZM137.449 59.9033C139.09 58.8779 140.472 57.6475 141.595 56.2119C142.737 54.7568 143.309 53.4727 143.309 52.3594C143.309 51.8027 143.191 51.4023 142.957 51.1582C142.879 51.0703 142.742 51.0264 142.547 51.0264C142.352 51.0264 142.078 51.1533 141.727 51.4072C141.375 51.6514 141.014 51.9883 140.643 52.418C140.271 52.8477 139.905 53.3555 139.544 53.9414C139.192 54.5176 138.87 55.1328 138.577 55.7871C137.933 57.2617 137.557 58.6338 137.449 59.9033ZM155.599 48.6387C156.683 48.6387 157.225 49.5518 157.225 51.3779C157.225 53.79 155.76 56.3389 152.83 59.0244C151.717 60.0498 150.545 60.9336 149.314 61.6758C149.441 63.1797 149.993 64.0391 150.97 64.2539C151.282 64.3223 151.648 64.3564 152.068 64.3564C152.498 64.3564 152.957 64.3027 153.445 64.1953C153.943 64.0781 154.437 63.8926 154.925 63.6387C156.009 63.082 156.912 62.252 157.635 61.1484C158.074 61.1191 158.294 61.2998 158.294 61.6904C158.294 61.8467 158.187 62.1738 157.972 62.6719C157.767 63.1699 157.381 63.8193 156.814 64.6201C156.248 65.4111 155.569 66.1289 154.778 66.7734C152.962 68.2578 150.945 69 148.729 69C146.17 69 144.622 67.9062 144.085 65.7188C143.909 65.0352 143.821 64.2734 143.821 63.4336C143.821 62.584 143.948 61.7295 144.202 60.8701C144.456 60.0107 144.798 59.1611 145.228 58.3213C145.657 57.4717 146.155 56.6416 146.722 55.8311C147.298 55.0205 147.903 54.2588 148.538 53.5459C149.183 52.833 149.837 52.1787 150.501 51.583C151.165 50.9775 151.81 50.4551 152.435 50.0156C153.772 49.0977 154.827 48.6387 155.599 48.6387ZM149.314 59.9033C150.955 58.8779 152.337 57.6475 153.46 56.2119C154.603 54.7568 155.174 53.4727 155.174 52.3594C155.174 51.8027 155.057 51.4023 154.822 51.1582C154.744 51.0703 154.607 51.0264 154.412 51.0264C154.217 51.0264 153.943 51.1533 153.592 51.4072C153.24 51.6514 152.879 51.9883 152.508 52.418C152.137 52.8477 151.771 53.3555 151.409 53.9414C151.058 54.5176 150.735 55.1328 150.442 55.7871C149.798 57.2617 149.422 58.6338 149.314 59.9033Z" fill="#00081C"/>
</svg>
