<svg width="188" height="122" viewBox="0 0 188 122" fill="none" xmlns="http://www.w3.org/2000/svg">
<g clip-path="url(#clip0_246_222)">
<rect width="188" height="122" rx="8" fill="white"/>
<mask id="path-2-outside-1_246_222" maskUnits="userSpaceOnUse" x="-37" y="36" width="276" height="51" fill="black">
<rect fill="white" x="-37" y="36" width="276" height="51"/>
<path d="M-35.3466 38.4545H-25.0284L-11.2102 72.1818H-10.6648L3.15341 38.4545H13.4716V85H5.38068V53.0227H4.94886L-7.91477 84.8636H-13.9602L-26.8239 52.9545H-27.2557V85H-35.3466V38.4545ZM64.2443 61.7273C64.2443 66.7424 63.3049 71.0379 61.4261 74.6136C59.5625 78.1742 57.017 80.9015 53.7898 82.7955C50.5777 84.6894 46.9337 85.6364 42.858 85.6364C38.7822 85.6364 35.1307 84.6894 31.9034 82.7955C28.6913 80.8864 26.1458 78.1515 24.267 74.5909C22.4034 71.0152 21.4716 66.7273 21.4716 61.7273C21.4716 56.7121 22.4034 52.4242 24.267 48.8636C26.1458 45.2879 28.6913 42.553 31.9034 40.6591C35.1307 38.7651 38.7822 37.8182 42.858 37.8182C46.9337 37.8182 50.5777 38.7651 53.7898 40.6591C57.017 42.553 59.5625 45.2879 61.4261 48.8636C63.3049 52.4242 64.2443 56.7121 64.2443 61.7273ZM55.767 61.7273C55.767 58.197 55.214 55.2197 54.108 52.7955C53.017 50.3561 51.5019 48.5152 49.5625 47.2727C47.6231 46.0152 45.3883 45.3864 42.858 45.3864C40.3277 45.3864 38.0928 46.0152 36.1534 47.2727C34.214 48.5152 32.6913 50.3561 31.5852 52.7955C30.4943 55.2197 29.9489 58.197 29.9489 61.7273C29.9489 65.2576 30.4943 68.2424 31.5852 70.6818C32.6913 73.1061 34.214 74.947 36.1534 76.2045C38.0928 77.447 40.3277 78.0682 42.858 78.0682C45.3883 78.0682 47.6231 77.447 49.5625 76.2045C51.5019 74.947 53.017 73.1061 54.108 70.6818C55.214 68.2424 55.767 65.2576 55.767 61.7273ZM87.9886 85H72.2159V38.4545H88.3068C92.928 38.4545 96.8977 39.3864 100.216 41.25C103.549 43.0985 106.11 45.7576 107.898 49.2273C109.686 52.697 110.58 56.8485 110.58 61.6818C110.58 66.5303 109.678 70.697 107.875 74.1818C106.087 77.6667 103.504 80.3409 100.125 82.2045C96.7614 84.0682 92.7159 85 87.9886 85ZM80.6477 77.7045H87.5795C90.822 77.7045 93.5265 77.1136 95.6932 75.9318C97.8598 74.7348 99.4886 72.9545 100.58 70.5909C101.67 68.2121 102.216 65.2424 102.216 61.6818C102.216 58.1212 101.67 55.1667 100.58 52.8182C99.4886 50.4545 97.875 48.6894 95.7386 47.5227C93.6174 46.3409 90.9811 45.75 87.8295 45.75H80.6477V77.7045ZM118.591 85V38.4545H148.864V45.5227H127.023V58.1591H147.295V65.2273H127.023V77.9318H149.045V85H118.591ZM157.466 85V38.4545H174.92C178.496 38.4545 181.496 39.0758 183.92 40.3182C186.36 41.5606 188.201 43.303 189.443 45.5455C190.701 47.7727 191.33 50.3712 191.33 53.3409C191.33 56.3258 190.693 58.9167 189.42 61.1136C188.163 63.2955 186.307 64.9848 183.852 66.1818C181.398 67.3636 178.383 67.9545 174.807 67.9545H162.375V60.9545H173.67C175.761 60.9545 177.473 60.6667 178.807 60.0909C180.14 59.5 181.125 58.6439 181.761 57.5227C182.413 56.3864 182.739 54.9924 182.739 53.3409C182.739 51.6894 182.413 50.2803 181.761 49.1136C181.11 47.9318 180.117 47.0379 178.784 46.4318C177.451 45.8106 175.731 45.5 173.625 45.5H165.898V85H157.466ZM181.511 63.9091L193.034 85H183.625L172.307 63.9091H181.511ZM237.341 38.4545V85H229.841L207.909 53.2955H207.523V85H199.091V38.4545H206.636L228.545 70.1818H228.955V38.4545H237.341Z"/>
</mask>
<path d="M-35.3466 38.4545V37.4545H-36.3466V38.4545H-35.3466ZM-25.0284 38.4545L-24.1031 38.0754L-24.3574 37.4545H-25.0284V38.4545ZM-11.2102 72.1818L-12.1356 72.5609L-11.8812 73.1818H-11.2102V72.1818ZM-10.6648 72.1818V73.1818H-9.9938L-9.73942 72.5609L-10.6648 72.1818ZM3.15341 38.4545V37.4545H2.48244L2.22807 38.0754L3.15341 38.4545ZM13.4716 38.4545H14.4716V37.4545H13.4716V38.4545ZM13.4716 85V86H14.4716V85H13.4716ZM5.38068 85H4.38068V86H5.38068V85ZM5.38068 53.0227H6.38068V52.0227H5.38068V53.0227ZM4.94886 53.0227V52.0227H4.27434L4.02167 52.6481L4.94886 53.0227ZM-7.91477 84.8636V85.8636H-7.24025L-6.98758 85.2382L-7.91477 84.8636ZM-13.9602 84.8636L-14.8877 85.2375L-14.6353 85.8636H-13.9602V84.8636ZM-26.8239 52.9545L-25.8964 52.5807L-26.1488 51.9545H-26.8239V52.9545ZM-27.2557 52.9545V51.9545H-28.2557V52.9545H-27.2557ZM-27.2557 85V86H-26.2557V85H-27.2557ZM-35.3466 85H-36.3466V86H-35.3466V85ZM-35.3466 38.4545V39.4545H-25.0284V38.4545V37.4545H-35.3466V38.4545ZM-25.0284 38.4545L-25.9538 38.8337L-12.1356 72.5609L-11.2102 72.1818L-10.2849 71.8027L-24.1031 38.0754L-25.0284 38.4545ZM-11.2102 72.1818V73.1818H-10.6648V72.1818V71.1818H-11.2102V72.1818ZM-10.6648 72.1818L-9.73942 72.5609L4.07876 38.8337L3.15341 38.4545L2.22807 38.0754L-11.5901 71.8027L-10.6648 72.1818ZM3.15341 38.4545V39.4545H13.4716V38.4545V37.4545H3.15341V38.4545ZM13.4716 38.4545H12.4716V85H13.4716H14.4716V38.4545H13.4716ZM13.4716 85V84H5.38068V85V86H13.4716V85ZM5.38068 85H6.38068V53.0227H5.38068H4.38068V85H5.38068ZM5.38068 53.0227V52.0227H4.94886V53.0227V54.0227H5.38068V53.0227ZM4.94886 53.0227L4.02167 52.6481L-8.84196 84.4891L-7.91477 84.8636L-6.98758 85.2382L5.87606 53.3973L4.94886 53.0227ZM-7.91477 84.8636V83.8636H-13.9602V84.8636V85.8636H-7.91477V84.8636ZM-13.9602 84.8636L-13.0328 84.4897L-25.8964 52.5807L-26.8239 52.9545L-27.7513 53.3284L-14.8877 85.2375L-13.9602 84.8636ZM-26.8239 52.9545V51.9545H-27.2557V52.9545V53.9545H-26.8239V52.9545ZM-27.2557 52.9545H-28.2557V85H-27.2557H-26.2557V52.9545H-27.2557ZM-27.2557 85V84H-35.3466V85V86H-27.2557V85ZM-35.3466 85H-34.3466V38.4545H-35.3466H-36.3466V85H-35.3466ZM61.4261 74.6136L60.5409 74.1485L60.5402 74.1499L61.4261 74.6136ZM53.7898 82.7955L53.2836 81.933L53.2819 81.934L53.7898 82.7955ZM31.9034 82.7955L31.3925 83.6551L31.3973 83.6579L31.9034 82.7955ZM24.267 74.5909L23.3802 75.0531L23.3826 75.0576L24.267 74.5909ZM24.267 48.8636L23.3818 48.3985L23.3811 48.3999L24.267 48.8636ZM31.9034 40.6591L31.3973 39.7966L31.3955 39.7977L31.9034 40.6591ZM53.7898 40.6591L53.2819 41.5205L53.2836 41.5215L53.7898 40.6591ZM61.4261 48.8636L60.5393 49.3258L60.5417 49.3303L61.4261 48.8636ZM54.108 52.7955L53.1951 53.2037L53.1982 53.2105L54.108 52.7955ZM49.5625 47.2727L49.0184 48.1118L49.0231 48.1148L49.5625 47.2727ZM36.1534 47.2727L36.6928 48.1148L36.6975 48.1118L36.1534 47.2727ZM31.5852 52.7955L30.6745 52.3825L30.6733 52.3851L31.5852 52.7955ZM31.5852 70.6818L30.6723 71.0901L30.6754 71.0969L31.5852 70.6818ZM36.1534 76.2045L35.6093 77.0436L35.614 77.0466L36.1534 76.2045ZM49.5625 76.2045L50.1019 77.0466L50.1066 77.0436L49.5625 76.2045ZM54.108 70.6818L53.1972 70.2689L53.196 70.2715L54.108 70.6818ZM64.2443 61.7273H63.2443C63.2443 66.6188 62.3282 70.7468 60.5409 74.1485L61.4261 74.6136L62.3114 75.0788C64.2816 71.329 65.2443 66.866 65.2443 61.7273H64.2443ZM61.4261 74.6136L60.5402 74.1499C58.7566 77.5575 56.3375 80.1408 53.2836 81.933L53.7898 82.7955L54.2959 83.6579C57.6966 81.6622 60.3684 78.791 62.3121 75.0774L61.4261 74.6136ZM53.7898 82.7955L53.2819 81.934C50.2377 83.7289 46.7722 84.6364 42.858 84.6364V85.6364V86.6364C47.0952 86.6364 50.9176 85.6499 54.2977 83.6569L53.7898 82.7955ZM42.858 85.6364V84.6364C38.9438 84.6364 35.4698 83.7289 32.4095 81.933L31.9034 82.7955L31.3973 83.6579C34.7915 85.6499 38.6206 86.6364 42.858 86.6364V85.6364ZM31.9034 82.7955L32.4143 81.9358C29.3728 80.1281 26.9512 77.5351 25.1515 74.1242L24.267 74.5909L23.3826 75.0576C25.3404 78.768 28.0098 81.6446 31.3925 83.6551L31.9034 82.7955ZM24.267 74.5909L25.1538 74.1287C23.3803 70.7259 22.4716 66.6043 22.4716 61.7273H21.4716H20.4716C20.4716 66.8503 21.4265 71.3044 23.3803 75.0531L24.267 74.5909ZM21.4716 61.7273H22.4716C22.4716 56.8344 23.3806 52.7137 25.153 49.3274L24.267 48.8636L23.3811 48.3999C21.4262 52.1348 20.4716 56.5899 20.4716 61.7273H21.4716ZM24.267 48.8636L25.1523 49.3288C26.9521 45.9034 29.3727 43.3122 32.4113 41.5205L31.9034 40.6591L31.3955 39.7977C28.0099 41.7939 25.3396 44.6724 23.3818 48.3985L24.267 48.8636ZM31.9034 40.6591L32.4095 41.5215C35.4698 39.7256 38.9438 38.8182 42.858 38.8182V37.8182V36.8182C38.6206 36.8182 34.7915 37.8047 31.3973 39.7966L31.9034 40.6591ZM42.858 37.8182V38.8182C46.7722 38.8182 50.2377 39.7256 53.2819 41.5205L53.7898 40.6591L54.2977 39.7977C50.9176 37.8047 47.0952 36.8182 42.858 36.8182V37.8182ZM53.7898 40.6591L53.2836 41.5215C56.3364 43.313 58.7555 45.9031 60.5394 49.3258L61.4261 48.8636L62.3129 48.4015C60.3695 44.6726 57.6977 41.793 54.2959 39.7966L53.7898 40.6591ZM61.4261 48.8636L60.5417 49.3303C62.3282 52.716 63.2443 56.8355 63.2443 61.7273H64.2443H65.2443C65.2443 56.5887 64.2817 52.1325 62.3106 48.397L61.4261 48.8636ZM55.767 61.7273H56.767C56.767 58.0981 56.1992 54.97 55.0177 52.3804L54.108 52.7955L53.1982 53.2105C54.2288 55.4694 54.767 58.2959 54.767 61.7273H55.767ZM54.108 52.7955L55.0208 52.3872C53.8634 49.7991 52.2304 47.7942 50.1019 46.4307L49.5625 47.2727L49.0231 48.1148C50.7734 49.2361 52.1707 50.913 53.1951 53.2037L54.108 52.7955ZM49.5625 47.2727L50.1066 46.4337C47.9899 45.0612 45.5623 44.3864 42.858 44.3864V45.3864V46.3864C45.2142 46.3864 47.2563 46.9691 49.0184 48.1118L49.5625 47.2727ZM42.858 45.3864V44.3864C40.1536 44.3864 37.726 45.0612 35.6093 46.4337L36.1534 47.2727L36.6975 48.1118C38.4596 46.9691 40.5017 46.3864 42.858 46.3864V45.3864ZM36.1534 47.2727L35.614 46.4307C33.4869 47.7934 31.847 49.7965 30.6745 52.3825L31.5852 52.7955L32.496 53.2084C33.5356 50.9156 34.9412 49.2369 36.6928 48.1148L36.1534 47.2727ZM31.5852 52.7955L30.6733 52.3851C29.5086 54.9733 28.9489 58.0996 28.9489 61.7273H29.9489H30.9489C30.9489 58.2943 31.48 55.4661 32.4971 53.2058L31.5852 52.7955ZM29.9489 61.7273H28.9489C28.9489 65.3553 29.5087 68.488 30.6724 71.0901L31.5852 70.6818L32.4981 70.2736C31.4799 67.9968 30.9489 65.1599 30.9489 61.7273H29.9489ZM31.5852 70.6818L30.6754 71.0969C31.8482 73.6673 33.4869 75.6673 35.6093 77.0436L36.1534 76.2045L36.6975 75.3655C34.9411 74.2266 33.5344 72.5448 32.495 70.2667L31.5852 70.6818ZM36.1534 76.2045L35.614 77.0466C37.7301 78.4022 40.156 79.0682 42.858 79.0682V78.0682V77.0682C40.4993 77.0682 38.4555 76.4917 36.6928 75.3625L36.1534 76.2045ZM42.858 78.0682V79.0682C45.5599 79.0682 47.9858 78.4022 50.1019 77.0466L49.5625 76.2045L49.0231 75.3625C47.2604 76.4917 45.2166 77.0682 42.858 77.0682V78.0682ZM49.5625 76.2045L50.1066 77.0436C52.2304 75.6664 53.8622 73.6647 55.0199 71.0922L54.108 70.6818L53.196 70.2715C52.1719 72.5474 50.7734 74.2275 49.0184 75.3655L49.5625 76.2045ZM54.108 70.6818L55.0187 71.0948C56.1991 68.4914 56.767 65.3568 56.767 61.7273H55.767H54.767C54.767 65.1583 54.2289 67.9935 53.1972 70.2689L54.108 70.6818ZM72.2159 85H71.2159V86H72.2159V85ZM72.2159 38.4545V37.4545H71.2159V38.4545H72.2159ZM100.216 41.25L99.7262 42.1219L99.7309 42.1245L100.216 41.25ZM107.898 49.2273L107.009 49.6853V49.6853L107.898 49.2273ZM107.875 74.1818L106.987 73.7223L106.985 73.7253L107.875 74.1818ZM100.125 82.2045L99.642 81.3289L99.6404 81.3298L100.125 82.2045ZM80.6477 77.7045H79.6477V78.7045H80.6477V77.7045ZM95.6932 75.9318L96.172 76.8097L96.1767 76.8071L95.6932 75.9318ZM100.58 70.5909L101.488 71.01L101.489 71.0078L100.58 70.5909ZM100.58 52.8182L99.6716 53.2372L99.6726 53.2395L100.58 52.8182ZM95.7386 47.5227L95.2519 48.3963L95.2594 48.4004L95.7386 47.5227ZM80.6477 45.75V44.75H79.6477V45.75H80.6477ZM87.9886 85V84H72.2159V85V86H87.9886V85ZM72.2159 85H73.2159V38.4545H72.2159H71.2159V85H72.2159ZM72.2159 38.4545V39.4545H88.3068V38.4545V37.4545H72.2159V38.4545ZM88.3068 38.4545V39.4545C92.7931 39.4545 96.5865 40.3585 99.7262 42.1219L100.216 41.25L100.706 40.3781C97.2089 38.4142 93.063 37.4545 88.3068 37.4545V38.4545ZM100.216 41.25L99.7309 42.1245C102.887 43.8747 105.309 46.3868 107.009 49.6853L107.898 49.2273L108.787 48.7692C106.911 45.1283 104.211 42.3222 100.701 40.3755L100.216 41.25ZM107.898 49.2273L107.009 49.6853C108.708 52.9836 109.58 56.9705 109.58 61.6818H110.58H111.58C111.58 56.7264 110.663 52.4104 108.787 48.7692L107.898 49.2273ZM110.58 61.6818H109.58C109.58 66.4074 108.701 70.4091 106.987 73.7223L107.875 74.1818L108.763 74.6413C110.655 70.9849 111.58 66.6532 111.58 61.6818H110.58ZM107.875 74.1818L106.985 73.7253C105.287 77.0359 102.844 79.5629 99.642 81.3289L100.125 82.2045L100.608 83.0802C104.164 81.1189 106.887 78.2974 108.765 74.6383L107.875 74.1818ZM100.125 82.2045L99.6404 81.3298C96.4554 83.0945 92.5848 84 87.9886 84V85V86C92.847 86 97.0673 85.0419 100.61 83.0793L100.125 82.2045ZM80.6477 77.7045V78.7045H87.5795V77.7045V76.7045H80.6477V77.7045ZM87.5795 77.7045V78.7045C90.9385 78.7045 93.8196 78.0929 96.172 76.8097L95.6932 75.9318L95.2143 75.0539C93.2335 76.1344 90.7054 76.7045 87.5795 76.7045V77.7045ZM95.6932 75.9318L96.1767 76.8071C98.5399 75.5016 100.312 73.5564 101.488 71.01L100.58 70.5909L99.6716 70.1719C98.665 72.3527 97.1798 73.9681 95.2096 75.0565L95.6932 75.9318ZM100.58 70.5909L101.489 71.0078C102.657 68.46 103.216 65.3373 103.216 61.6818H102.216H101.216C101.216 65.1475 100.684 67.9642 99.6706 70.1741L100.58 70.5909ZM102.216 61.6818H103.216C103.216 58.027 102.657 54.9171 101.486 52.3969L100.58 52.8182L99.6726 53.2395C100.684 55.4162 101.216 58.2154 101.216 61.6818H102.216ZM100.58 52.8182L101.488 52.3991C100.313 49.855 98.5562 47.922 96.2179 46.6451L95.7386 47.5227L95.2594 48.4004C97.1939 49.4568 98.664 51.0541 99.6716 53.2372L100.58 52.8182ZM95.7386 47.5227L96.2253 46.6492C93.9174 45.3633 91.1021 44.75 87.8295 44.75V45.75V46.75C90.8601 46.75 93.3174 47.3185 95.2519 48.3963L95.7386 47.5227ZM87.8295 45.75V44.75H80.6477V45.75V46.75H87.8295V45.75ZM80.6477 45.75H79.6477V77.7045H80.6477H81.6477V45.75H80.6477ZM118.591 85H117.591V86H118.591V85ZM118.591 38.4545V37.4545H117.591V38.4545H118.591ZM148.864 38.4545H149.864V37.4545H148.864V38.4545ZM148.864 45.5227V46.5227H149.864V45.5227H148.864ZM127.023 45.5227V44.5227H126.023V45.5227H127.023ZM127.023 58.1591H126.023V59.1591H127.023V58.1591ZM147.295 58.1591H148.295V57.1591H147.295V58.1591ZM147.295 65.2273V66.2273H148.295V65.2273H147.295ZM127.023 65.2273V64.2273H126.023V65.2273H127.023ZM127.023 77.9318H126.023V78.9318H127.023V77.9318ZM149.045 77.9318H150.045V76.9318H149.045V77.9318ZM149.045 85V86H150.045V85H149.045ZM118.591 85H119.591V38.4545H118.591H117.591V85H118.591ZM118.591 38.4545V39.4545H148.864V38.4545V37.4545H118.591V38.4545ZM148.864 38.4545H147.864V45.5227H148.864H149.864V38.4545H148.864ZM148.864 45.5227V44.5227H127.023V45.5227V46.5227H148.864V45.5227ZM127.023 45.5227H126.023V58.1591H127.023H128.023V45.5227H127.023ZM127.023 58.1591V59.1591H147.295V58.1591V57.1591H127.023V58.1591ZM147.295 58.1591H146.295V65.2273H147.295H148.295V58.1591H147.295ZM147.295 65.2273V64.2273H127.023V65.2273V66.2273H147.295V65.2273ZM127.023 65.2273H126.023V77.9318H127.023H128.023V65.2273H127.023ZM127.023 77.9318V78.9318H149.045V77.9318V76.9318H127.023V77.9318ZM149.045 77.9318H148.045V85H149.045H150.045V77.9318H149.045ZM149.045 85V84H118.591V85V86H149.045V85ZM157.466 85H156.466V86H157.466V85ZM157.466 38.4545V37.4545H156.466V38.4545H157.466ZM183.92 40.3182L183.464 41.2081L183.467 41.2093L183.92 40.3182ZM189.443 45.5455L188.568 46.0301L188.572 46.0371L189.443 45.5455ZM189.42 61.1136L188.555 60.6124L188.554 60.6143L189.42 61.1136ZM183.852 66.1818L184.286 67.0828L184.291 67.0806L183.852 66.1818ZM162.375 67.9545H161.375V68.9545H162.375V67.9545ZM162.375 60.9545V59.9545H161.375V60.9545H162.375ZM178.807 60.0909L179.203 61.009L179.212 61.0051L178.807 60.0909ZM181.761 57.5227L180.894 57.0253L180.892 57.0291L181.761 57.5227ZM181.761 49.1136L180.886 49.5964L180.888 49.6012L181.761 49.1136ZM178.784 46.4318L178.362 47.3383L178.37 47.3422L178.784 46.4318ZM165.898 45.5V44.5H164.898V45.5H165.898ZM165.898 85V86H166.898V85H165.898ZM181.511 63.9091L182.389 63.4296L182.105 62.9091H181.511V63.9091ZM193.034 85V86H194.72L193.912 84.5205L193.034 85ZM183.625 85L182.744 85.4729L183.027 86H183.625V85ZM172.307 63.9091V62.9091H170.635L171.426 64.3819L172.307 63.9091ZM157.466 85H158.466V38.4545H157.466H156.466V85H157.466ZM157.466 38.4545V39.4545H174.92V38.4545V37.4545H157.466V38.4545ZM174.92 38.4545V39.4545C178.385 39.4545 181.218 40.057 183.464 41.2081L183.92 40.3182L184.377 39.4282C181.774 38.0945 178.607 37.4545 174.92 37.4545V38.4545ZM183.92 40.3182L183.467 41.2093C185.741 42.3676 187.429 43.9741 188.568 46.0301L189.443 45.5455L190.318 45.0608C188.972 42.6319 186.979 40.7536 184.374 39.4271L183.92 40.3182ZM189.443 45.5455L188.572 46.0371C189.732 48.0917 190.33 50.5155 190.33 53.3409H191.33H192.33C192.33 50.2269 191.669 47.4537 190.314 45.0538L189.443 45.5455ZM191.33 53.3409H190.33C190.33 56.1809 189.725 58.5926 188.555 60.6124L189.42 61.1136L190.286 61.6149C191.661 59.2408 192.33 56.4706 192.33 53.3409H191.33ZM189.42 61.1136L188.554 60.6143C187.405 62.6085 185.705 64.1658 183.414 65.283L183.852 66.1818L184.291 67.0806C186.909 65.8039 188.921 63.9824 190.287 61.613L189.42 61.1136ZM183.852 66.1818L183.418 65.2808C181.135 66.3804 178.277 66.9545 174.807 66.9545V67.9545V68.9545C178.488 68.9545 181.661 68.3469 184.286 67.0828L183.852 66.1818ZM174.807 67.9545V66.9545H162.375V67.9545V68.9545H174.807V67.9545ZM162.375 67.9545H163.375V60.9545H162.375H161.375V67.9545H162.375ZM162.375 60.9545V61.9545H173.67V60.9545V59.9545H162.375V60.9545ZM173.67 60.9545V61.9545C175.842 61.9545 177.702 61.6571 179.203 61.009L178.807 60.0909L178.41 59.1728C177.245 59.6763 175.68 59.9545 173.67 59.9545V60.9545ZM178.807 60.0909L179.212 61.0051C180.714 60.3393 181.875 59.3479 182.631 58.0163L181.761 57.5227L180.892 57.0291C180.375 57.9399 179.566 58.6607 178.402 59.1767L178.807 60.0909ZM181.761 57.5227L182.629 58.0201C183.387 56.6977 183.739 55.1221 183.739 53.3409H182.739H181.739C181.739 54.8627 181.439 56.075 180.894 57.0253L181.761 57.5227ZM182.739 53.3409H183.739C183.739 51.5585 183.387 49.973 182.634 48.6261L181.761 49.1136L180.888 49.6012C181.439 50.5876 181.739 51.8203 181.739 53.3409H182.739ZM181.761 49.1136L182.637 48.6309C181.873 47.2442 180.71 46.2086 179.198 45.5215L178.784 46.4318L178.37 47.3422C179.525 47.8672 180.347 48.6195 180.886 49.5964L181.761 49.1136ZM178.784 46.4318L179.206 45.5254C177.696 44.8219 175.819 44.5 173.625 44.5V45.5V46.5C175.644 46.5 177.205 46.7993 178.362 47.3383L178.784 46.4318ZM173.625 45.5V44.5H165.898V45.5V46.5H173.625V45.5ZM165.898 45.5H164.898V85H165.898H166.898V45.5H165.898ZM165.898 85V84H157.466V85V86H165.898V85ZM181.511 63.9091L180.634 64.3885L192.157 85.4795L193.034 85L193.912 84.5205L182.389 63.4296L181.511 63.9091ZM193.034 85V84H183.625V85V86H193.034V85ZM183.625 85L184.506 84.5271L173.188 63.4362L172.307 63.9091L171.426 64.3819L182.744 85.4729L183.625 85ZM172.307 63.9091V64.9091H181.511V63.9091V62.9091H172.307V63.9091ZM237.341 38.4545H238.341V37.4545H237.341V38.4545ZM237.341 85V86H238.341V85H237.341ZM229.841 85L229.018 85.5689L229.317 86H229.841V85ZM207.909 53.2955L208.731 52.7266L208.433 52.2955H207.909V53.2955ZM207.523 53.2955V52.2955H206.523V53.2955H207.523ZM207.523 85V86H208.523V85H207.523ZM199.091 85H198.091V86H199.091V85ZM199.091 38.4545V37.4545H198.091V38.4545H199.091ZM206.636 38.4545L207.459 37.8863L207.161 37.4545H206.636V38.4545ZM228.545 70.1818L227.723 70.75L228.021 71.1818H228.545V70.1818ZM228.955 70.1818V71.1818H229.955V70.1818H228.955ZM228.955 38.4545V37.4545H227.955V38.4545H228.955ZM237.341 38.4545H236.341V85H237.341H238.341V38.4545H237.341ZM237.341 85V84H229.841V85V86H237.341V85ZM229.841 85L230.663 84.4311L208.731 52.7266L207.909 53.2955L207.087 53.8644L229.018 85.5689L229.841 85ZM207.909 53.2955V52.2955H207.523V53.2955V54.2955H207.909V53.2955ZM207.523 53.2955H206.523V85H207.523H208.523V53.2955H207.523ZM207.523 85V84H199.091V85V86H207.523V85ZM199.091 85H200.091V38.4545H199.091H198.091V85H199.091ZM199.091 38.4545V39.4545H206.636V38.4545V37.4545H199.091V38.4545ZM206.636 38.4545L205.813 39.0228L227.723 70.75L228.545 70.1818L229.368 69.6136L207.459 37.8863L206.636 38.4545ZM228.545 70.1818V71.1818H228.955V70.1818V69.1818H228.545V70.1818ZM228.955 70.1818H229.955V38.4545H228.955H227.955V70.1818H228.955ZM228.955 38.4545V39.4545H237.341V38.4545V37.4545H228.955V38.4545Z" fill="#F4F4F4" mask="url(#path-2-outside-1_246_222)"/>
<path d="M30.5875 50.1818H35.4242L41.9015 65.9915H42.1571L48.6344 50.1818H53.4711V72H49.6784V57.0107H49.476L43.4462 71.9361H40.6124L34.5826 56.9787H34.3801V72H30.5875V50.1818ZM77.2708 61.0909C77.2708 63.4418 76.8304 65.4553 75.9498 67.1314C75.0762 68.8004 73.883 70.0788 72.3702 70.9666C70.8645 71.8544 69.1564 72.2983 67.2459 72.2983C65.3354 72.2983 63.6238 71.8544 62.111 70.9666C60.6053 70.0717 59.4121 68.7898 58.5314 67.1207C57.6578 65.4446 57.2211 63.4347 57.2211 61.0909C57.2211 58.7401 57.6578 56.7301 58.5314 55.0611C59.4121 53.3849 60.6053 52.103 62.111 51.2152C63.6238 50.3274 65.3354 49.8835 67.2459 49.8835C69.1564 49.8835 70.8645 50.3274 72.3702 51.2152C73.883 52.103 75.0762 53.3849 75.9498 55.0611C76.8304 56.7301 77.2708 58.7401 77.2708 61.0909ZM73.2971 61.0909C73.2971 59.4361 73.0378 58.0405 72.5194 56.9041C72.008 55.7607 71.2978 54.8977 70.3887 54.3153C69.4796 53.7259 68.432 53.4311 67.2459 53.4311C66.0598 53.4311 65.0123 53.7259 64.1032 54.3153C63.1941 54.8977 62.4803 55.7607 61.9618 56.9041C61.4505 58.0405 61.1948 59.4361 61.1948 61.0909C61.1948 62.7457 61.4505 64.1449 61.9618 65.2884C62.4803 66.4247 63.1941 67.2876 64.1032 67.8771C65.0123 68.4595 66.0598 68.7507 67.2459 68.7507C68.432 68.7507 69.4796 68.4595 70.3887 67.8771C71.2978 67.2876 72.008 66.4247 72.5194 65.2884C73.0378 64.1449 73.2971 62.7457 73.2971 61.0909ZM88.4009 72H81.0075V50.1818H88.5501C90.7163 50.1818 92.5771 50.6186 94.1325 51.4922C95.695 52.3587 96.8952 53.6051 97.7333 55.2315C98.5714 56.858 98.9904 58.804 98.9904 61.0696C98.9904 63.3423 98.5678 65.2955 97.7227 66.929C96.8846 68.5625 95.6737 69.8161 94.0898 70.6896C92.5131 71.5632 90.6168 72 88.4009 72ZM84.9599 68.5803H88.2092C89.729 68.5803 90.9968 68.3033 92.0124 67.7493C93.0281 67.1882 93.7915 66.3537 94.3029 65.2457C94.8143 64.1307 95.07 62.7386 95.07 61.0696C95.07 59.4006 94.8143 58.0156 94.3029 56.9148C93.7915 55.8068 93.0352 54.9794 92.0337 54.4325C91.0394 53.8786 89.8036 53.6016 88.3263 53.6016H84.9599V68.5803ZM102.746 72V50.1818H116.936V53.495H106.698V59.4183H116.201V62.7315H106.698V68.6868H117.021V72H102.746ZM120.968 72V50.1818H129.15C130.826 50.1818 132.233 50.473 133.369 51.0554C134.512 51.6378 135.375 52.4545 135.958 53.5057C136.547 54.5497 136.842 55.7678 136.842 57.1598C136.842 58.5589 136.544 59.7734 135.947 60.8033C135.358 61.826 134.488 62.6179 133.337 63.179C132.186 63.733 130.773 64.0099 129.097 64.0099H123.27V60.7287H128.564C129.544 60.7287 130.347 60.5937 130.972 60.3239C131.597 60.0469 132.059 59.6456 132.357 59.12C132.662 58.5874 132.815 57.9339 132.815 57.1598C132.815 56.3857 132.662 55.7251 132.357 55.1783C132.051 54.6243 131.586 54.2053 130.961 53.9212C130.336 53.63 129.53 53.4844 128.543 53.4844H124.921V72H120.968ZM132.24 62.1136L137.641 72H133.23L127.925 62.1136H132.24ZM158.41 50.1818V72H154.894L144.614 57.1385H144.433V72H140.48V50.1818H144.017L154.287 65.054H154.479V50.1818H158.41Z" fill="#00081C"/>
</g>
<defs>
<clipPath id="clip0_246_222">
<rect width="188" height="122" rx="8" fill="white"/>
</clipPath>
</defs>
</svg>
