<svg width="80" height="40" viewBox="0 0 80 40" fill="none" xmlns="http://www.w3.org/2000/svg">
<path d="M10.5192 29.391C9.32321 29.391 8.72521 28.8773 8.72521 27.85C8.72521 27.5127 8.77121 27.1293 8.86321 26.7C8.97054 26.2553 9.11621 25.688 9.30021 24.998C9.51488 24.2773 9.67588 23.664 9.78321 23.158C9.89054 22.652 9.94421 22.1997 9.94421 21.801C9.94421 20.7583 9.48421 20.237 8.56421 20.237C8.30354 20.237 8.05054 20.2677 7.80521 20.329L5.96521 29H2.65321L5.98821 13.36C4.96088 13.7893 4.16354 14.4333 3.59621 15.292C3.04421 16.1507 2.76821 17.1857 2.76821 18.397C2.76821 18.9643 2.82188 19.363 2.92921 19.593C3.03654 19.8077 3.09021 19.9303 3.09021 19.961C2.26221 19.961 1.64121 19.7923 1.22721 19.455C0.828544 19.1023 0.629211 18.5273 0.629211 17.73C0.629211 16.7487 1.02788 15.798 1.82521 14.878C2.63788 13.9427 3.67288 13.1913 4.93021 12.624C6.18754 12.0413 7.44488 11.75 8.70221 11.75C8.91688 11.75 9.22354 11.7653 9.62221 11.796L8.12721 18.834L10.4962 15.66C12.3822 13.1147 13.3329 11.8497 13.3482 11.865H15.7632L9.36921 19.225L10.1742 19.202C11.2169 19.202 11.9529 19.4243 12.3822 19.869C12.8115 20.2983 13.0262 20.8963 13.0262 21.663C13.0262 22.1077 12.9725 22.583 12.8652 23.089C12.7579 23.5797 12.6045 24.193 12.4052 24.929C12.2825 25.4043 12.1675 25.872 12.0602 26.332C11.9529 26.792 11.8992 27.1753 11.8992 27.482C11.8992 27.8347 11.9759 28.149 12.1292 28.425C12.2979 28.701 12.5202 28.8927 12.7962 29C11.8609 29.2607 11.1019 29.391 10.5192 29.391ZM18.1457 16.258C17.6397 16.258 17.2104 16.0817 16.8577 15.729C16.505 15.3763 16.3287 14.947 16.3287 14.441C16.3287 13.935 16.505 13.5057 16.8577 13.153C17.2104 12.785 17.6397 12.601 18.1457 12.601C18.6517 12.601 19.081 12.785 19.4337 13.153C19.8017 13.5057 19.9857 13.935 19.9857 14.441C19.9857 14.947 19.8017 15.3763 19.4337 15.729C19.081 16.0817 18.6517 16.258 18.1457 16.258ZM16.5817 29.138C15.8457 29.138 15.2477 28.908 14.7877 28.448C14.343 27.988 14.1207 27.298 14.1207 26.378C14.1207 25.9947 14.182 25.4963 14.3047 24.883L15.8687 17.5H19.1807L17.5247 25.32C17.4634 25.55 17.4327 25.7953 17.4327 26.056C17.4327 26.3627 17.5017 26.585 17.6397 26.723C17.793 26.8457 18.0384 26.907 18.3757 26.907C18.8204 26.907 19.2344 26.723 19.6177 26.355C20.001 25.9717 20.277 25.481 20.4457 24.883H21.4117C20.8444 26.539 20.116 27.666 19.2267 28.264C18.3374 28.8467 17.4557 29.138 16.5817 29.138ZM22.7135 29.138C21.9775 29.138 21.3795 28.908 20.9195 28.448C20.4749 27.988 20.2525 27.298 20.2525 26.378C20.2525 25.9947 20.3139 25.4963 20.4365 24.883L21.8165 18.42H21.0575L21.2415 17.5H22.0005L22.6905 14.326L26.0945 13.866L25.3125 17.5H26.6925L26.5085 18.42H25.1285L23.6565 25.32C23.5952 25.55 23.5645 25.7953 23.5645 26.056C23.5645 26.3627 23.6335 26.585 23.7715 26.723C23.9249 26.8457 24.1702 26.907 24.5075 26.907C24.9522 26.907 25.3662 26.723 25.7495 26.355C26.1329 25.9717 26.4089 25.481 26.5775 24.883H27.5435C26.9762 26.539 26.2479 27.666 25.3585 28.264C24.4692 28.8467 23.5875 29.138 22.7135 29.138ZM28.8454 29.138C28.1094 29.138 27.5114 28.908 27.0514 28.448C26.6067 27.988 26.3844 27.298 26.3844 26.378C26.3844 25.9947 26.4457 25.4963 26.5684 24.883L29.0294 13.36L32.4334 12.9L29.7884 25.32C29.727 25.55 29.6964 25.7953 29.6964 26.056C29.6964 26.3627 29.7654 26.585 29.9034 26.723C30.0567 26.8457 30.302 26.907 30.6394 26.907C31.084 26.907 31.498 26.723 31.8814 26.355C32.2647 25.9717 32.5407 25.481 32.7094 24.883H33.6754C33.108 26.539 32.3797 27.666 31.4904 28.264C30.601 28.8467 29.7194 29.138 28.8454 29.138ZM35.4602 29.138C34.5862 29.138 33.8579 28.839 33.2752 28.241C32.6925 27.643 32.4012 26.7077 32.4012 25.435C32.4012 24.3003 32.6235 23.112 33.0682 21.87C33.5282 20.6127 34.2029 19.5547 35.0922 18.696C35.9969 17.822 37.0702 17.385 38.3122 17.385C38.9409 17.385 39.4085 17.4923 39.7152 17.707C40.0219 17.9217 40.1752 18.2053 40.1752 18.558V18.719L40.4282 17.5H43.7402L42.0842 25.32C42.0229 25.55 41.9922 25.7953 41.9922 26.056C41.9922 26.7153 42.3065 27.045 42.9352 27.045C43.3645 27.045 43.7325 26.8457 44.0392 26.447C44.3612 26.0483 44.6142 25.527 44.7982 24.883H45.7642C45.1969 26.539 44.4915 27.666 43.6482 28.264C42.8202 28.8467 41.9845 29.138 41.1412 29.138C40.4972 29.138 39.9759 28.9617 39.5772 28.609C39.1939 28.241 38.9639 27.712 38.8872 27.022C38.4425 27.6507 37.9442 28.1643 37.3922 28.563C36.8555 28.9463 36.2115 29.138 35.4602 29.138ZM36.9552 26.907C37.3385 26.907 37.7142 26.7307 38.0822 26.378C38.4655 26.01 38.7262 25.5117 38.8642 24.883L39.9682 19.685C39.9682 19.4857 39.8915 19.294 39.7382 19.11C39.5849 18.9107 39.3472 18.811 39.0252 18.811C38.4119 18.811 37.8599 19.1713 37.3692 19.892C36.8785 20.5973 36.4952 21.456 36.2192 22.468C35.9432 23.4647 35.8052 24.3463 35.8052 25.113C35.8052 25.8797 35.9125 26.3703 36.1272 26.585C36.3572 26.7997 36.6332 26.907 36.9552 26.907ZM48.3946 34.75C47.6586 34.75 47.0453 34.5583 46.5546 34.175C46.064 33.7917 45.8186 33.2397 45.8186 32.519C45.8186 31.645 46.1713 30.9397 46.8766 30.403C47.582 29.8817 48.479 29.4447 49.5676 29.092L49.8436 27.85C49.399 28.3407 48.9466 28.678 48.4866 28.862C48.0266 29.046 47.559 29.138 47.0836 29.138C46.3476 29.138 45.7496 28.908 45.2896 28.448C44.845 27.988 44.6226 27.298 44.6226 26.378C44.6226 25.9947 44.684 25.4963 44.8066 24.883L46.3706 17.5H49.6826L48.0266 25.32C47.9806 25.504 47.9576 25.6957 47.9576 25.895C47.9576 26.5697 48.1876 26.907 48.6476 26.907C49.0463 26.907 49.399 26.7383 49.7056 26.401C50.0123 26.0483 50.2576 25.5883 50.4416 25.021L52.0516 17.5H55.3636L53.0866 28.172C53.8226 27.9267 54.413 27.5587 54.8576 27.068C55.3023 26.5773 55.678 25.849 55.9846 24.883H56.9506C56.5366 26.2477 55.977 27.252 55.2716 27.896C54.5663 28.5247 53.769 28.954 52.8796 29.184L52.5346 30.84C52.228 32.3273 51.699 33.347 50.9476 33.899C50.1963 34.4663 49.3453 34.75 48.3946 34.75ZM47.8656 32.956C48.1263 32.956 48.3793 32.7797 48.6246 32.427C48.87 32.0743 49.0616 31.5683 49.1996 30.909L49.3376 30.242C47.835 30.794 47.0836 31.4457 47.0836 32.197C47.0836 32.3963 47.1526 32.5727 47.2906 32.726C47.4286 32.8793 47.6203 32.956 47.8656 32.956ZM59.2812 29.138C58.1465 29.138 57.2649 28.8467 56.6362 28.264C56.0075 27.666 55.6932 26.7383 55.6932 25.481C55.6932 24.423 55.9002 23.2577 56.3142 21.985C56.7282 20.7123 57.4029 19.616 58.3382 18.696C59.2735 17.7607 60.4619 17.293 61.9032 17.293C63.5899 17.293 64.4332 18.029 64.4332 19.501C64.4332 20.3597 64.1879 21.1493 63.6972 21.87C63.2065 22.5907 62.5549 23.1733 61.7422 23.618C60.9295 24.0473 60.0632 24.2927 59.1432 24.354C59.1125 24.814 59.0972 25.1207 59.0972 25.274C59.0972 26.0253 59.2275 26.539 59.4882 26.815C59.7489 27.0757 60.1705 27.206 60.7532 27.206C61.5812 27.206 62.2865 27.0143 62.8692 26.631C63.4672 26.2477 64.1189 25.665 64.8242 24.883H65.6062C63.9042 27.7197 61.7959 29.138 59.2812 29.138ZM59.3272 23.25C59.8945 23.2193 60.4312 23.02 60.9372 22.652C61.4585 22.284 61.8725 21.8163 62.1792 21.249C62.5012 20.6817 62.6622 20.0837 62.6622 19.455C62.6622 18.8263 62.4705 18.512 62.0872 18.512C61.5352 18.512 60.9909 18.995 60.4542 19.961C59.9329 20.927 59.5572 22.0233 59.3272 23.25ZM66.3833 17.5H69.6953L69.3963 18.926C69.9177 18.466 70.3853 18.1133 70.7993 17.868C71.2287 17.6227 71.6887 17.5 72.1793 17.5C72.67 17.5 73.0533 17.6687 73.3293 18.006C73.6207 18.3433 73.7663 18.7497 73.7663 19.225C73.7663 19.6697 73.6207 20.0607 73.3293 20.398C73.038 20.7353 72.6317 20.904 72.1103 20.904C71.773 20.904 71.543 20.8273 71.4203 20.674C71.313 20.5053 71.2287 20.2677 71.1673 19.961C71.1213 19.7617 71.0753 19.616 71.0293 19.524C70.9833 19.432 70.899 19.386 70.7763 19.386C70.4543 19.386 70.1783 19.455 69.9483 19.593C69.7337 19.7157 69.45 19.938 69.0973 20.26L67.2573 29H63.9453L66.3833 17.5ZM75.9968 29.092C75.4908 29.092 75.0615 28.9157 74.7088 28.563C74.3561 28.2103 74.1798 27.781 74.1798 27.275C74.1798 26.769 74.3561 26.3397 74.7088 25.987C75.0615 25.619 75.4908 25.435 75.9968 25.435C76.5028 25.435 76.9321 25.619 77.2848 25.987C77.6528 26.3397 77.8368 26.769 77.8368 27.275C77.8368 27.781 77.6528 28.2103 77.2848 28.563C76.9321 28.9157 76.5028 29.092 75.9968 29.092Z" fill="#00081C"/>
</svg>
