<svg width="48" height="48" viewBox="0 0 48 48" fill="none" xmlns="http://www.w3.org/2000/svg">
<g clip-path="url(#clip0_232_6240)">
<path d="M19.9901 48H18.458C14.4784 48 12.084 47.9993 10.255 47.6591L20.8402 33.6413L19.9901 48Z" fill="#FFB6F6"/>
<path d="M37.4978 47.7017C35.7002 47.9986 33.345 48 29.542 48H27.7308L26.8764 33.6371L37.4978 47.7017Z" fill="#FFB6F6"/>
<path d="M47.6058 38.005C47.5285 38.3728 47.4376 38.7186 47.3267 39.0511C46.6004 41.228 45.3254 43.1426 43.664 44.6378L31.728 31.2528L47.6058 38.005Z" fill="#FFB6F6"/>
<path d="M4.18253 44.495C2.59676 43.0213 1.37687 41.16 0.673295 39.0511C0.55146 38.6858 0.450303 38.3052 0.368607 37.8964L15.9887 31.255L4.18253 44.495Z" fill="#FFB6F6"/>
<path d="M48 29.542C48 30.8914 47.9962 32.0585 47.983 33.083L33.8075 27.6072H48V29.542Z" fill="#FFB6F6"/>
<path d="M13.9154 27.6072L0.0127841 32.9766C0.000847327 31.9777 0 30.8448 0 29.542V27.6072H13.9154Z" fill="#FFB6F6"/>
<path d="M29.542 0C34.5368 0 37.0344 0.000664401 39.0511 0.673296C42.9575 1.97656 46.0235 5.0425 47.3267 8.94887C47.9993 10.9656 48 13.4632 48 18.458V24.0192H33.0107L43.8217 19.4233L40.6151 17.2948L30.1258 21.3451L35.0497 14.8296L31.5085 13.8601L26.0711 19.9538L25.6662 13.0909H22.059L21.6478 19.9538L16.2145 13.8601L12.6755 14.8296L17.5931 21.3431L7.11008 17.2948L3.90341 19.4233L14.7124 24.0192H0V18.458C0 13.4632 0.000664401 10.9656 0.673296 8.94887C1.97656 5.0425 5.0425 1.97656 8.94887 0.673296C10.9656 0.000664401 13.4632 0 18.458 0H29.542Z" fill="#FFB6F6"/>
</g>
<defs>
<clipPath id="clip0_232_6240">
<rect width="48" height="48" fill="white"/>
</clipPath>
</defs>
</svg>
