<svg width="260" height="260" viewBox="0 0 260 260" fill="none" xmlns="http://www.w3.org/2000/svg">
<rect width="260" height="260" rx="8" fill="#314633"/>
<g clip-path="url(#clip0_248_579)">
<path d="M100.482 69.1447C98.2103 66.8847 94.537 66.8939 92.2769 69.1652C90.0169 71.4365 90.0261 75.1098 92.2974 77.3698L115.392 100.35C117.663 102.61 121.336 102.6 123.596 100.329C125.856 98.0579 125.847 94.3845 123.576 92.1245L100.482 69.1447Z" fill="#FD9999" fill-opacity="0.6"/>
<path d="M92.142 114.753C89.8543 116.996 89.8186 120.669 92.0621 122.957C94.3056 125.245 97.9788 125.28 100.266 123.037L123.527 100.225C125.814 97.9816 125.85 94.3084 123.607 92.0208C121.363 89.7331 117.69 89.6974 115.402 91.9409L92.142 114.753Z" fill="#EC0B0B" fill-opacity="0.6"/>
<path d="M159.417 123.007C161.689 125.267 165.362 125.258 167.622 122.986C169.882 120.715 169.873 117.042 167.602 114.782L144.507 91.8022C142.236 89.5422 138.562 89.5513 136.302 91.8227C134.042 94.094 134.052 97.7673 136.323 100.027L159.417 123.007Z" fill="#FD9999" fill-opacity="0.6"/>
<path d="M167.757 77.3991C170.045 75.1556 170.081 71.4824 167.837 69.1948C165.594 66.9071 161.92 66.8713 159.633 69.1148L136.372 91.9264C134.085 94.1699 134.049 97.8431 136.292 100.131C138.536 102.418 142.209 102.454 144.497 100.211L167.757 77.3991Z" fill="#EC0B0B" fill-opacity="0.6"/>
<path d="M103.145 125.418C100.885 127.689 100.894 131.362 103.165 133.622C105.436 135.882 109.11 135.873 111.37 133.602L134.349 110.507C136.609 108.236 136.6 104.563 134.329 102.303C132.057 100.043 128.384 100.052 126.124 102.323L103.145 125.418Z" fill="#FD9999" fill-opacity="0.6"/>
<path d="M148.753 133.757C150.996 136.045 154.669 136.081 156.957 133.837C159.245 131.594 159.28 127.92 157.037 125.633L134.225 102.372C131.982 100.085 128.308 100.049 126.021 102.292C123.733 104.536 123.697 108.209 125.941 110.497L148.753 133.757Z" fill="#EC0B0B" fill-opacity="0.6"/>
<path d="M157.007 66.4817C159.267 64.2104 159.258 60.537 156.987 58.277C154.715 56.017 151.042 56.0261 148.782 58.2974L125.802 81.3918C123.542 83.6631 123.551 87.3365 125.823 89.5965C128.094 91.8566 131.767 91.8474 134.027 89.5761L157.007 66.4817Z" fill="#FD9999" fill-opacity="0.6"/>
<path d="M111.399 58.1421C109.156 55.8545 105.482 55.8187 103.195 58.0622C100.907 60.3057 100.871 63.9789 103.115 66.2665L125.926 89.527C128.17 91.8147 131.843 91.8505 134.131 89.607C136.418 87.3635 136.454 83.6903 134.211 81.4027L111.399 58.1421Z" fill="#EC0B0B" fill-opacity="0.6"/>
</g>
<path d="M60.6445 187.42C59.9045 187.42 59.2545 187.36 58.6945 187.24C58.1345 187.12 57.6445 186.83 57.2245 186.37C56.8245 185.91 56.6245 185.2 56.6245 184.24C56.6245 182.9 57.0245 181.1 57.8245 178.84C58.6445 176.58 59.7145 174.31 61.0345 172.03C60.0345 172.09 59.2445 172.24 58.6645 172.48C58.0845 172.72 57.7045 173.09 57.5245 173.59C57.6045 173.59 57.6845 173.69 57.7645 173.89C57.8645 174.09 57.9145 174.3 57.9145 174.52C57.9145 174.88 57.7545 175.17 57.4345 175.39C57.1145 175.59 56.7145 175.69 56.2345 175.69C55.6745 175.69 55.2245 175.54 54.8845 175.24C54.5445 174.94 54.3745 174.51 54.3745 173.95C54.3745 173.27 54.6345 172.65 55.1545 172.09C55.6945 171.53 56.4345 171.09 57.3745 170.77C58.3145 170.43 59.3545 170.26 60.4945 170.26C60.9145 170.26 61.4345 170.29 62.0545 170.35C63.6945 167.75 65.4245 165.63 67.2445 163.99C69.0845 162.33 70.8345 161.5 72.4945 161.5C73.4545 161.5 74.2445 161.64 74.8645 161.92L70.1545 184H65.8345L68.1445 173.11C67.4045 172.77 66.7245 172.52 66.1045 172.36C65.4845 172.2 64.8245 172.09 64.1245 172.03C62.9845 174.49 62.0445 177.01 61.3045 179.59C60.5845 182.15 60.2245 184.2 60.2245 185.74C60.2245 186.5 60.3645 187.06 60.6445 187.42ZM70.1545 163.63C69.2945 164.09 68.3945 164.95 67.4545 166.21C66.5345 167.45 65.6345 168.96 64.7545 170.74C66.1945 171.02 67.4145 171.37 68.4145 171.79L70.1545 163.63ZM92.3836 184.18C91.1636 184.18 90.2636 183.86 89.6836 183.22C89.1236 182.56 88.8436 181.75 88.8436 180.79C88.8436 180.37 88.8936 179.9 88.9936 179.38C89.0936 178.84 89.1936 178.32 89.2936 177.82C89.4136 177.32 89.4936 177 89.5336 176.86C89.6936 176.16 89.8436 175.47 89.9836 174.79C90.1236 174.11 90.1936 173.56 90.1936 173.14C90.1936 172.12 89.8336 171.61 89.1136 171.61C88.5936 171.61 88.1336 171.87 87.7336 172.39C87.3336 172.89 87.0136 173.55 86.7736 174.37L84.7336 184H80.4136L82.6036 173.65C82.6636 173.41 82.6936 173.16 82.6936 172.9C82.6936 172.02 82.3936 171.58 81.7936 171.58C81.2336 171.58 80.7436 171.84 80.3236 172.36C79.9236 172.86 79.6036 173.53 79.3636 174.37L77.3236 184H73.0036L76.1836 169H80.5036L80.1736 170.56C81.1936 169.42 82.4136 168.85 83.8336 168.85C85.5936 168.85 86.6236 169.71 86.9236 171.43C88.0236 169.73 89.4136 168.88 91.0936 168.88C92.1136 168.88 92.9236 169.16 93.5236 169.72C94.1236 170.28 94.4236 171.13 94.4236 172.27C94.4236 172.85 94.3536 173.5 94.2136 174.22C94.0736 174.92 93.8736 175.78 93.6136 176.8C93.4536 177.42 93.3036 178.03 93.1636 178.63C93.0436 179.21 92.9836 179.67 92.9836 180.01C92.9836 180.41 93.0736 180.72 93.2536 180.94C93.4336 181.16 93.7436 181.27 94.1836 181.27C94.7836 181.27 95.2636 181.06 95.6236 180.64C95.9836 180.2 96.3436 179.53 96.7036 178.63H97.9636C97.2236 180.83 96.3636 182.31 95.3836 183.07C94.4236 183.81 93.4236 184.18 92.3836 184.18ZM101.082 184.12C99.6021 184.12 98.4321 183.74 97.5721 182.98C96.7121 182.22 96.2821 181.02 96.2821 179.38C96.2821 178.02 96.5621 176.51 97.1221 174.85C97.6821 173.19 98.5821 171.76 99.8221 170.56C101.062 169.34 102.622 168.73 104.502 168.73C107.062 168.73 108.342 170.33 108.342 173.53V173.56C108.402 173.58 108.512 173.59 108.672 173.59C109.332 173.59 110.092 173.42 110.952 173.08C111.812 172.72 112.592 172.29 113.292 171.79L113.562 172.6C112.982 173.22 112.222 173.75 111.282 174.19C110.362 174.61 109.352 174.91 108.252 175.09C108.092 176.91 107.682 178.5 107.022 179.86C106.362 181.22 105.512 182.27 104.472 183.01C103.432 183.75 102.302 184.12 101.082 184.12ZM102.282 181.42C102.762 181.42 103.242 181.15 103.722 180.61C104.202 180.05 104.622 179.3 104.982 178.36C105.342 177.4 105.602 176.34 105.762 175.18C105.222 175.06 104.952 174.64 104.952 173.92C104.952 173.1 105.262 172.56 105.882 172.3C105.842 171.64 105.742 171.19 105.582 170.95C105.422 170.69 105.142 170.56 104.742 170.56C104.082 170.56 103.442 171.04 102.822 172C102.202 172.96 101.702 174.11 101.322 175.45C100.942 176.79 100.752 177.97 100.752 178.99C100.752 179.95 100.862 180.6 101.082 180.94C101.302 181.26 101.702 181.42 102.282 181.42ZM111.926 169H116.246L115.856 170.86C116.536 170.26 117.146 169.8 117.686 169.48C118.246 169.16 118.846 169 119.486 169C120.126 169 120.626 169.22 120.986 169.66C121.366 170.1 121.556 170.63 121.556 171.25C121.556 171.83 121.366 172.34 120.986 172.78C120.606 173.22 120.076 173.44 119.396 173.44C118.956 173.44 118.656 173.34 118.496 173.14C118.356 172.92 118.246 172.61 118.166 172.21C118.106 171.95 118.046 171.76 117.986 171.64C117.926 171.52 117.816 171.46 117.656 171.46C117.236 171.46 116.876 171.55 116.576 171.73C116.296 171.89 115.926 172.18 115.466 172.6L113.066 184H108.746L111.926 169ZM125.845 191.5C124.905 191.5 124.075 191.19 123.355 190.57C122.655 189.97 122.305 189.2 122.305 188.26C122.305 187.38 122.525 186.66 122.965 186.1C123.405 185.54 123.975 185.1 124.675 184.78C125.375 184.46 126.315 184.12 127.495 183.76L127.795 182.44C126.775 183.6 125.555 184.18 124.135 184.18C123.175 184.18 122.395 183.88 121.795 183.28C121.215 182.68 120.925 181.78 120.925 180.58C120.925 180.08 121.005 179.43 121.165 178.63L123.205 169H127.525L125.365 179.2C125.305 179.44 125.275 179.69 125.275 179.95C125.275 180.83 125.575 181.27 126.175 181.27C126.735 181.27 127.215 181.04 127.615 180.58C128.015 180.1 128.335 179.45 128.575 178.63L130.615 169H134.965L131.305 186.4C130.905 188.32 130.195 189.65 129.175 190.39C128.175 191.13 127.065 191.5 125.845 191.5ZM125.155 188.83C125.515 188.83 125.855 188.64 126.175 188.26C126.495 187.9 126.745 187.31 126.925 186.49L127.285 184.72C126.225 185.08 125.405 185.5 124.825 185.98C124.245 186.46 123.955 187.08 123.955 187.84C123.955 188.08 124.075 188.3 124.315 188.5C124.555 188.72 124.835 188.83 125.155 188.83ZM154.548 184.51C152.988 184.51 152.208 183.84 152.208 182.5C152.208 182.06 152.268 181.56 152.388 181C152.528 180.42 152.718 179.68 152.958 178.78C153.238 177.84 153.448 177.04 153.588 176.38C153.728 175.72 153.798 175.13 153.798 174.61C153.798 173.25 153.198 172.57 151.998 172.57C151.678 172.57 151.348 172.61 151.008 172.69L148.608 184H144.288L148.368 164.92L152.808 164.32L151.338 171.25H151.578C152.358 171.25 153.078 170.98 153.738 170.44C154.398 169.9 154.908 169.23 155.268 168.43C155.648 167.61 155.838 166.81 155.838 166.03C155.838 165.11 155.558 164.36 154.998 163.78C154.458 163.18 153.638 162.88 152.538 162.88C150.918 162.88 149.498 163.17 148.278 163.75C147.058 164.33 146.108 165.17 145.428 166.27C144.768 167.37 144.438 168.67 144.438 170.17C144.438 170.91 144.508 171.43 144.648 171.73C144.788 172.01 144.858 172.17 144.858 172.21C143.778 172.21 142.968 171.99 142.428 171.55C141.908 171.09 141.648 170.34 141.648 169.3C141.648 168.02 142.168 166.78 143.208 165.58C144.268 164.36 145.618 163.38 147.258 162.64C148.898 161.88 150.538 161.5 152.178 161.5C153.678 161.5 154.938 161.72 155.958 162.16C156.978 162.6 157.738 163.19 158.238 163.93C158.738 164.65 158.988 165.44 158.988 166.3C158.988 167.24 158.698 168.18 158.118 169.12C157.538 170.06 156.748 170.83 155.748 171.43C156.508 171.65 157.038 172.02 157.338 172.54C157.658 173.04 157.818 173.67 157.818 174.43C157.818 175.01 157.748 175.63 157.608 176.29C157.468 176.93 157.268 177.73 157.008 178.69C156.848 179.31 156.698 179.92 156.558 180.52C156.418 181.12 156.348 181.62 156.348 182.02C156.348 182.48 156.448 182.89 156.648 183.25C156.868 183.61 157.158 183.86 157.518 184C156.298 184.34 155.308 184.51 154.548 184.51ZM163.775 184.18C162.295 184.18 161.145 183.8 160.325 183.04C159.505 182.26 159.095 181.05 159.095 179.41C159.095 178.03 159.365 176.51 159.905 174.85C160.445 173.19 161.325 171.76 162.545 170.56C163.765 169.34 165.315 168.73 167.195 168.73C169.395 168.73 170.495 169.69 170.495 171.61C170.495 172.73 170.175 173.76 169.535 174.7C168.895 175.64 168.045 176.4 166.985 176.98C165.925 177.54 164.795 177.86 163.595 177.94C163.555 178.54 163.535 178.94 163.535 179.14C163.535 180.12 163.705 180.79 164.045 181.15C164.385 181.49 164.935 181.66 165.695 181.66C166.775 181.66 167.695 181.41 168.455 180.91C169.235 180.41 170.085 179.65 171.005 178.63H172.025C169.805 182.33 167.055 184.18 163.775 184.18ZM163.835 176.5C164.575 176.46 165.275 176.2 165.935 175.72C166.615 175.24 167.155 174.63 167.555 173.89C167.975 173.15 168.185 172.37 168.185 171.55C168.185 170.73 167.935 170.32 167.435 170.32C166.715 170.32 166.005 170.95 165.305 172.21C164.625 173.47 164.135 174.9 163.835 176.5ZM173.969 184.18C173.009 184.18 172.229 183.88 171.629 183.28C171.049 182.68 170.759 181.78 170.759 180.58C170.759 180.08 170.839 179.43 170.999 178.63L172.799 170.2H171.809L172.049 169H173.039L173.939 164.86L178.379 164.26L177.359 169H179.159L178.919 170.2H177.119L175.199 179.2C175.119 179.5 175.079 179.82 175.079 180.16C175.079 180.56 175.169 180.85 175.349 181.03C175.549 181.19 175.869 181.27 176.309 181.27C176.889 181.27 177.429 181.03 177.929 180.55C178.429 180.05 178.789 179.41 179.009 178.63H180.269C179.529 180.79 178.579 182.26 177.419 183.04C176.259 183.8 175.109 184.18 173.969 184.18ZM181.037 169H185.357L184.967 170.86C185.647 170.26 186.257 169.8 186.797 169.48C187.357 169.16 187.957 169 188.597 169C189.237 169 189.737 169.22 190.097 169.66C190.477 170.1 190.667 170.63 190.667 171.25C190.667 171.83 190.477 172.34 190.097 172.78C189.717 173.22 189.187 173.44 188.507 173.44C188.067 173.44 187.767 173.34 187.607 173.14C187.467 172.92 187.357 172.61 187.277 172.21C187.217 171.95 187.157 171.76 187.097 171.64C187.037 171.52 186.927 171.46 186.767 171.46C186.347 171.46 185.987 171.55 185.687 171.73C185.407 171.89 185.037 172.18 184.577 172.6L182.177 184H177.857L181.037 169ZM194.656 184.12C193.176 184.12 192.006 183.74 191.146 182.98C190.286 182.22 189.856 181.02 189.856 179.38C189.856 178 190.126 176.49 190.666 174.85C191.206 173.19 192.086 171.76 193.306 170.56C194.526 169.34 196.086 168.73 197.986 168.73C200.346 168.73 201.616 170.08 201.796 172.78C202.236 172.68 202.626 172.44 202.966 172.06C203.306 171.66 203.626 171.21 203.926 170.71H204.886C204.346 171.79 203.866 172.64 203.446 173.26C203.026 173.86 202.476 174.35 201.796 174.73C201.676 176.61 201.286 178.26 200.626 179.68C199.986 181.1 199.146 182.2 198.106 182.98C197.066 183.74 195.916 184.12 194.656 184.12ZM195.856 181.42C196.596 181.42 197.286 180.82 197.926 179.62C198.566 178.42 199.006 176.94 199.246 175.18C198.766 175 198.526 174.55 198.526 173.83C198.526 173.05 198.806 172.53 199.366 172.27C199.326 171.63 199.216 171.19 199.036 170.95C198.876 170.69 198.606 170.56 198.226 170.56C197.566 170.56 196.936 171.04 196.336 172C195.736 172.94 195.246 174.09 194.866 175.45C194.506 176.79 194.326 177.97 194.326 178.99C194.326 179.95 194.436 180.6 194.656 180.94C194.876 181.26 195.276 181.42 195.856 181.42Z" fill="#A1231B"/>
<path d="M62.6445 187.42C61.9045 187.42 61.2545 187.36 60.6945 187.24C60.1345 187.12 59.6445 186.83 59.2245 186.37C58.8245 185.91 58.6245 185.2 58.6245 184.24C58.6245 182.9 59.0245 181.1 59.8245 178.84C60.6445 176.58 61.7145 174.31 63.0345 172.03C62.0345 172.09 61.2445 172.24 60.6645 172.48C60.0845 172.72 59.7045 173.09 59.5245 173.59C59.6045 173.59 59.6845 173.69 59.7645 173.89C59.8645 174.09 59.9145 174.3 59.9145 174.52C59.9145 174.88 59.7545 175.17 59.4345 175.39C59.1145 175.59 58.7145 175.69 58.2345 175.69C57.6745 175.69 57.2245 175.54 56.8845 175.24C56.5445 174.94 56.3745 174.51 56.3745 173.95C56.3745 173.27 56.6345 172.65 57.1545 172.09C57.6945 171.53 58.4345 171.09 59.3745 170.77C60.3145 170.43 61.3545 170.26 62.4945 170.26C62.9145 170.26 63.4345 170.29 64.0545 170.35C65.6945 167.75 67.4245 165.63 69.2445 163.99C71.0845 162.33 72.8345 161.5 74.4945 161.5C75.4545 161.5 76.2445 161.64 76.8645 161.92L72.1545 184H67.8345L70.1445 173.11C69.4045 172.77 68.7245 172.52 68.1045 172.36C67.4845 172.2 66.8245 172.09 66.1245 172.03C64.9845 174.49 64.0445 177.01 63.3045 179.59C62.5845 182.15 62.2245 184.2 62.2245 185.74C62.2245 186.5 62.3645 187.06 62.6445 187.42ZM72.1545 163.63C71.2945 164.09 70.3945 164.95 69.4545 166.21C68.5345 167.45 67.6345 168.96 66.7545 170.74C68.1945 171.02 69.4145 171.37 70.4145 171.79L72.1545 163.63ZM94.3836 184.18C93.1636 184.18 92.2636 183.86 91.6836 183.22C91.1236 182.56 90.8436 181.75 90.8436 180.79C90.8436 180.37 90.8936 179.9 90.9936 179.38C91.0936 178.84 91.1936 178.32 91.2936 177.82C91.4136 177.32 91.4936 177 91.5336 176.86C91.6936 176.16 91.8436 175.47 91.9836 174.79C92.1236 174.11 92.1936 173.56 92.1936 173.14C92.1936 172.12 91.8336 171.61 91.1136 171.61C90.5936 171.61 90.1336 171.87 89.7336 172.39C89.3336 172.89 89.0136 173.55 88.7736 174.37L86.7336 184H82.4136L84.6036 173.65C84.6636 173.41 84.6936 173.16 84.6936 172.9C84.6936 172.02 84.3936 171.58 83.7936 171.58C83.2336 171.58 82.7436 171.84 82.3236 172.36C81.9236 172.86 81.6036 173.53 81.3636 174.37L79.3236 184H75.0036L78.1836 169H82.5036L82.1736 170.56C83.1936 169.42 84.4136 168.85 85.8336 168.85C87.5936 168.85 88.6236 169.71 88.9236 171.43C90.0236 169.73 91.4136 168.88 93.0936 168.88C94.1136 168.88 94.9236 169.16 95.5236 169.72C96.1236 170.28 96.4236 171.13 96.4236 172.27C96.4236 172.85 96.3536 173.5 96.2136 174.22C96.0736 174.92 95.8736 175.78 95.6136 176.8C95.4536 177.42 95.3036 178.03 95.1636 178.63C95.0436 179.21 94.9836 179.67 94.9836 180.01C94.9836 180.41 95.0736 180.72 95.2536 180.94C95.4336 181.16 95.7436 181.27 96.1836 181.27C96.7836 181.27 97.2636 181.06 97.6236 180.64C97.9836 180.2 98.3436 179.53 98.7036 178.63H99.9636C99.2236 180.83 98.3636 182.31 97.3836 183.07C96.4236 183.81 95.4236 184.18 94.3836 184.18ZM103.082 184.12C101.602 184.12 100.432 183.74 99.5721 182.98C98.7121 182.22 98.2821 181.02 98.2821 179.38C98.2821 178.02 98.5621 176.51 99.1221 174.85C99.6821 173.19 100.582 171.76 101.822 170.56C103.062 169.34 104.622 168.73 106.502 168.73C109.062 168.73 110.342 170.33 110.342 173.53V173.56C110.402 173.58 110.512 173.59 110.672 173.59C111.332 173.59 112.092 173.42 112.952 173.08C113.812 172.72 114.592 172.29 115.292 171.79L115.562 172.6C114.982 173.22 114.222 173.75 113.282 174.19C112.362 174.61 111.352 174.91 110.252 175.09C110.092 176.91 109.682 178.5 109.022 179.86C108.362 181.22 107.512 182.27 106.472 183.01C105.432 183.75 104.302 184.12 103.082 184.12ZM104.282 181.42C104.762 181.42 105.242 181.15 105.722 180.61C106.202 180.05 106.622 179.3 106.982 178.36C107.342 177.4 107.602 176.34 107.762 175.18C107.222 175.06 106.952 174.64 106.952 173.92C106.952 173.1 107.262 172.56 107.882 172.3C107.842 171.64 107.742 171.19 107.582 170.95C107.422 170.69 107.142 170.56 106.742 170.56C106.082 170.56 105.442 171.04 104.822 172C104.202 172.96 103.702 174.11 103.322 175.45C102.942 176.79 102.752 177.97 102.752 178.99C102.752 179.95 102.862 180.6 103.082 180.94C103.302 181.26 103.702 181.42 104.282 181.42ZM113.926 169H118.246L117.856 170.86C118.536 170.26 119.146 169.8 119.686 169.48C120.246 169.16 120.846 169 121.486 169C122.126 169 122.626 169.22 122.986 169.66C123.366 170.1 123.556 170.63 123.556 171.25C123.556 171.83 123.366 172.34 122.986 172.78C122.606 173.22 122.076 173.44 121.396 173.44C120.956 173.44 120.656 173.34 120.496 173.14C120.356 172.92 120.246 172.61 120.166 172.21C120.106 171.95 120.046 171.76 119.986 171.64C119.926 171.52 119.816 171.46 119.656 171.46C119.236 171.46 118.876 171.55 118.576 171.73C118.296 171.89 117.926 172.18 117.466 172.6L115.066 184H110.746L113.926 169ZM127.845 191.5C126.905 191.5 126.075 191.19 125.355 190.57C124.655 189.97 124.305 189.2 124.305 188.26C124.305 187.38 124.525 186.66 124.965 186.1C125.405 185.54 125.975 185.1 126.675 184.78C127.375 184.46 128.315 184.12 129.495 183.76L129.795 182.44C128.775 183.6 127.555 184.18 126.135 184.18C125.175 184.18 124.395 183.88 123.795 183.28C123.215 182.68 122.925 181.78 122.925 180.58C122.925 180.08 123.005 179.43 123.165 178.63L125.205 169H129.525L127.365 179.2C127.305 179.44 127.275 179.69 127.275 179.95C127.275 180.83 127.575 181.27 128.175 181.27C128.735 181.27 129.215 181.04 129.615 180.58C130.015 180.1 130.335 179.45 130.575 178.63L132.615 169H136.965L133.305 186.4C132.905 188.32 132.195 189.65 131.175 190.39C130.175 191.13 129.065 191.5 127.845 191.5ZM127.155 188.83C127.515 188.83 127.855 188.64 128.175 188.26C128.495 187.9 128.745 187.31 128.925 186.49L129.285 184.72C128.225 185.08 127.405 185.5 126.825 185.98C126.245 186.46 125.955 187.08 125.955 187.84C125.955 188.08 126.075 188.3 126.315 188.5C126.555 188.72 126.835 188.83 127.155 188.83ZM156.548 184.51C154.988 184.51 154.208 183.84 154.208 182.5C154.208 182.06 154.268 181.56 154.388 181C154.528 180.42 154.718 179.68 154.958 178.78C155.238 177.84 155.448 177.04 155.588 176.38C155.728 175.72 155.798 175.13 155.798 174.61C155.798 173.25 155.198 172.57 153.998 172.57C153.678 172.57 153.348 172.61 153.008 172.69L150.608 184H146.288L150.368 164.92L154.808 164.32L153.338 171.25H153.578C154.358 171.25 155.078 170.98 155.738 170.44C156.398 169.9 156.908 169.23 157.268 168.43C157.648 167.61 157.838 166.81 157.838 166.03C157.838 165.11 157.558 164.36 156.998 163.78C156.458 163.18 155.638 162.88 154.538 162.88C152.918 162.88 151.498 163.17 150.278 163.75C149.058 164.33 148.108 165.17 147.428 166.27C146.768 167.37 146.438 168.67 146.438 170.17C146.438 170.91 146.508 171.43 146.648 171.73C146.788 172.01 146.858 172.17 146.858 172.21C145.778 172.21 144.968 171.99 144.428 171.55C143.908 171.09 143.648 170.34 143.648 169.3C143.648 168.02 144.168 166.78 145.208 165.58C146.268 164.36 147.618 163.38 149.258 162.64C150.898 161.88 152.538 161.5 154.178 161.5C155.678 161.5 156.938 161.72 157.958 162.16C158.978 162.6 159.738 163.19 160.238 163.93C160.738 164.65 160.988 165.44 160.988 166.3C160.988 167.24 160.698 168.18 160.118 169.12C159.538 170.06 158.748 170.83 157.748 171.43C158.508 171.65 159.038 172.02 159.338 172.54C159.658 173.04 159.818 173.67 159.818 174.43C159.818 175.01 159.748 175.63 159.608 176.29C159.468 176.93 159.268 177.73 159.008 178.69C158.848 179.31 158.698 179.92 158.558 180.52C158.418 181.12 158.348 181.62 158.348 182.02C158.348 182.48 158.448 182.89 158.648 183.25C158.868 183.61 159.158 183.86 159.518 184C158.298 184.34 157.308 184.51 156.548 184.51ZM165.775 184.18C164.295 184.18 163.145 183.8 162.325 183.04C161.505 182.26 161.095 181.05 161.095 179.41C161.095 178.03 161.365 176.51 161.905 174.85C162.445 173.19 163.325 171.76 164.545 170.56C165.765 169.34 167.315 168.73 169.195 168.73C171.395 168.73 172.495 169.69 172.495 171.61C172.495 172.73 172.175 173.76 171.535 174.7C170.895 175.64 170.045 176.4 168.985 176.98C167.925 177.54 166.795 177.86 165.595 177.94C165.555 178.54 165.535 178.94 165.535 179.14C165.535 180.12 165.705 180.79 166.045 181.15C166.385 181.49 166.935 181.66 167.695 181.66C168.775 181.66 169.695 181.41 170.455 180.91C171.235 180.41 172.085 179.65 173.005 178.63H174.025C171.805 182.33 169.055 184.18 165.775 184.18ZM165.835 176.5C166.575 176.46 167.275 176.2 167.935 175.72C168.615 175.24 169.155 174.63 169.555 173.89C169.975 173.15 170.185 172.37 170.185 171.55C170.185 170.73 169.935 170.32 169.435 170.32C168.715 170.32 168.005 170.95 167.305 172.21C166.625 173.47 166.135 174.9 165.835 176.5ZM175.969 184.18C175.009 184.18 174.229 183.88 173.629 183.28C173.049 182.68 172.759 181.78 172.759 180.58C172.759 180.08 172.839 179.43 172.999 178.63L174.799 170.2H173.809L174.049 169H175.039L175.939 164.86L180.379 164.26L179.359 169H181.159L180.919 170.2H179.119L177.199 179.2C177.119 179.5 177.079 179.82 177.079 180.16C177.079 180.56 177.169 180.85 177.349 181.03C177.549 181.19 177.869 181.27 178.309 181.27C178.889 181.27 179.429 181.03 179.929 180.55C180.429 180.05 180.789 179.41 181.009 178.63H182.269C181.529 180.79 180.579 182.26 179.419 183.04C178.259 183.8 177.109 184.18 175.969 184.18ZM183.037 169H187.357L186.967 170.86C187.647 170.26 188.257 169.8 188.797 169.48C189.357 169.16 189.957 169 190.597 169C191.237 169 191.737 169.22 192.097 169.66C192.477 170.1 192.667 170.63 192.667 171.25C192.667 171.83 192.477 172.34 192.097 172.78C191.717 173.22 191.187 173.44 190.507 173.44C190.067 173.44 189.767 173.34 189.607 173.14C189.467 172.92 189.357 172.61 189.277 172.21C189.217 171.95 189.157 171.76 189.097 171.64C189.037 171.52 188.927 171.46 188.767 171.46C188.347 171.46 187.987 171.55 187.687 171.73C187.407 171.89 187.037 172.18 186.577 172.6L184.177 184H179.857L183.037 169ZM196.656 184.12C195.176 184.12 194.006 183.74 193.146 182.98C192.286 182.22 191.856 181.02 191.856 179.38C191.856 178 192.126 176.49 192.666 174.85C193.206 173.19 194.086 171.76 195.306 170.56C196.526 169.34 198.086 168.73 199.986 168.73C202.346 168.73 203.616 170.08 203.796 172.78C204.236 172.68 204.626 172.44 204.966 172.06C205.306 171.66 205.626 171.21 205.926 170.71H206.886C206.346 171.79 205.866 172.64 205.446 173.26C205.026 173.86 204.476 174.35 203.796 174.73C203.676 176.61 203.286 178.26 202.626 179.68C201.986 181.1 201.146 182.2 200.106 182.98C199.066 183.74 197.916 184.12 196.656 184.12ZM197.856 181.42C198.596 181.42 199.286 180.82 199.926 179.62C200.566 178.42 201.006 176.94 201.246 175.18C200.766 175 200.526 174.55 200.526 173.83C200.526 173.05 200.806 172.53 201.366 172.27C201.326 171.63 201.216 171.19 201.036 170.95C200.876 170.69 200.606 170.56 200.226 170.56C199.566 170.56 198.936 171.04 198.336 172C197.736 172.94 197.246 174.09 196.866 175.45C196.506 176.79 196.326 177.97 196.326 178.99C196.326 179.95 196.436 180.6 196.656 180.94C196.876 181.26 197.276 181.42 197.856 181.42Z" fill="#AB7870"/>
<defs>
<clipPath id="clip0_248_579">
<rect width="84" height="84" fill="white" transform="translate(88 54)"/>
</clipPath>
</defs>
</svg>
